<svg id="mapElevSVG" class="map__svg" data-name="Layer 1" xmlns="http://www.w3.org/2000/svg" width="1920" height="304.28" viewBox="0 0 1920 304.28">

<polygon class="map__elev" id="elevDay18" points="1807.06 291.87 1807.3 291.93 1807.49 292.05 1808.09 292.34 1808.45 292.49 1809.04 292.49 1809.43 292.33 1810.2 293.02 1810.75 293.44 1811.46 292.21 1811.85 292.16 1812.4 291.55 1812.9 291.08 1813.39 291.65 1813.84 291.87 1814.62 291.69 1816.8 292.74 1817.72 293.58 1818.77 294.11 1818.96 294.21 1819.88 294.58 1820.51 294.96 1820.77 295.71 1821.16 295.71 1822.67 294.64 1822.96 294.64 1823.11 295.09 1823.81 295.71 1824.14 295.71 1825.17 295.71 1826.23 295.71 1826.55 295.76 1826.98 296.78 1827.3 295.71 1828.12 295.71 1828.99 295.53 1829.64 295.32 1829.94 295.25 1830.11 295.35 1830.29 295.41 1830.43 295.36 1830.8 294.64 1833.02 294.53 1833.24 294.63 1833.48 294.72 1833.69 294.78 1834.3 294.96 1838.51 295.66 1838.77 295.71 1839.15 295.71 1842.25 296.52 1843.15 296.37 1843.57 296.55 1844.08 296.83 1844.27 296.7 1844.69 296.51 1845.87 296.2 1848.18 296.88 1848.46 296.71 1849.16 296.84 1849.53 297.85 1850.45 297.85 1851.17 296.74 1851.65 296.65 1852.04 296.75 1852.83 296.99 1853.57 297.39 1854.27 297.74 1854.83 297.93 1855.03 297.95 1855.67 298.12 1856.15 297.95 1856.89 297.47 1857.45 297.61 1857.78 297.87 1858.11 297.97 1858.31 297.58 1858.67 297.05 1858.99 296.86 1859.22 296.71 1859.66 295.87 1859.69 295.78 1859.97 295.09 1860.33 294.27 1860.53 293.89 1860.85 293.81 1861.06 293.59 1861.21 293.56 1861.48 293.57 1861.69 293.94 1861.86 294.1 1862.02 293.97 1862.29 294.06 1862.51 294.25 1862.63 294.44 1862.77 294.41 1862.95 294.1 1863.04 294.12 1863.28 294.38 1863.54 294.79 1863.8 295.23 1864.08 295.51 1864.83 295.72 1865.58 295.51 1866.03 294.63 1866.74 295.39 1867.82 297.51 1868.65 298.6 1869.28 299.14 1869.98 299.99 1871.57 299.99 1872.88 300.3 1873.86 299.99 1874.5 299.99 1875.15 299.61 1876.34 298.29 1877.14 298.53 1878.09 301.49 1878.87 302.63 1879.63 302.4 1880.13 302.47 1880.77 302.6 1881.26 302.7 1882.68 303.21 1884.48 302.14 1885.11 302.14 1885.93 302.95 1887.68 302.37 1888.26 302.14 1888.85 302.14 1889.25 302.51 1889.85 302.6 1890.77 302.48 1891.41 302.58 1892.09 303.21 1892.52 303.21 1893.59 302.14 1894.75 303.21 1895.12 303.21 1895.73 302.64 1896.26 302.84 1896.8 302.14 1897.65 303.21 1898.87 303.21 1899.7 302.98 1900.1 303.07 1900.48 303.21 1901.32 303.21 1903.41 303.54 1904.26 303.4 1904.99 304.28 1905.61 303.21 1906.13 304.28 1907.16 304.28 1908.42 302.14 1909.62 303.21 1911.57 303.21 1913.72 303.21 1915.37 303.48 1916.28 303.16 1917.16 304.28 1918.27 304.28 1919.42 303.6 1920 303.52 1920 304.28 1807.06 304.28 1807.06 291.87" fill="#002b7f"/>

<polygon class="map__elev" id="elevDay17" points="1694.12 230.71 1694.38 231.25 1695.05 232.65 1695.46 233.77 1695.7 233.4 1695.92 232.98 1696.04 232.88 1696.18 233.03 1696.43 233.4 1696.65 233.57 1696.86 233.56 1697.2 233.31 1697.48 233.08 1697.75 232.76 1698.02 232.6 1698.21 232.32 1698.35 232.2 1698.49 232.04 1698.79 232.09 1698.99 231.53 1699.35 230.74 1699.66 230.35 1701.72 230.19 1702.02 231.03 1702.22 230.74 1702.58 230.91 1703.45 229.68 1703.69 229.41 1704.3 228.06 1704.45 228.16 1704.65 227.83 1704.89 227.86 1705.14 228.41 1705.38 229.55 1705.58 230.33 1705.75 230.91 1705.89 230.65 1706.07 230.26 1706.27 230.38 1706.67 231.25 1707.49 233.45 1707.87 232.9 1708.07 232.11 1708.28 232.57 1708.48 233.1 1708.99 234.49 1709.31 235.4 1709.63 236.6 1709.99 235.82 1710.29 235.25 1710.62 233.65 1711.41 229.61 1712.07 226.19 1712.21 225.31 1712.51 223.48 1712.74 223.33 1712.97 224.52 1715.08 231.94 1715.71 233.41 1716.19 232.95 1716.53 233.46 1716.67 233.71 1716.83 233.49 1717.07 232.69 1717.27 231.5 1717.44 230.43 1717.69 229.25 1717.98 228.91 1718.21 228.21 1718.52 228.2 1718.78 228.44 1718.93 228.69 1719.55 230.47 1719.78 231.57 1720.09 231.45 1720.23 231.6 1720.54 233.21 1720.68 233.69 1721.01 233.77 1721.62 234.97 1721.88 236.05 1722.17 235.98 1722.52 234.94 1722.69 234.73 1722.87 235.37 1723.07 236.43 1723.21 237.22 1723.42 237.45 1723.69 236.6 1723.95 235.75 1724.24 235.05 1724.71 233.77 1725.01 232.93 1725.32 233.24 1725.69 233.62 1725.93 233.5 1726.05 233.27 1726.38 231.48 1726.48 231.04 1726.65 230.33 1726.74 230.16 1726.9 230.24 1727.14 231.19 1727.25 231.62 1727.38 232 1727.47 232.13 1727.6 232.04 1727.71 231.79 1727.84 231.34 1728.19 229.72 1728.32 229.16 1728.49 228.51 1728.65 228.26 1728.91 228.47 1728.99 228.4 1729.09 228.06 1729.19 227.59 1729.35 226.88 1729.43 226.55 1729.51 226.25 1729.6 226.07 1729.79 226.48 1730.22 226.68 1730.62 226.4 1730.99 228.1 1731.38 230.33 1731.53 231.22 1732.29 232.53 1733.46 227.87 1733.87 226.19 1734.17 224.51 1734.89 223.1 1735.22 222.51 1735.61 221.72 1736.12 221.31 1737.4 220.71 1737.58 220.73 1737.98 221.11 1738.34 221.64 1738.63 221.77 1739.4 221.96 1739.95 221.47 1740.14 220.98 1740.54 219.75 1740.77 219.64 1741.21 219.65 1741.61 220.31 1741.98 220.99 1742.51 221.41 1743.44 222.58 1743.77 222.94 1743.98 223.1 1744.27 223.19 1744.54 222.36 1744.76 221.73 1745.15 222.55 1745.38 223.27 1745.74 223.94 1746.06 224.04 1746.3 224.32 1746.85 226.84 1747.09 226.19 1747.26 225.73 1747.7 227.45 1748.7 228.25 1749.41 231.79 1749.66 232.78 1750.1 232.68 1750.48 233.46 1750.85 234.85 1751.44 237.5 1751.99 238.87 1752.59 239.29 1753.15 240.7 1754.33 243.65 1754.81 244.94 1755.46 245.64 1755.98 244.93 1756.39 244.45 1756.79 245.28 1757.1 245.75 1757.5 246.13 1757.72 246.35 1758 246.82 1758.76 246.63 1759.18 247.39 1759.5 248.15 1759.79 248.74 1761.07 250.74 1762 252.45 1762.31 252.4 1762.64 252.68 1762.92 253.54 1763.15 253.87 1763.38 253.97 1763.57 253.92 1764.29 253.95 1764.65 253.84 1765.1 253.35 1765.69 252.95 1766.41 254.55 1766.96 255.51 1767.38 255.42 1767.66 255.23 1768.09 255.83 1768.58 257.84 1768.94 259.53 1769.21 260.77 1769.55 261.25 1769.74 261.68 1769.95 262.9 1770.09 263.44 1770.27 264.2 1770.54 264.79 1770.84 264.9 1771.59 268.32 1772.14 270.62 1772.54 272.1 1773.49 273.7 1774.61 276.24 1775.28 278.35 1776.12 280.26 1776.58 280.91 1777.09 281.72 1777.7 282.73 1778.15 282.83 1778.4 282.63 1778.77 282.24 1779.27 280.73 1779.77 279.23 1780.1 280.41 1780.54 281.98 1781.2 283.24 1781.84 283.54 1782.14 284.03 1782.53 284.63 1783.19 284.79 1783.97 284.26 1784.57 284.52 1785.11 285.21 1785.61 285.76 1787.39 284.38 1788.09 284.57 1788.25 284.47 1788.73 285.17 1789.47 285.25 1790 286.11 1790.47 286.28 1790.66 286.06 1791.79 286.06 1792.09 286.5 1793.34 288.5 1793.78 288.96 1794.24 289.28 1794.43 289.28 1795 290.35 1795.76 290.35 1796.12 289.99 1796.93 290.31 1797.68 290.57 1798.67 291 1799.48 290.73 1799.97 290.78 1800.32 290.85 1800.69 290.93 1801.57 291.27 1802.49 291.76 1803.24 291.99 1803.8 292.14 1804.11 292.24 1805.27 292.46 1805.76 292.33 1806.45 292.03 1807.06 291.84 1807.06 304.28 1694.12 304.28 1694.12 230.71" fill="#002b7f"/>

<polygon class="map__elev" id="elevDay16" points="1581.18 227.92 1581.22 227.89 1581.62 228.09 1582.01 228.27 1582.28 228.36 1582.56 229 1582.84 229.79 1583.07 230.38 1583.31 231.05 1583.51 231.4 1583.72 231.78 1584.07 232.72 1584.51 233.77 1584.98 235.25 1585.4 236.86 1585.91 237.03 1585.97 237.07 1586.19 237.46 1586.24 237.51 1586.53 237.63 1587.09 238.21 1587.44 238.91 1587.59 239.24 1587.8 239.61 1588.16 240 1588.45 239.77 1588.77 239.56 1589.04 239.72 1589.41 240.96 1589.83 242.52 1590.28 243.53 1590.75 244.75 1591.2 246.21 1591.24 246.32 1591.56 247.21 1592.23 248.93 1592.56 249.76 1593.26 252.14 1593.49 252.9 1593.71 252.86 1593.96 253.01 1594.24 253.54 1594.5 253.69 1594.81 253.41 1595.09 253 1595.35 252.63 1595.96 252.85 1596.51 253.92 1597.04 253.92 1597.12 253.34 1597.16 253.32 1597.83 253.24 1598.67 252.88 1599.77 252.47 1600.47 253.05 1600.86 251.78 1601.23 251.78 1601.74 252.6 1602.24 252.39 1602.48 252.5 1602.73 252.54 1603.02 252.15 1603.17 252.07 1603.69 252.95 1603.98 253.1 1604.6 252.65 1605.56 251.58 1607.17 252.15 1607.94 252.85 1607.99 252.84 1608.27 252.77 1608.58 253.19 1608.88 253.76 1609.1 253.97 1609.43 253.66 1609.77 253.31 1610.27 253.17 1610.31 253.15 1610.64 252.9 1610.65 252.87 1611.04 252.58 1611.28 251.92 1611.33 251.8 1611.52 251.34 1611.9 250.4 1612.3 249.54 1612.53 249.15 1612.73 249.69 1612.95 249.78 1613.23 250.54 1613.54 250.58 1613.78 251.15 1614.14 250 1614.63 248.58 1615.44 247.28 1615.67 248.22 1616.17 248.29 1616.5 247.71 1616.9 247.43 1617.55 247.14 1617.91 247.81 1618.18 248.83 1618.44 249.56 1618.71 249.64 1618.95 249.63 1619.29 249.74 1619.8 249.95 1620.19 250.07 1620.64 250.44 1621.02 250.63 1621.31 249.59 1621.59 248.84 1621.77 248.47 1621.98 248.94 1622.49 251.75 1623.01 254.73 1623.42 255.71 1624.54 258.19 1625.27 259.5 1625.36 259.64 1626.05 260.81 1626.36 261.33 1626.82 261.88 1627.04 261.77 1627.33 261.71 1627.79 261.42 1628.06 261.25 1628.42 260.99 1628.75 260.41 1629 259.91 1629.35 259.27 1629.61 259 1629.96 258.56 1630.2 258.34 1630.37 257.99 1630.6 257.48 1630.83 257.15 1631.05 256.62 1631.19 256.37 1631.44 256.2 1631.65 255.75 1631.9 255.43 1632.11 254.96 1632.35 254.29 1632.61 253.5 1632.87 252.8 1633.51 251.99 1633.8 251.41 1634.13 250.65 1634.41 250.24 1634.62 250.36 1634.87 250.91 1635.13 250.38 1635.36 249.6 1635.62 248.63 1635.82 247.92 1636.1 246.93 1636.45 245.65 1636.76 245 1637.06 244.38 1637.31 243.82 1637.6 243.03 1637.79 242.58 1638.03 242.77 1638.34 242.24 1638.6 241.52 1639 240.4 1639.25 239.51 1639.44 238.79 1639.7 238.13 1639.93 238.22 1640.3 238.14 1640.5 238.22 1640.67 237.73 1640.85 237.19 1641.01 236.72 1641.33 236.1 1641.61 235.7 1641.87 235.27 1641.98 234.96 1642.68 232.67 1643.09 231.45 1643.72 229.98 1644.31 228.76 1644.35 228.73 1644.62 228.5 1644.9 228.21 1645.06 227.95 1645.53 227.13 1645.65 226.92 1645.82 226.75 1646.14 226.6 1646.37 226.41 1646.45 226.3 1646.99 225.2 1647.39 224.1 1647.64 223.56 1647.87 223.49 1648.01 223.26 1648.31 222.72 1648.68 221.91 1648.88 221.43 1649.09 220.9 1649.31 220.32 1649.49 219.84 1649.79 218.99 1649.92 218.71 1650.1 218.42 1650.25 218.24 1650.43 218.03 1650.63 217.8 1650.77 217.57 1650.89 217.31 1651.03 217.01 1651.19 216.61 1651.39 216.14 1651.55 215.8 1651.72 215.56 1651.88 215.4 1652.09 215.31 1652.34 214.99 1652.93 214.33 1653.09 214.17 1653.28 214.06 1653.39 213.98 1653.61 213.61 1653.83 213.18 1653.97 213.04 1654.22 213.21 1654.43 213.21 1654.77 212.82 1654.92 212.87 1655.09 212.7 1655.29 212.44 1655.44 212.29 1655.66 212.18 1655.89 212.14 1656.13 212.14 1656.31 211.91 1656.46 211.9 1656.59 212.06 1656.73 212.46 1656.95 213.23 1657.17 213.99 1657.38 214.7 1657.57 215.05 1657.86 215.21 1658.2 215.11 1658.47 214.65 1658.65 214.44 1658.81 214.14 1658.95 214.07 1659.14 214.72 1659.31 215.19 1659.52 215.75 1659.62 215.88 1659.84 215.6 1660.05 215.33 1660.22 214.91 1660.39 215.07 1660.42 215.12 1660.77 215.59 1660.82 215.62 1661.05 215.66 1661.3 215.73 1661.52 215.35 1661.74 216.42 1662.15 216.42 1662.44 215.7 1662.74 215.43 1662.91 215.26 1663.17 215.35 1663.54 215.37 1663.88 215.01 1664.33 214.34 1664.5 214.15 1664.85 213.84 1665.04 213.74 1665.19 213.67 1665.23 213.65 1665.49 213.75 1665.77 213.94 1665.97 214.04 1666.22 214.09 1666.47 214.05 1666.69 213.99 1666.72 214.02 1666.91 214.16 1667.05 214.34 1667.42 214.88 1667.59 215.11 1667.79 215.42 1667.92 215.82 1668.07 216.27 1668.21 216.64 1668.36 216.95 1668.51 217.02 1668.67 217.19 1668.87 217.38 1669.09 217.81 1669.47 218.47 1669.73 218.89 1670.07 219.38 1670.36 219.76 1670.58 220.17 1670.84 220.69 1670.89 220.77 1671.22 221.27 1671.77 222.23 1672.33 223.47 1672.57 223.95 1672.76 224.08 1673.06 223.56 1673.37 223.35 1673.62 223.28 1673.78 223.35 1674.01 223.28 1674.16 223.25 1674.28 223.3 1674.57 223.54 1674.77 223.71 1675.02 223.78 1675.18 223.73 1675.61 223.9 1676.18 224.4 1676.56 224.89 1677.07 225.63 1677.32 225.93 1677.64 226.23 1677.98 226.33 1678.76 227.14 1679.18 227.14 1679.47 228.21 1679.8 228.21 1680.09 228.21 1680.32 228.56 1680.58 229.22 1680.83 229.67 1681.16 229.28 1681.53 229.28 1681.81 229.77 1681.99 229.72 1682.39 230.06 1682.68 230.27 1682.86 230.23 1683.1 229.83 1683.31 229.5 1683.49 229.21 1683.68 229.26 1683.93 229.53 1684.18 229.69 1684.7 230.35 1685.83 230.35 1686.31 230.51 1686.57 230.88 1687.02 231.99 1687.62 233.48 1687.79 233.78 1688.03 234 1688.39 233.83 1688.77 233.61 1688.95 233.63 1689.12 233.72 1689.26 233.6 1689.56 233.87 1689.79 234.04 1690.15 234.12 1690.42 234.19 1690.95 234.58 1691.17 234.64 1691.18 234.64 1691.39 234.41 1691.66 233.98 1691.93 233.54 1691.94 233.52 1692.44 232.73 1692.91 232.21 1693.29 231.81 1693.53 231.52 1693.78 231.23 1694.12 231 1694.12 304.28 1581.18 304.28 1581.18 227.92" fill="#002b7f"/>

<polygon class="map__elev" id="elevDay15" points="1468.23 123.56 1469.94 120.05 1472.18 113.53 1473.81 108.38 1475.1 104.39 1476.45 100.88 1477.78 98.04 1479.03 96.57 1480.17 97.53 1481.01 101.66 1482.77 110.84 1485.19 122.5 1486.53 126.01 1488.27 133.79 1489.74 138.78 1495.09 146.4 1499.65 151.93 1503.93 145.1 1506.37 147.28 1509.25 149.43 1510.77 150.98 1513.22 158.47 1515.19 165.36 1516.26 168.54 1517.9 172.35 1521.92 168.32 1528.19 165.27 1530.56 168.04 1533.17 174.96 1535.48 176.46 1537.53 177.04 1539.1 180.14 1540.41 184.11 1543.25 193.93 1545.25 193.78 1547.48 192.37 1549.54 193.12 1554.38 196.16 1559.01 195.69 1562.67 199.19 1565.03 205.42 1567.32 212.93 1569.97 216.45 1571.67 219.99 1573.31 223.84 1575.35 226.33 1576.73 225.05 1578.27 226.6 1581.18 228.77 1581.18 304.28 1468.23 304.28 1468.23 123.56" fill="#002b7f"/>

<polygon class="map__elev" id="elevDay14" points="1355.29 124.35 1355.88 124.78 1356.61 124.49 1357.57 123.82 1359.27 122.52 1361.69 116.32 1363.21 111.28 1364.55 106.62 1365.62 104.06 1366.96 103.18 1368.01 103.36 1370.21 110.8 1371.84 116.68 1372.94 118.88 1374.17 119.29 1375.34 116.7 1376.02 115.13 1376.88 115.53 1378.19 115.79 1378.75 114.53 1379.76 111.92 1381.23 109.66 1382.89 110.35 1384.96 111.19 1385.93 110.89 1386.64 109.33 1387.38 108.52 1389.26 105.38 1390.08 104.63 1390.87 105.93 1391.67 106.12 1392.52 104.23 1393.56 102.75 1394.57 101.26 1395 100.64 1395.67 100.21 1396.8 102.74 1397.25 102.85 1398.01 101.43 1399.89 97.82 1401 95.61 1401.99 92.96 1402.93 92.59 1404.15 96.48 1404.69 97.06 1405.93 94.12 1406.81 92.81 1408.24 95.3 1409.05 95.16 1409.89 93.51 1412.62 94.78 1413.75 93.53 1414.6 94.28 1415.35 94.25 1416.32 92.7 1417.24 93.21 1418.4 93.86 1419.18 94.87 1420.1 98.32 1420.94 99.48 1421.84 103.25 1422.64 106.86 1424.41 115.12 1425.43 120.46 1426.49 125.77 1427.54 129.61 1428.94 128.32 1430.09 125.71 1431.23 122.96 1432.72 119.2 1434.87 113.86 1435.73 112.19 1436.75 111.22 1438.16 108.74 1438.99 107.04 1440.07 106.32 1441.04 102.88 1442.26 98.38 1443.39 93.32 1444.7 87.99 1445.91 82.87 1446.61 80.43 1447.87 79.97 1449.63 85.45 1450.98 88.96 1452.28 93.73 1454.23 103.41 1455.51 108.98 1457.06 115.2 1459.11 122.03 1459.98 123.15 1460.85 124.7 1462.8 127.08 1464.45 128.46 1465.94 130.57 1466.93 127.74 1468.23 124.59 1468.23 304.28 1355.29 304.28 1355.29 124.35" fill="#002b7f"/>

<polygon class="map__elev" id="elevDay13" points="1242.35 137.78 1243.74 137.58 1244.5 137.38 1245.01 137.63 1247.12 136.26 1247.46 135.93 1249.42 134.89 1251.47 133.68 1252.23 132.97 1253.68 132.33 1254.26 131.51 1254.57 131.33 1255.79 130.08 1256.57 129.83 1257.27 129.27 1258.05 129 1258.83 128.48 1259.46 127.97 1259.79 127.31 1260.14 126.59 1260.42 126 1260.94 125.76 1261.51 123.83 1261.66 123.22 1262.24 122.61 1262.67 121.64 1263.03 120.98 1263.47 121.49 1263.67 121.26 1263.85 120.9 1264.04 120.38 1264.37 119.66 1265.24 117.49 1265.44 117.4 1265.64 117.72 1265.87 118.35 1266.26 118.26 1266.6 117.42 1266.8 116.86 1267.11 116.6 1267.37 116.1 1268.1 113.68 1268.28 113.16 1268.44 112.69 1268.62 112.34 1268.87 112.22 1269.45 110.66 1269.63 110 1269.95 108.76 1270.17 108.58 1270.45 107.74 1270.63 107.38 1270.71 107.48 1270.79 107.86 1270.9 108.21 1270.9 108.21 1271.06 107.72 1271.22 106.97 1271.38 107.13 1271.54 106.66 1271.74 105.91 1271.85 105.71 1272.12 105.83 1272.45 105.66 1272.85 104.88 1273.19 104.24 1273.37 104.55 1273.47 104.76 1273.59 104.7 1273.67 104.45 1273.8 103.81 1273.88 103.33 1274.02 102.44 1274.1 101.99 1274.21 101.6 1274.36 101.57 1274.49 101.27 1274.64 100.6 1274.76 100.04 1274.88 99.59 1274.95 99.61 1275.06 100.05 1275.19 100.64 1275.3 100.71 1276.03 98.92 1276.39 98.12 1276.64 97.54 1276.85 97.21 1277.05 96.54 1277.11 96.43 1276.96 96.42 1277.08 96.35 1277.24 96.09 1277.41 95.82 1277.73 95.27 1277.99 94.8 1278.24 94.39 1278.47 93.96 1278.67 93.6 1279.1 95.25 1279.75 97.61 1280.06 97.97 1280.2 98.14 1280.55 98.39 1280.9 98.44 1282.56 101.76 1282.78 102.41 1282.87 102.74 1283.02 103.03 1283.16 102.95 1283.38 103.07 1283.65 103.02 1283.84 103.42 1284.01 103.73 1284.14 103.66 1284.38 103.72 1284.59 104.16 1284.8 104.74 1285.03 105.61 1285.33 106.47 1285.54 107.08 1285.7 107.47 1285.91 108.04 1286.38 109.71 1286.52 110.11 1286.63 110.36 1286.61 110.35 1286.8 109.8 1287.24 111.76 1287.53 111.43 1287.72 111.44 1287.92 111.81 1288.13 112.72 1288.25 112.67 1288.49 112.17 1288.61 112.31 1288.74 112.76 1288.84 113.13 1289.02 113.25 1289.28 113.06 1289.36 113.12 1289.44 113.19 1289.64 113.35 1289.72 113.34 1289.84 113.41 1290.01 113.57 1290.25 113.56 1290.45 113.09 1290.64 112.52 1290.85 111.82 1290.94 111.36 1291.14 111.31 1291.31 111.2 1291.66 110.33 1291.97 109.39 1292.1 108.94 1292.23 109.23 1292.39 109.6 1292.54 109.74 1292.65 109.58 1292.85 109.13 1292.99 108.78 1293.07 108.69 1293.3 108.58 1293.61 108.06 1293.98 107.95 1294.22 107.74 1294.47 107.81 1294.7 108.21 1294.85 108.22 1295.09 107.85 1295.4 106.92 1295.63 106.35 1295.79 106.08 1296.05 105.63 1296.23 105.76 1296.41 105.98 1296.65 105.77 1296.85 105.34 1297.25 104.46 1297.56 104.23 1297.8 104.36 1298.15 104.7 1298.49 105.26 1298.87 106.01 1299.16 107.19 1299.5 108.67 1299.79 109.84 1300.08 110.64 1300.47 111.02 1301.03 113.32 1301.72 114.95 1302.04 116.54 1302.17 116.49 1302.27 116.21 1302.41 116.13 1302.55 116.84 1302.75 117.88 1302.87 118.39 1303.02 118.8 1303.17 119.25 1303.33 119.75 1303.55 120 1303.71 120 1303.87 120.03 1303.99 121.07 1304.1 121.07 1304.23 119.91 1304.37 119.77 1304.46 120.08 1304.53 120.42 1304.61 120.79 1304.69 121.17 1304.9 121.66 1305.1 121.95 1305.22 121.5 1305.35 121.09 1305.63 121.47 1305.79 122.34 1305.97 122.82 1306.17 122.58 1306.29 122.26 1306.41 122.54 1306.61 124.1 1306.87 125.45 1307.07 125.75 1307.23 126.16 1307.44 126.64 1307.91 128.36 1308.13 129.6 1308.3 130.49 1308.51 131.43 1308.67 132.02 1308.77 132.34 1308.91 132.98 1309.05 133.41 1309.21 133.16 1309.39 131.71 1309.57 130.29 1309.67 130.02 1309.79 130.23 1309.9 130.81 1310.01 131.44 1310.11 132.2 1310.29 133.02 1310.42 133.66 1310.64 134.47 1310.81 135.61 1310.96 136.85 1311.47 140.24 1311.99 143.62 1312.71 143.35 1313.21 145.23 1313.5 146.9 1314.01 149.06 1314.55 151.63 1315.57 150.26 1316 149.41 1316.69 144.38 1317.05 141.37 1317.56 139.01 1317.87 136.42 1318.19 134.46 1318.57 133.46 1318.91 132.75 1319.67 129.88 1320.21 128 1320.88 124.97 1321.26 123.34 1321.77 122.29 1322.94 118.23 1323.61 117.06 1323.99 116.73 1324.71 115.8 1325.22 114.91 1325.56 114.42 1325.97 113.8 1326.38 114.11 1326.73 114.64 1327.03 114.67 1327.26 114.61 1327.68 114.28 1327.97 114.09 1328.16 114.42 1328.65 116.5 1328.96 116.78 1329.12 117.65 1329.88 119.1 1330.18 120.63 1330.37 121.05 1330.63 121.57 1330.85 122.63 1331.5 124.46 1331.87 125.45 1332.18 125.66 1332.56 125.73 1332.89 125.63 1333.14 126.35 1333.43 127.44 1333.75 128.61 1334.01 129.64 1334.37 129.63 1334.77 128.25 1335.23 130.3 1335.62 132.1 1336.26 132.63 1336.77 136.23 1337.25 135.73 1337.77 136.51 1338.14 138.81 1338.38 138.86 1338.82 136.17 1339.17 137.68 1339.59 139.88 1339.94 140.85 1340.3 141.19 1340.65 141.29 1340.65 141.31 1341.16 141.48 1341.17 141.49 1341.66 141.34 1341.67 141.29 1341.68 141.34 1341.68 141.31 1341.69 141.32 1341.69 141.34 1342.43 141.06 1342.55 140.83 1342.7 140.48 1342.87 139.82 1343.03 139.6 1343.17 139.49 1343.37 140.01 1343.48 140.16 1343.58 139.96 1343.75 139.54 1343.92 138.9 1344.12 137.94 1344.27 137.56 1344.37 137.2 1344.42 136.89 1344.53 136.83 1344.66 136.52 1344.79 135.94 1344.89 135.89 1345 136.47 1345.12 135.97 1345.3 134.55 1345.45 133.23 1345.57 133.96 1345.65 133.63 1345.76 132.9 1345.85 132.4 1345.95 132.96 1346.03 133.56 1347.06 130.79 1349.54 115.63 1350.35 114 1350.96 114.92 1351.53 119.15 1351.87 122.14 1352.16 122.17 1352.69 120.74 1353.09 120.16 1353.61 120.92 1354.07 120.42 1354.36 119.85 1354.59 121.1 1354.78 121.89 1355.29 123.22 1355.29 304.28 1242.35 304.28 1242.35 137.78" fill="#002b7f"/>

<polygon class="map__elev" id="elevDay12" points="1129.41 43.1 1129.5 43.3 1129.58 43.45 1129.64 43.55 1129.73 43.51 1129.82 43.38 1129.86 43.53 1129.95 43.89 1130.05 44.18 1130.15 44.55 1130.28 45 1130.4 45.32 1130.55 45.54 1130.66 45.58 1130.72 45.6 1130.83 45.74 1130.97 45.97 1131.08 46.1 1131.2 46.29 1131.34 46.52 1131.44 46.65 1131.57 46.51 1131.71 45.96 1131.86 45.34 1131.92 45.08 1131.97 44.91 1132.16 44.54 1132.38 44.2 1132.49 44.01 1132.61 43.59 1132.73 43.19 1132.84 42.85 1132.9 42.73 1132.97 42.83 1133.09 42.98 1133.24 43.18 1133.31 43.33 1133.39 43.51 1133.49 43.73 1133.63 43.93 1133.75 43.93 1133.84 43.97 1134 45 1134.07 43.93 1134.3 43.92 1134.41 43.78 1134.47 43.63 1134.54 43.52 1134.63 43.48 1134.76 43.41 1134.85 43.27 1135 43.01 1135.2 42.65 1135.29 42.46 1135.5 41.96 1135.66 41.61 1135.79 41.29 1136 40.63 1136.14 40.21 1136.2 40.08 1136.33 39.95 1136.46 39.81 1136.62 39.56 1136.75 39.27 1136.83 39.09 1136.92 38.9 1137.03 38.67 1137.19 38.3 1137.29 38.05 1137.41 37.75 1137.52 37.5 1137.53 37.46 1137.71 37.09 1137.85 36.87 1138.1 36.43 1138.36 35.99 1138.67 35.84 1138.83 35.77 1138.98 35.64 1139.15 35.45 1139.28 35.53 1139.48 35.7 1139.63 35.91 1139.77 36.09 1139.95 36.48 1140.1 36.8 1140.29 37.19 1140.67 37.72 1141.05 38.09 1141.69 37.93 1142.01 37.73 1142.14 37.65 1142.22 37.6 1142.36 37.45 1142.57 37.35 1142.95 37.12 1143.22 36.78 1143.43 36.43 1143.69 36.43 1143.83 36.41 1144 36.54 1144.18 36.67 1144.35 36.79 1144.56 37.5 1144.79 36.43 1145.02 36.43 1145.02 36.42 1145.26 35.99 1145.45 35.54 1145.46 35.53 1145.47 35.49 1145.64 35.16 1145.79 35.12 1145.93 35.1 1146.07 35.15 1146.28 35.31 1146.44 35.36 1146.74 36.43 1147.24 36.45 1147.39 36.4 1147.6 36.48 1147.72 36.6 1147.84 36.72 1147.96 36.7 1148.06 36.56 1148.12 36.45 1148.17 36.36 1148.23 36.32 1148.28 36.33 1148.35 36.44 1148.41 36.58 1148.57 36.81 1148.73 36.96 1148.87 37.11 1148.92 37.19 1149.05 37.43 1149.17 37.73 1149.36 38.35 1149.48 38.76 1149.59 39.15 1149.67 39.24 1149.86 39.09 1149.91 39.02 1150.03 38.94 1150.11 38.96 1150.17 39.09 1150.25 39.36 1150.41 39.98 1150.51 40.42 1150.63 40.95 1150.73 41.37 1150.83 41.74 1151 42.15 1151.12 42.49 1151.25 42.88 1151.4 43.29 1151.46 43.45 1151.61 43.74 1151.68 43.9 1151.75 44.09 1152.02 44.81 1152.21 45.31 1152.44 46 1152.54 46.23 1152.67 46.42 1152.77 46.53 1152.92 46.88 1153.17 47.44 1153.39 47.98 1153.51 48.2 1153.66 48.5 1153.88 48.98 1154.02 49.28 1154.35 49.97 1154.65 50.67 1154.93 51.21 1155.15 51.62 1155.17 51.64 1155.17 51.65 1155.34 51.96 1155.61 52.24 1155.82 52.32 1155.98 52.57 1156.08 52.8 1156.2 53.28 1156.36 53.91 1156.46 54.24 1156.56 54.53 1156.65 54.84 1156.79 55.23 1156.9 55.5 1157.06 55.81 1157.27 56.02 1157.45 55.76 1157.62 55.73 1157.73 55.8 1157.99 56.16 1158.42 56.01 1158.64 55.92 1158.98 56.26 1159.56 57.47 1159.77 58.15 1160.02 58.73 1160.3 59.51 1160.31 59.55 1160.56 60.24 1160.82 60.73 1161.03 61.11 1161.27 61.59 1161.47 62.05 1161.82 62.68 1162.05 62.9 1162.27 62.92 1162.44 62.98 1162.65 63.27 1162.86 63.62 1163.06 63.96 1163.35 64.54 1163.65 65 1163.91 65.37 1164.21 65.91 1164.55 66.52 1164.75 66.95 1164.96 67.49 1165.18 67.73 1165.42 68.15 1165.6 68.52 1165.77 68.68 1165.89 68.88 1165.98 69.13 1166.12 69.47 1166.22 69.76 1166.32 69.99 1166.46 70.26 1166.62 70.39 1166.76 70.37 1166.89 70.58 1167.08 71.01 1167.29 71.49 1167.46 71.91 1167.47 71.92 1167.74 72.56 1167.97 72.95 1168.36 73.58 1168.49 73.77 1168.66 74.09 1168.89 74.6 1169.11 75.03 1169.31 75.38 1169.63 75.85 1169.96 76.21 1170.26 76.37 1170.58 76.19 1170.79 76.36 1170.87 76.39 1171.01 76.21 1171.16 76.07 1171.51 77.14 1171.81 77.14 1172.24 77.05 1172.44 77.18 1172.77 78.2 1173.17 81.04 1173.43 82.26 1173.65 82.34 1173.72 82.51 1173.85 82.79 1173.95 83.03 1174.08 83.52 1174.18 83.73 1174.43 83.82 1174.76 83.91 1174.8 83.93 1174.82 83.98 1175.11 84.47 1175.28 84.37 1175.36 84.91 1175.54 85.67 1175.59 85.84 1175.6 85.87 1175.74 86.36 1175.75 86.38 1175.95 86.94 1176.19 87.56 1176.7 87.75 1176.92 88.05 1177.12 88.19 1177.38 88.35 1177.73 89.07 1177.99 90.07 1178 90.05 1178.11 89.92 1178.33 89.23 1178.42 89.28 1178.6 90.17 1178.79 90.87 1178.98 91.61 1179.22 92.24 1179.4 92.08 1179.59 91.78 1179.71 91.83 1179.8 92.17 1179.95 92.77 1180.18 93.42 1180.41 93.86 1180.64 94.03 1180.84 93.65 1181.04 93.63 1181.21 93.88 1181.35 94.26 1181.53 94.77 1181.56 94.86 1181.82 95.76 1182.05 96.25 1182.46 97.32 1182.95 97.89 1183.37 98.55 1183.59 99.1 1183.87 99.57 1184.26 99.88 1184.71 100.32 1185.24 100.94 1185.7 101.69 1186.23 102.12 1186.5 101.97 1187 102.48 1187.52 103.02 1187.78 103.65 1188.04 104.11 1188.05 104.12 1188.43 104.06 1188.8 103.93 1189.05 103.9 1189.31 103.65 1189.53 103.61 1189.87 103.66 1190.1 103.48 1190.48 103.32 1190.81 103.17 1191.27 103.73 1192.16 104.46 1193.43 105.69 1194.63 106.57 1195.26 107.11 1195.9 107.22 1196.74 107.57 1197.78 107.14 1199.52 107.14 1199.92 106.84 1199.99 106.89 1201.09 108.29 1202.84 108.97 1203.58 108.51 1203.73 108.21 1204 107.94 1204.39 107.14 1204.73 107.14 1205.17 108.09 1205.4 108.21 1205.83 108.21 1206.24 108.2 1206.5 108.29 1206.92 108.63 1207.45 109.66 1207.98 110.09 1208.26 110.28 1208.59 110.36 1208.94 110.38 1209.13 110.24 1209.6 110.35 1209.97 110.18 1210.17 110.07 1210.33 110.06 1210.52 109.71 1210.69 109.26 1210.87 109.52 1211.16 110.2 1211.43 110.33 1211.83 110.14 1212.46 110.42 1212.88 110.61 1213.21 110.55 1213.66 110.38 1213.99 110.59 1214.15 109.67 1214.34 108.29 1214.44 108.09 1214.62 108.78 1214.85 109.96 1215.12 111.51 1215.29 111.3 1215.64 109.63 1215.96 110.13 1216.25 110.51 1216.55 110.75 1216.77 110.32 1216.98 109.35 1217.18 109.46 1217.41 109.72 1217.59 109.49 1217.82 108.68 1218.04 107.76 1218.2 107.95 1218.41 108.61 1218.59 109.49 1218.83 110.4 1219.03 110.64 1219.27 110.54 1219.44 110.59 1219.74 112.26 1219.95 113.08 1220.14 113.3 1220.37 113.33 1220.67 113.37 1220.96 113.52 1221.24 114.67 1221.46 115.81 1221.61 116.32 1221.79 116.95 1221.88 117.4 1221.98 117.69 1222.19 117.53 1222.35 117.88 1222.51 118 1222.65 117.86 1222.83 118.08 1223.07 119.51 1223.48 121.33 1223.78 122.41 1224.07 123.21 1224.32 123.24 1224.62 123.61 1224.91 124.63 1225.15 124.38 1225.43 124.75 1225.74 125.51 1226.02 125.82 1226.18 126.13 1226.48 127.72 1226.75 128.57 1226.97 128.5 1227.24 127.67 1227.6 127.87 1227.97 128.21 1228.36 128.45 1228.71 128.07 1229.08 127.89 1229.24 128.03 1229.42 128.2 1229.59 128.02 1229.91 128.27 1230.32 128.34 1230.59 128.66 1230.72 128.53 1230.93 128.29 1231.14 128.42 1231.39 128.57 1231.62 128.57 1231.82 128.7 1232.12 129.14 1232.38 129.65 1232.66 130.04 1233.05 130.2 1233.56 130.71 1234 130.71 1234.47 131.34 1234.69 131.39 1235.13 130.97 1235.35 131.62 1235.65 132.51 1236.14 133.6 1236.52 134.44 1237 135.27 1237.41 135.94 1237.95 136.45 1238.45 136.97 1238.89 137.42 1239.17 137.52 1240.45 137.86 1241.57 138.48 1242.35 138.85 1242.35 304.28 1129.41 304.28 1129.41 43.1" fill="#002b7f"/>

<polygon class="map__elev" id="elevDay11" points="1016.47 81.43 1017.02 82.91 1017.65 84.45 1018.12 85.07 1018.9 86.19 1019.4 87.82 1019.97 90.14 1020.64 92.88 1021.07 93.39 1021.76 93.69 1022.18 92.94 1022.72 91.95 1023.13 90.96 1023.56 89.89 1024.12 88.41 1025 88.31 1025.58 88.99 1026.08 88.83 1026.52 88.22 1026.85 87.68 1027.43 87.58 1027.93 87.86 1028.41 87.85 1029.18 86.43 1029.93 84.29 1030.54 83.78 1031.8 83.39 1032.77 82.5 1034.12 82.39 1035.7 84.9 1037.06 84.05 1038.15 83.64 1039.2 82.72 1039.67 81.19 1042.42 80.02 1044.07 78.11 1045.15 75.55 1046.14 73.21 1047.62 70.5 1048.8 69.93 1050.24 68.44 1051.54 65.73 1052.26 66.68 1053.09 65.67 1055.07 64.05 1056.1 62.32 1057.3 61.08 1058.42 58.22 1059.39 56.3 1060.28 56.92 1061.09 54.87 1062.1 53.67 1062.98 51.54 1064.23 46.83 1065.3 42.7 1066.76 36.09 1067.81 31.34 1068.8 27.8 1070.19 27.33 1071.04 27.49 1072.1 27.74 1073.1 27.25 1073.96 26.65 1075.18 24.64 1076.39 21.55 1077.85 18.98 1079.33 17.02 1080.28 16.7 1081.28 14.74 1082.51 10.99 1084.36 7.51 1085.53 5 1086.33 3.71 1087.48 2.46 1088.35 1.42 1089.27 0.28 1089.98 0 1090.93 0.5 1091.84 1.1 1093.47 4.2 1094.36 6.41 1095.9 9.92 1096.69 11.2 1099.12 14.56 1100.43 15 1102.92 15 1105.01 17.68 1106.33 19.66 1108.62 23.46 1109.59 24.59 1110.77 26.11 1111.73 27.3 1112.5 28.69 1113.73 30.68 1114.21 31.42 1114.47 31.7 1114.77 31.98 1115.17 32.57 1115.56 33.1 1116.14 33.94 1116.41 34.27 1116.63 34.58 1116.87 34.98 1117.1 35.28 1117.36 35.24 1117.64 35.77 1117.97 36.23 1118.28 36.64 1118.57 37.04 1118.93 37.28 1119.19 37.45 1119.51 37.69 1119.97 38 1120.35 38.2 1120.76 38.39 1121.16 38.67 1121.43 38.84 1121.65 38.99 1121.87 39.17 1122.12 39.34 1122.35 39.47 1122.54 39.54 1122.74 39.6 1123.07 39.74 1123.23 39.77 1123.39 39.71 1123.49 39.67 1123.6 39.64 1123.77 39.66 1123.93 39.78 1124.1 39.96 1124.22 40.12 1124.35 40.28 1124.54 40.45 1124.7 40.49 1124.86 40.53 1125.02 40.65 1125.22 40.85 1125.5 41.04 1125.71 41.17 1125.88 41.26 1126.04 41.31 1126.25 41.35 1126.42 41.38 1126.62 41.42 1126.86 41.48 1127.07 41.56 1127.24 41.54 1127.52 41.46 1127.79 41.3 1128 41.24 1128.24 41.4 1128.44 41.55 1128.62 41.64 1128.79 41.71 1129.01 41.85 1129.27 42.06 1129.41 42.19 1129.41 304.28 1016.47 304.28 1016.47 81.43" fill="#002b7f"/>

<polygon class="map__elev" id="elevDay10" points="903.53 175.71 904.08 175.71 904.47 175.75 905.14 175.54 905.83 175.84 906.76 176.78 907.38 176.78 907.97 175.96 909.02 176.07 909.56 176.78 910.29 176.81 911.63 176.48 912.91 177.63 913.27 177.68 913.55 177.63 915.4 178.46 917.97 180.08 919.25 181.16 922.04 182.52 923.35 182.09 925.48 180.73 928.31 178.91 928.88 179.48 929.54 180.73 930 180.92 930.83 180.78 931.86 179.79 932.95 179.11 933.25 178.95 934.96 177.43 935.55 176.74 936.36 175.8 937.28 174.47 937.82 173.71 938.34 173.07 938.53 173.36 938.82 173.74 939.15 174.07 939.38 174.32 939.65 174.1 939.94 173.41 940.26 172.61 940.46 172.32 940.7 172.23 940.97 172.3 941.23 172.72 941.39 173.17 941.51 173.47 941.62 173.49 941.85 173.15 942.25 172.4 942.6 171.73 942.77 171.68 942.99 172.5 943.36 172.53 944.47 172.09 945.06 171.82 945.82 171.54 947.18 170.62 947.99 169.76 948.88 168.72 949.92 167.77 950.53 167.3 951.34 166.49 951.86 166.12 952.13 165.89 952.87 165.6 953.61 165.15 954.49 164.86 955.28 164.1 956.06 162.84 956.79 162.38 957.07 161.99 957.61 161.79 958.68 160.62 959.05 160.27 959.28 159.57 959.45 159.07 959.63 158.51 960.04 157.05 960.16 156.54 960.33 156.38 960.55 156.58 960.85 155.9 961.18 155.77 961.45 155.59 961.66 154.96 961.84 154.26 962.09 153.94 962.48 153.66 963.05 154.01 963.24 153.64 963.39 153.16 963.63 152.46 963.81 151.84 963.96 151.47 964.13 151.23 964.55 151.18 964.76 150.67 965.13 149.64 965.55 148.05 966.11 146.48 966.27 146.45 966.62 146.04 967.04 145.32 967.26 144.94 967.97 143.71 968.28 143.12 968.54 143.06 968.8 142.96 968.94 142.91 969.06 142.76 969.19 142.48 969.39 141.98 969.55 141.59 969.75 141.08 969.95 140.5 970.31 139.47 970.66 138.73 970.94 138.32 971.16 138.4 971.38 138.28 971.72 137.71 971.9 137.17 972.01 136.79 972.1 136.49 972.24 136.44 972.37 136.66 972.47 136.61 972.77 136.12 972.99 135.48 973.15 134.94 973.31 134.37 973.61 133.31 973.8 132.92 973.97 132.64 974.15 132.25 974.32 131.65 974.47 131.36 974.55 131.23 974.75 130.89 974.88 130.48 975.14 129.66 975.23 129.42 975.31 129.59 975.42 129.8 975.6 130.02 975.74 130.16 975.88 129.96 975.99 129.6 976.15 129.09 976.23 128.93 976.37 128.82 976.53 129.13 976.79 129.79 976.91 129.83 977.11 129.52 977.22 129.2 977.28 129.14 977.36 129.09 977.5 128.88 977.62 128.63 977.75 128.29 977.87 128.02 977.96 127.94 978.18 127.82 978.6 127.76 978.68 127.61 978.77 127.38 978.99 126.85 979.19 126.32 979.53 125.26 979.74 124.58 979.99 124.06 980.87 122.8 980.99 122.64 981.38 123.14 981.63 123.47 981.92 123.14 982.11 122.47 982.65 120.41 983.07 118.3 983.34 116.92 983.51 116.11 984.01 114.69 984.45 113.82 984.67 114.03 985 115.12 985.43 115.83 985.57 115.61 985.95 114.68 986.27 114.11 986.63 113.4 986.89 112.78 987.16 112.23 987.28 112.04 987.37 112.01 987.75 112.39 987.91 112.43 988.06 112.41 988.19 112.38 988.31 112.42 988.46 112.5 988.3 112.48 988.49 112.38 988.68 112.16 988.88 111.84 989.02 111.56 989.17 111.25 989.25 111.06 989.32 110.95 989.43 110.86 989.57 110.9 989.7 110.87 989.79 110.61 989.91 110.17 990.07 110.1 990.26 110.32 990.32 110.26 990.42 110.16 990.92 109.67 990.98 109.47 991.04 109.31 991.3 108.95 991.46 108.86 991.6 108.73 991.71 108.58 991.8 108.35 991.93 108.11 992.09 107.83 992.3 107.39 992.42 107.19 992.59 106.85 992.68 106.61 992.81 106.3 992.92 106.02 993.11 105.52 993.64 104.62 993.78 104.52 993.93 104.44 994.03 104.42 994.15 104.38 994.29 104.27 994.45 104.1 994.71 103.81 995.31 103.43 995.42 103.42 995.47 103.43 995.55 103.46 995.7 103.52 995.94 103.62 996.05 103.67 996.13 103.7 996.2 103.73 996.36 103.81 996.45 103.85 996.63 103.92 996.75 103.98 996.89 104.05 996.97 104.09 997.09 104.16 997.22 104.12 997.33 104.06 997.44 103.97 997.57 103.9 997.72 103.86 997.86 103.98 998.23 104.59 998.4 104.92 998.58 105.29 998.82 105.78 999 106.07 998.78 106.09 999.04 105.85 999.22 105.61 999.54 105.2 999.72 104.95 1000.14 103.95 1001.22 101.37 1001.8 98.56 1002.39 96.13 1002.91 94.51 1003.17 94.08 1003.5 93.59 1003.78 93.21 1003.78 94.28 1004.04 94.28 1004.27 94.02 1004.51 93.74 1004.7 93.64 1004.91 93.47 1005.08 93.28 1005.18 93.14 1005.33 92.92 1005.44 92.77 1005.68 92.62 1005.84 92.6 1005.92 92.44 1006.04 92.15 1006.19 91.75 1006.36 91.36 1006.57 91.52 1006.82 91.58 1006.97 91.43 1007.13 91.1 1007.25 90.74 1007.4 90.64 1007.7 90.49 1007.92 90.32 1008.17 90.04 1008.42 89.75 1009.02 89.28 1009.25 89.17 1009.36 89.1 1009.68 88.75 1010.24 88.17 1010.47 87.84 1010.63 87.54 1010.79 87.23 1011 86.9 1011.31 86.33 1012.01 85.36 1012.16 85.14 1012.61 84.67 1012.84 84.26 1012.97 84.02 1013.16 83.67 1013.3 83.37 1013.44 82.95 1013.59 82.56 1013.94 81.91 1014.12 81.73 1014.28 81.9 1014.4 82.09 1014.72 81.27 1014.93 80.84 1015.21 80.24 1015.4 79.8 1015.72 80.05 1015.95 80.6 1016.47 82.27 1016.47 304.28 903.53 304.28 903.53 175.71" fill="#002b7f"/>

<polygon class="map__elev" id="elevDay9" points="790.59 225.44 791.32 225.6 792.3 224.78 793.85 222.67 795.49 220.75 797.44 219.18 799.3 218.27 800.19 217.35 800.42 217.22 800.6 217.25 801.11 216.95 803.15 214.25 804.16 213.53 804.3 213.41 804.42 213.17 804.62 212.78 806.01 210.69 807.18 209.61 807.52 209.13 807.87 208.68 808.25 208.14 808.47 207.94 808.61 207.84 809.39 206.78 809.8 206.01 810.06 205.32 810.28 204.84 810.4 204.48 810.62 203.66 810.97 202.79 811.31 201.91 811.7 201.13 812.1 199 812.27 198.88 812.49 199.04 812.69 198.51 813.11 197.92 813.64 201.72 813.73 201.55 813.93 201.04 814.17 200.25 814.6 199 814.96 198.34 815.32 198.21 815.65 198.21 816.19 198.55 816.46 199.28 816.97 199.26 817.53 198.13 817.61 198.22 817.72 198.28 817.96 198.37 818.25 198.33 818.48 198.51 818.57 198.71 818.62 198.68 818.74 198.47 819.13 197.68 819.74 197.14 820.58 195.52 821.15 194.7 821.46 194.2 821.52 194.15 821.76 194.23 822.02 194.32 822.47 193.76 823 192.78 823.1 192.57 824.4 190.15 824.55 189.88 824.7 189.42 824.95 188.57 825.39 187.23 825.97 185.93 826.32 185.42 826.44 185.24 826.69 184.84 826.79 184.45 827.07 183.33 827.27 182.64 827.66 180.85 828.13 178.73 828.48 178.22 828.57 178.02 828.6 177.92 828.65 177.92 829.02 178.55 829.07 178.56 829.51 176.96 829.68 176.34 829.8 176.12 829.89 176.16 830.05 176.18 830.49 176.01 830.77 175.79 830.87 175.65 831.06 175.27 831.35 174.7 831.69 174.04 831.82 173.82 832.2 173.16 832.6 172.38 832.76 172.06 832.86 171.88 833.07 171.49 833.27 170.98 833.36 170.68 833.46 170.39 833.53 170.16 833.59 170.06 833.63 170.13 833.71 170.2 833.82 170.03 834.04 169.39 834.4 169 834.44 168.86 834.53 168.77 834.89 168.22 835.16 167.49 835.34 166.7 835.44 166.28 835.56 165.65 835.62 165.29 835.69 165 835.86 164.99 835.96 164.85 836.25 164.36 836.39 164.04 836.58 163.4 836.74 162.78 836.81 162.55 836.92 162.4 837.04 162.46 837.11 162.55 837.23 162.85 837.26 162.86 837.37 162.7 837.5 162.54 837.79 162.18 838.11 161 838.25 160.9 838.52 159.76 838.63 159.89 838.98 158.54 839.31 157.19 839.61 156.27 839.7 156.46 839.98 157.14 840.11 157.47 840.35 157.5 840.6 157.5 840.71 157.7 840.84 159 841.04 160.16 841.57 162.64 841.65 162.76 841.73 162.52 841.86 162.67 842.01 162.81 842.3 162.43 842.64 161.84 842.93 162.09 843.04 162.21 843.1 162.48 843.24 162.89 843.62 163.99 843.76 164.68 843.92 165.23 844.1 165.46 844.44 165.15 844.53 165.38 844.64 165.78 844.78 165.84 844.93 165.92 845.01 165.84 845.05 165.74 845.46 164.8 845.6 164.32 845.69 163.87 845.92 162.76 846.07 162.33 846.32 162.09 846.52 161.95 846.59 161.68 846.65 161.37 846.76 160.87 846.93 160 847.05 159.39 847.25 158.94 847.34 158.89 847.48 158.68 847.58 158.41 847.65 158.11 847.72 157.77 847.82 157.18 847.92 156.62 848 156.36 848.16 156.11 848.24 155.96 848.38 155.51 848.49 155.42 848.64 155.34 848.74 155.42 848.78 155.34 848.87 155 848.98 154.59 849.08 154.5 849.43 154.96 849.51 155 849.6 154.72 849.72 154.32 849.81 154 849.93 153.57 849.98 153.39 850.02 153.19 850.12 152.84 850.28 152.53 850.4 152.28 850.49 151.91 850.59 151.43 850.69 150.97 850.74 150.87 850.8 150.53 850.87 150.21 850.94 149.96 851.02 149.8 851.27 148.77 851.35 148.48 851.46 148.42 851.62 148.24 851.72 147.9 852 146.64 852.09 146.35 852.36 145.92 852.55 145.27 852.71 144.66 852.81 144.11 853 143.35 853.15 143.07 853.38 142.62 853.52 142.13 853.63 141.47 853.71 140.77 853.82 140.35 854.13 140.35 854.28 141.43 854.62 141.45 854.7 141.18 854.78 140.49 854.95 138.98 855.07 138.34 855.31 137.46 855.52 136.99 855.82 136.44 855.97 136.19 856.24 135.58 856.31 135.19 856.42 134.57 856.62 134.64 856.9 135.38 857.02 135.59 857.23 135.61 857.33 135.52 857.41 135.24 857.54 134.52 857.73 133.49 857.84 133.33 858 132.99 858.21 132.88 858.38 132.6 858.57 132.44 859.46 131.79 859.54 131.69 859.62 131.59 859.75 131.56 859.9 131.59 860.01 131.65 860.13 131.93 860.21 132.15 860.31 132.17 860.58 131.93 860.8 131.78 860.91 131.79 861.16 131.87 861.31 131.91 861.42 132.28 861.57 132.77 861.73 133.21 861.87 133.44 862.06 133.75 862.24 134.37 862.41 134.93 862.71 135.73 862.95 136.43 863.04 136.7 863.19 137.09 863.29 137.38 863.35 137.54 863.56 137.9 863.65 137.95 863.77 137.71 863.94 137.69 864.22 136.97 864.37 136.83 864.6 137.73 864.71 138.28 864.85 138.85 864.98 139.67 865.1 140.51 865.21 140.99 865.34 140.92 865.6 140.34 865.67 140.41 865.77 140.68 865.85 141.1 865.97 141.9 866.1 142.5 866.31 143.08 866.47 143.56 866.56 143.8 866.74 144.43 867.03 145.88 867.19 146.41 867.3 146.68 867.44 146.75 867.49 146.86 867.58 147.18 867.66 147.53 867.75 147.85 867.97 147.86 868.13 147.6 868.36 147.79 868.58 147.62 868.73 147.04 868.93 146.72 869.13 147.18 869.2 147.61 869.25 148 869.58 148.87 869.78 149.13 869.92 149.41 870.07 149.79 870.24 150.01 870.35 150.49 870.48 151.32 870.56 151.69 870.61 151.97 870.75 152.23 870.9 151.97 871.07 151.93 871.22 152.15 871.38 152.76 871.48 153.3 871.54 153.51 871.63 153.37 871.74 152.9 871.83 152.38 871.93 151.93 872.06 151.86 872.19 151.41 872.26 151.09 872.31 151.37 872.43 152.21 872.54 152.91 872.72 153.78 872.83 154.04 872.96 154.1 873.08 153.98 873.16 154.16 873.19 154.36 873.25 154.77 873.33 155 873.56 154.96 873.9 155.65 874.08 156.12 874.23 156.28 874.44 157.05 874.76 158.79 875.02 160.34 875.21 161.28 875.48 161.98 875.6 161.48 875.75 161.21 875.89 161.51 875.97 161.78 876.13 161.59 876.24 161.74 876.29 162.02 876.39 162.46 876.51 163.09 876.59 163.44 876.79 163.33 876.87 163.32 876.99 163.89 877.07 164.2 877.14 164.27 877.24 164.41 877.68 165.09 877.83 165.11 878.03 164.96 878.28 165.26 878.44 165.61 878.58 165.89 878.72 166.31 878.84 166.68 878.94 166.92 879.12 167.15 879.27 167.32 879.44 167.53 879.7 167.95 879.88 168.29 880 168.49 880.1 168.69 880.25 168.86 880.39 169.03 880.47 169.15 880.56 169.3 880.74 169.55 880.98 169.85 881.12 170.04 881.31 170.31 881.45 170.45 882.07 170.93 882.14 171 882.27 171.13 882.51 171.27 882.88 171.5 883.49 172.14 884.39 173.39 884.71 173.57 884.76 173.57 885.24 174.64 885.3 174.64 885.39 173.7 885.47 173.77 885.95 174.42 886.05 174.56 886.09 174.55 886.15 174.53 886.23 174.51 886.72 174.18 886.94 172.59 887.18 171.25 887.32 171.03 887.59 171.37 887.8 171.6 888.21 172.55 888.67 173.38 888.91 173.81 889.06 174.11 889.19 173.57 889.44 173.57 889.81 174.13 890.11 173.29 890.4 172.38 890.62 172.28 891.19 172.81 891.68 173.5 891.99 173.82 892.32 174.64 892.53 174.64 893.84 174.5 894.2 175.02 894.37 174.67 894.76 173.56 895.02 172.5 895.48 172.5 895.93 172.84 896.43 172.65 896.84 173.14 896.99 173.32 897.47 173.73 897.87 173.82 898.73 173.47 899.81 173.64 900.29 174.88 900.55 174.91 900.78 174.71 901.03 174.43 901.52 173.27 901.99 173.49 902.22 173.73 902.42 174 902.74 174.24 903.09 174.55 903.53 174.74 903.53 304.28 790.59 304.28 790.59 225.44" fill="#002b7f"/>

<polygon class="map__elev" id="elevDay8" points="677.65 238.92 678.33 240 678.86 238.92 679.1 238.92 679.51 240 680.14 238.92 680.83 240 681.02 240 681.54 239.36 681.95 240 682.8 240 683.41 240.33 684.02 240.53 684.59 240.71 684.9 240.99 685.21 241.16 685.45 241.18 685.94 241.31 686.98 241.07 687.53 241.07 688.01 241.4 688.6 241.73 689.12 242.14 691.11 242.14 691.33 241.77 691.6 241.74 691.84 241.6 692.09 241.56 692.36 241.74 692.7 241.91 693.12 242.07 693.48 242.24 693.84 242.14 694.15 242.14 694.44 242.29 694.71 242.42 695.75 242.53 696.02 243.21 696.47 243.21 696.85 242.4 697.16 242.14 697.37 243.21 697.6 243.21 697.78 242.44 697.89 242.39 700.55 241.91 701.69 241.03 702.75 241.07 704.02 242.14 704.64 242.14 706.4 242.14 706.67 242.09 707.38 241.94 708.27 241.72 709.17 242.08 709.6 242.03 711.56 241.67 711.7 241.64 711.86 241.6 715.52 240.87 716.28 240.7 716.65 241.07 717.08 241.07 718.08 240.63 718.75 240.48 719.28 240.3 725.12 237.92 725.27 237.78 725.43 237.68 728.4 236.88 729.11 236.72 729.53 236.54 729.63 236.52 729.74 236.6 731.61 237.7 731.83 236.78 738.73 237.85 738.9 237.85 739.08 237.85 740.13 237.77 740.3 237.64 740.42 237.55 741.05 237.18 741.15 237.06 741.23 236.94 741.38 236.91 741.65 236.98 741.74 236.95 741.84 236.57 741.93 236.01 742.09 235.3 742.27 235.03 742.45 234.76 742.62 233.97 742.78 233.44 742.88 233.61 743.08 234 743.25 234.23 743.4 234.34 743.91 232.77 744.28 232.26 744.45 231.24 744.64 229.52 744.85 227.79 744.99 226.82 745.09 227.2 745.28 229.18 745.37 230.13 745.46 231.16 745.54 231.75 745.78 230.36 745.96 230.93 746.24 230.03 746.52 228.52 746.69 228.94 746.88 230.21 747.11 231.39 747.26 231.91 747.61 231.48 747.82 231.16 748.04 231.73 748.36 232.5 748.78 232.47 748.98 232.15 749.26 231.32 749.43 230.78 749.72 227.79 749.87 226.3 749.94 225.97 750.11 227.11 750.25 228.35 750.45 229.39 750.62 229.33 751.02 229.74 751.24 229.08 751.37 229.86 751.55 230.21 751.85 231.46 752.01 230.91 752.16 230.14 752.3 230.67 753.14 233.6 753.35 234.09 753.49 234.1 753.64 234.35 753.79 234.57 754.29 235.5 754.43 235.9 754.56 236.15 754.69 236.37 754.75 236.49 754.88 236.37 755 236.35 755.1 236.5 755.36 236.34 755.52 235.88 755.78 235.78 756.25 236.19 756.4 236.17 756.69 235.14 756.83 235.09 757.1 235.27 757.4 235.04 757.63 235.45 758.17 236.28 758.81 236.47 759.64 236.32 759.76 236.31 760.33 236.16 760.62 236.06 761.55 235.69 761.67 235.24 762.07 234.69 762.47 234.47 762.76 234.61 763.11 235.46 763.51 236.06 763.82 236.21 764.15 236.15 764.45 236.06 764.63 235.98 764.89 235.87 765.82 235.77 766.5 235.64 767.41 235.15 768.44 234.94 768.69 234.86 768.95 234.66 772.22 233.31 772.61 233.75 772.91 233.83 773.45 233.51 773.88 233.26 774.19 233.3 774.65 232.51 774.99 232.17 775.09 232.05 775.36 231.7 775.82 231.24 776.18 230.88 776.33 230.67 776.38 230.61 776.48 230.62 776.66 230.81 776.73 230.78 776.77 230.74 776.85 230.79 777.05 231.01 777.15 231.02 777.29 230.88 777.39 230.74 777.56 230.47 777.9 230.02 778.05 229.59 778.11 229.66 778.16 229.78 778.23 229.67 778.38 229 778.47 229.19 778.59 229.47 778.66 229.61 778.78 229.25 779.08 228.79 779.19 228.81 779.26 228.86 779.4 229.33 779.45 229.43 779.52 229.33 779.63 229.01 779.74 228.86 780.04 228.55 780.19 228.41 780.32 228.09 780.66 227.29 780.77 227.22 780.92 227.55 781.04 227.62 781.18 228.21 781.18 228.2 781.42 228.86 781.62 229.24 781.74 229.26 781.97 229.19 782.27 229.29 782.31 229.22 782.37 229.16 782.43 229.31 782.48 229.33 782.58 229.2 782.7 229.26 782.83 228.98 782.93 228.9 783.08 228.92 783.29 228.55 783.76 227.9 784.31 226.55 784.57 226.01 784.84 225.52 785.17 225.29 785.45 224.84 785.6 223.97 785.72 224.06 785.86 224.73 786.1 225.15 786.2 224.85 786.24 224.76 786.3 225.02 786.41 225.57 786.53 225.76 786.75 225.9 787.06 226.69 787.15 226.56 787.57 225.36 787.65 225.14 787.7 225 787.77 224.99 787.88 225.29 788.12 226 788.21 226.28 788.27 226.36 788.45 226.61 788.72 227.18 789.05 227.04 789.38 227.2 789.48 227.23 789.67 227.15 789.81 226.95 789.84 226.96 789.89 227.06 790.02 227.29 790.09 227.32 790.59 226.92 790.59 304.28 677.65 304.28 677.65 238.92" fill="#002b7f"/>

<polygon class="map__elev" id="elevDay7" points="564.71 206.22 565.64 205.07 565.96 204.25 566.53 204.46 567.36 203.62 567.77 203.01 568 202.62 568.44 201.53 568.76 200.7 569.06 200.44 569.29 200.4 569.62 199.75 570.05 198.41 570.3 197.03 570.66 196.23 571.08 195.63 571.33 193.71 571.5 192.38 572.11 193.31 572.84 194.11 573.62 192.62 574.4 191.89 575.05 191.96 575.4 192.01 575.54 191.43 575.6 191.04 576.13 190.47 576.37 190.03 576.48 189.55 576.69 188.57 576.83 188.58 576.93 188.5 577.04 188.06 577.18 187.54 577.45 187.45 577.89 187.66 578 187.7 578.16 187.53 578.45 187.13 578.86 186.56 578.94 186.46 579.02 186.36 579.35 185.84 579.42 185.71 579.5 185.54 579.69 185.28 579.89 185.06 580.01 184.89 580.14 184.6 580.48 183.98 580.97 183.27 581.09 183.02 581.29 182.65 581.55 182.16 581.86 181.67 582.15 181.23 582.49 181.13 582.73 181.17 582.87 181.02 583 180.56 583.2 179.79 583.4 179.1 583.5 179.12 583.65 179.35 583.98 180.12 584.19 180.4 584.41 180.54 584.61 180.38 584.77 180.12 584.92 180 584.9 179.99 585.06 180.06 585.4 179.45 585.68 178.76 585.81 178.45 585.91 178.22 586.05 178.07 586.14 178.01 586.33 177.82 586.43 177.72 586.54 177.55 586.66 177.39 586.93 177.08 587.17 176.88 587.29 176.78 587.41 176.61 587.59 176.33 587.73 176.16 587.89 175.95 588.01 175.78 588.17 175.55 588.42 175.38 588.57 175.21 588.69 175.05 588.81 174.93 588.91 174.98 589.06 175.12 589.23 175.28 589.36 175.35 589.52 175.21 589.7 175.09 589.87 174.99 590.09 174.8 590.38 174.64 590.48 174.64 590.64 174.64 590.82 175.71 590.93 175.71 591.07 174.64 591.36 174.64 591.64 174.66 591.9 174.58 592.1 174.42 592.34 174.25 592.58 174.13 592.76 174.07 593.03 174.64 593.37 174.64 593.58 174.04 593.72 174.13 593.86 174.25 593.94 174.32 594.52 174.46 594.69 174.56 594.86 174.7 595.14 175 595.37 175.14 595.54 175.02 595.77 175.09 596.25 175.52 597.19 177.21 597.41 177.48 597.83 177.66 597.98 177.85 598.57 177.83 599.04 178.02 599.27 178.32 599.37 178.43 599.55 178.73 599.69 178.91 599.87 179.06 600 179.12 600.09 179.19 600.17 179.24 600.33 179.38 600.5 179.57 600.63 179.64 600.82 179.69 601.06 179.74 601.27 179.79 601.46 179.9 601.8 180.07 602.82 180.37 603.01 180.6 603.31 181.02 603.48 181.27 603.6 181.43 603.81 181.81 603.92 182.01 604.15 182.58 604.38 183.4 604.73 183.59 605.09 183.68 605.34 183.38 605.62 183.77 606 185.73 606.22 186.49 606.38 186.76 606.52 186.38 606.67 185.44 606.82 184.77 606.98 184.38 607.32 185.45 607.72 185.65 608.04 186.63 608.33 187.19 608.54 187.57 608.69 187.98 608.81 188.53 608.94 189.4 609.1 190.37 609.21 190.74 609.37 191.04 609.71 191.12 609.83 191.19 610 191.45 610.18 191.78 610.34 191.97 610.74 192.21 610.95 192.36 611.14 192.5 611.34 192.73 611.47 192.99 612.45 194.71 612.58 194.92 612.74 195.02 612.89 195 613.25 195 613.45 195.41 613.6 195.67 613.75 195.83 614.04 195 614.32 196.07 614.58 195 614.95 196.07 615.18 196.06 615.38 196.12 615.63 196.23 615.79 196.33 615.95 196.47 616.05 196.53 616.6 196.83 617.08 197.23 617.23 197.41 617.32 197.49 617.56 197.7 617.73 197.82 617.83 197.93 618.22 198.29 618.45 198.5 618.68 198.72 619.09 199.29 619.27 199.51 619.57 199.8 619.81 199.75 619.94 200.07 620.05 200.45 620.22 200.61 620.44 200.71 620.71 200.89 620.87 200.64 621.05 200.69 621.29 201.12 621.65 201.81 621.9 202.44 622.2 203.04 622.47 203.5 622.68 203.57 622.75 203.57 622.87 203.43 622.96 203.76 623.13 204.25 623.61 204.98 624.03 204.31 624.46 203.97 624.76 204.15 625.27 203.57 625.7 203.57 626 204.26 626.41 204.04 626.87 204.64 627.07 204.64 627.38 204.64 627.47 204.86 627.73 205.54 627.94 206.13 628.19 206.83 628.36 207.01 628.49 206.88 628.87 206.18 629.13 206.01 629.51 205.75 629.75 205.96 629.96 206.2 630.52 205.8 630.92 205.74 631.56 206.4 632.11 206.78 632.62 206.81 633.05 207.19 633.32 207.39 633.65 207.94 634.21 208.31 634.51 208.57 634.75 208.89 634.97 209.32 635.34 209.77 635.65 209.51 635.81 209.47 636.13 209.43 636.44 209.38 636.88 209.63 637.11 209.68 637.34 209.62 637.62 209.29 637.84 209.39 638.02 209.5 638.36 209.75 638.77 210.58 638.99 211.14 639.14 210.86 639.32 210.65 639.46 210.8 639.72 211.75 639.91 212.43 640.18 213.37 640.42 214.18 640.62 214.78 640.77 215.03 640.99 215.69 641.19 215.94 641.39 216.31 641.52 216.68 641.8 217.44 641.98 217.67 642.21 218.02 642.44 218.66 642.63 219.31 642.86 219.61 643.25 219.8 643.47 220.27 643.62 220.55 643.83 220.53 644.06 220.84 644.57 222.01 644.84 222.64 645 222.89 645.22 222.52 645.44 222.28 645.62 222.38 645.79 222.53 645.98 222.93 646.29 223.56 647.73 226.06 648.01 226.47 648.33 226.83 649.41 226.99 649.9 227.54 650.04 227.69 650.97 228.21 651.1 228.21 651.25 228.42 651.4 228.61 652.1 228.81 652.53 229.19 652.72 229.38 652.97 229.26 653.22 228.91 653.41 228.77 653.72 228.85 654.8 229.22 655.17 229.19 655.44 228.96 655.86 228.81 656.3 229.02 656.87 229.78 657.08 230.12 657.61 231.01 657.74 231.42 657.85 231.42 658.02 231.18 658.3 231.22 658.58 231.53 659.03 232.38 659.33 232.99 659.72 233.63 659.92 234.64 660.07 234.64 660.36 233.74 660.7 233.56 660.88 233.83 661.16 234.33 661.73 235.35 661.95 235.68 662.27 236.13 662.55 236.59 664.74 238.24 665.48 237.85 665.95 238.92 666.29 237.85 666.89 238.92 667.66 237.85 669.73 237.85 670.05 237.84 670.26 237.79 672.48 237.22 672.79 237.13 673.23 237.06 673.87 236.88 674.33 236.7 675.24 236.38 675.8 236.11 676.5 235.7 677 235.21 677.34 235.08 677.65 235.47 677.65 304.28 564.71 304.28 564.71 206.22" fill="#002b7f"/>

<polygon class="map__elev" id="elevDay6" points="451.76 252.59 453.59 249.64 454.77 249.65 456.32 248.72 456.78 248.07 458.13 245.89 459.32 245.45 460.07 246.5 461.38 243.31 463.87 239.37 465.34 238.74 466.19 237.63 467.41 235.54 468.2 233.34 468.83 233.46 469.24 233.77 470.23 232.44 471.02 231.42 471.57 231.47 472.18 230.89 472.88 230.23 473.38 229.92 474.35 230.22 475.06 229.64 476.09 228.38 477.35 227.1 478.52 226.79 479.38 227.5 480.61 226.37 481.5 226.25 482.51 228.99 484.27 227.68 485.19 228.8 486.02 230.47 487.53 231.53 487.75 232.01 488.06 231.79 488.75 230.23 489.03 230.28 489.37 230.95 490.35 232.98 490.69 233.96 491.06 233.09 491.4 233.67 491.67 234.03 492.01 233.79 492.31 234.17 492.76 234.97 493.41 235.83 493.98 237.42 494.33 238.23 494.96 239.28 495.34 239.58 495.69 239.4 495.94 239.8 496.44 239.66 497.2 239.81 497.8 240.12 499.4 240.66 501.37 240 501.87 240.02 502.41 239.81 503.65 238.48 504.58 237.69 505.42 236.31 506.38 235.13 507.23 234.77 507.9 234.23 508.22 233.97 509.05 232.83 510.22 231.43 510.54 231.38 510.92 231.48 511.51 231.71 512.04 231.65 512.49 231.21 513.33 229.94 513.7 229.32 513.88 228.85 514.62 228.03 515.24 226.92 516.13 225.83 516.83 225 517.09 225 517.33 225.6 517.48 225.66 517.71 225.1 518.02 226.07 518.25 223.92 518.52 225 518.98 224.97 519.4 224.54 519.88 223.92 520.65 223.03 521 222.49 521.36 222.38 521.73 222.03 521.9 221.78 522.61 221.78 523.15 221.82 523.78 220.71 524.11 220.18 524.52 219.57 524.7 219.36 525.26 218.62 525.52 218.35 525.64 218.17 525.85 217.78 526.05 217.36 526.16 217.1 526.62 216.31 526.82 215.72 526.99 215.6 527.3 215.69 527.52 215.39 527.74 215.01 528.83 213.85 529.23 214.05 529.71 214.24 530.04 214.57 530.45 215.7 531.2 217.32 532.95 215.74 534.1 217.58 534.78 217.85 535.62 215.67 536.06 215.95 536.6 216.42 537.87 216.41 538.27 216.37 538.82 215.05 540.32 216.29 542.47 215.56 543.34 217.25 545.03 214.04 545.48 215.06 546.05 214.97 546.63 213.21 547.87 213.21 548.45 213.15 548.9 214.2 549.13 214.55 549.49 214.34 549.73 214.24 549.95 214.16 550.43 214.06 550.8 214.23 550.93 214.15 551.19 213.77 551.97 212.56 552.28 212.16 552.53 211.64 552.87 210.96 553.49 210.72 553.79 210.48 553.98 210.24 554.11 210.1 554.32 209.99 554.49 209.94 554.71 209.78 554.88 209.61 555.9 209.1 556.38 209.37 556.74 209.59 557.12 208.93 557.6 208.93 558.24 209.13 558.9 208.8 559.4 208.49 560.79 207.85 560.98 207.85 561.14 208.04 561.34 207.87 561.63 207.6 562.17 207.44 563.69 206.81 564.65 205.71 564.71 205.71 564.71 304.28 451.76 304.28 451.76 252.59" fill="#002b7f"/>

<polygon class="map__elev" id="elevDay5" points="338.82 220.91 340.8 220.47 342.9 216.42 344.82 216.42 347.22 218.32 349.21 219.47 350.32 219.64 351.43 220.2 353.2 220.88 355.34 220.71 356.12 221.78 357.36 221.69 358.74 220.63 360.63 219.67 362.24 216.68 363.39 214.55 365.52 209.65 366.45 208.99 368.06 211.35 369 213.55 370.54 214.88 371.29 214.37 372.9 212.81 374.16 210.1 375.93 211.96 376.48 212.61 377.1 211.47 378.43 211.75 379.11 212.01 379.8 210.95 380.66 209.62 381.38 208.75 382.99 205.57 384.5 204.02 385.54 201.93 386.79 200.18 387.77 198.72 388.77 196.06 390.37 191.46 391.13 188.83 391.96 186.59 392.2 186.36 393.08 185.7 394.14 183.58 395.27 181.18 396.16 179.61 397.6 177.64 399.23 178.08 400.11 178.93 401.19 178.85 403.67 176.93 404.26 177.55 404.84 177.91 405.61 177.63 407.19 177.88 408.37 178.41 408.93 178.88 410.18 180.83 411.66 183.1 412.93 183.93 413.72 185.16 414.43 186.07 414.78 186.48 415.77 188 416.34 188.45 417.17 188.98 417.89 190.31 418.98 192.43 420.06 194.53 421.44 197.44 422.65 201.06 424.17 205.93 425.32 209.83 426.24 212.9 427.92 216.75 429.89 222.21 431.45 225.38 432.29 226.91 433.11 228.26 433.97 229.55 434.71 229.75 435.48 230.6 436.17 231.41 436.51 231.95 437.1 232.9 438.51 236.94 439.35 237.58 440.65 241.81 441.69 244.99 442.81 248.52 443.61 250.1 444.03 251.02 444.44 251.54 444.97 252.56 445.44 253.36 446.77 253.92 448.19 253.83 451.76 251.44 451.76 304.28 338.82 304.28 338.82 220.91" fill="#002b7f"/>

<polygon class="map__elev" id="elevDay4" points="338.82 220.66 337.79 218.73 336.76 216.43 335.87 214.76 335.12 213.67 333.86 211.85 332.72 210.32 331.86 208.58 331.12 209.14 328.87 209.57 327.81 208.59 326.69 208.42 325.87 207.6 323.96 208.54 322.75 210.86 320.45 213.93 319.25 215.21 316.3 218.36 314.77 218.98 313.11 219.52 310.83 222.07 310.06 223.02 308.59 224.37 306.68 223.87 305.12 221.6 303.69 220.37 301.96 221.46 301.49 221.98 300.24 222.74 299.82 222.67 298.44 222.3 297.65 222.88 296.04 223.45 295.67 223.3 294.97 222.86 293.5 222.58 292.58 222.16 290.39 221.28 287.56 224.37 285.82 225 284.29 225 283.35 223.92 282.54 224.78 281.77 226.59 281.18 228.56 280.65 230.84 280.26 231.95 279.93 231.51 279.4 232.87 278.66 235.09 277.65 236.14 276.83 237.82 276.18 239.11 275.34 240.91 274.41 242.97 273.81 244.28 272.67 248.48 272.38 249.43 272.06 250.48 271.58 251.43 271.35 252.03 270.03 253.96 269.69 253.92 269.35 253.64 268.69 254.24 268.27 254.9 268.04 255.19 266.86 258.08 266.46 258.71 266.15 259.02 265.81 259.42 265.51 259.46 265.17 259.72 264.85 260.16 264.65 260.32 264.18 260.35 264 260.16 264 304.28 338.82 304.28 338.82 220.66" fill="#002b7f"/>

<polygon class="map__elev" id="elevDay3" points="263.15 259.28 261.56 259.28 259.56 254.37 258.35 252.93 256.36 250.06 253.38 248.35 250.23 246.63 246.96 245.29 245.92 245.35 245.33 245.07 244.83 244.83 243.8 243.78 243.34 243.5 242.83 242.73 242.37 242.01 241.82 241.33 241.31 240.52 240.75 239.75 240.12 239 239.6 238.48 239.02 238.33 238.44 238.17 236.41 238.6 234.4 239.18 232.89 238.63 225.88 239.51 225.88 304.28 264 304.28 264 260.16 263.15 259.28" fill="#002b7f"/>

<polygon class="map__elev" id="elevDay2" points="112.94 297.39 113.69 296.49 114.57 296.03 115.8 293.51 117.36 290.55 117.93 290.81 118.73 290.39 119.33 289.9 119.95 289.15 120.51 288.33 120.75 287.96 121.47 287.05 121.82 286.88 122.46 287.08 123.15 285.53 124.16 284.14 124.82 283.88 125.38 283.69 125.97 282.94 126.55 281.89 126.8 281.32 127.27 280.91 127.72 280.71 128.41 280.77 128.79 280.94 128.93 280.87 129.4 280.5 130.36 280.65 131.18 280.3 131.78 280.03 132.41 279.86 133.73 279.66 134.43 279.2 135.25 278.91 136.05 278.4 137.38 277.44 138.59 277.11 139.38 276.44 140.09 276.34 140.65 276.44 142.32 275.71 142.69 275.35 142.98 275.33 143.24 275.37 143.4 275.13 144.01 274.43 144.19 274.16 144.3 273.99 144.54 273.66 144.83 273.08 145.24 272.27 145.47 271.89 145.69 271.4 147.07 269.68 147.27 269.07 148.52 264.55 148.89 264.23 149.31 263.72 150.19 261.6 150.98 260.2 151.63 258.27 151.98 257.2 152.77 255.1 153.4 254.07 153.87 253.69 154.1 253.73 154.36 254.03 154.55 253.75 154.91 252.81 155.37 251.9 155.72 251.1 156.58 249.69 157.28 248.31 157.99 247.08 158.36 246.6 158.94 245.37 159.89 243.88 160.64 242.25 160.92 242.11 161.7 241.71 162.15 241.13 162.58 240.78 163.23 240 163.63 240 164.18 240.28 164.73 240.86 164.83 240.97 165.73 241.79 165.82 241.91 166.17 242.26 166.54 242.22 166.98 242.64 167.21 242.88 167.22 242.89 167.54 243.17 167.94 244.17 168.03 244.31 168.12 244.28 168.22 244.28 168.32 244.52 168.62 244.94 168.88 245.25 169.16 245.44 169.31 245.46 169.5 245.35 169.67 245.1 169.84 244.76 169.98 244.44 170.23 244.03 170.59 243.45 170.76 243.31 170.93 243.17 171.2 243.03 171.43 242.98 171.44 242.97 171.44 242.97 171.45 242.14 171.45 242.14 171.46 242.98 171.48 242.96 171.5 243.21 171.89 243.24 172.2 243 172.45 242.6 172.67 242.13 172.98 241.29 173.28 241.07 173.46 241.08 173.69 241.05 173.84 241.1 174.18 241.34 174.59 241.38 174.74 241.52 175.11 241.94 175.5 241.89 175.75 242.06 176.05 242.63 176.25 242.99 176.68 243.49 177.16 244.33 177.28 244.58 177.67 245.24 178.51 245.51 179.1 245.75 179.3 245.91 180.15 246.58 180.57 246.95 181 247.29 181.44 247.77 181.89 248.03 182.47 247.74 182.81 247.61 183.6 248.02 184.18 247.67 184.82 247.01 185.53 246.47 186.06 246.71 186.47 246.19 186.85 246.34 187.56 246.07 187.95 245.47 188.76 245.72 189.36 246.26 189.59 246.13 190.21 245.55 190.53 245.43 190.69 245.35 190.85 245.35 190.93 245.71 191.01 245.7 191.3 245.67 191.56 245.62 191.71 245.54 192.06 245.42 192.13 246.42 192.27 246.42 192.52 245.86 192.71 246.07 193.21 246.22 193.57 245.79 193.97 245.43 194.39 244.94 194.75 244.46 195.15 244.38 196.01 244.24 196.2 243.91 196.37 243.52 196.53 243.09 196.96 242.47 197.26 242.09 197.61 241.77 197.75 241.7 197.95 242.14 198.52 242.14 198.96 241.51 199.19 241.4 199.53 240.97 199.77 240.59 200.04 240.18 200.38 240 200.69 240.22 200.97 240.44 201.19 240.65 201.8 241.41 202.27 242.48 202.75 242.29 203.13 241.85 203.38 241.62 203.51 241.78 203.63 241.97 203.74 242.13 203.97 241.99 204.3 241.41 204.61 241.02 204.7 240 204.94 240 205.05 241.07 205.12 241.07 205.22 240.69 205.31 240.66 205.46 240.61 205.55 240.59 205.73 240.75 205.93 240.58 206.22 240.44 206.44 240.3 206.64 240.04 206.93 239.29 207.12 238.83 207.32 238.38 207.55 238.11 207.77 238.7 208 239.76 208.13 239.47 208.27 238.84 208.48 237.85 208.63 237.85 208.83 238.41 209.02 237.56 209.16 236.66 209.39 236.09 209.56 235.82 209.69 235.58 209.82 235.3 209.94 235.31 210.12 235.52 210.41 235.91 210.65 235.26 210.87 234.4 211.11 233.96 211.2 233.92 211.47 233.67 211.78 233.32 212.27 233.11 212.78 232.94 213.02 232.73 213.18 232.66 213.63 232.28 213.91 232.34 214.09 232.42 214.61 232.52 215.35 233.26 216.18 234.13 216.32 234.2 216.74 234.31 216.99 234.19 217.27 234.26 217.46 234.47 217.74 234.91 218 235.35 218.31 235.66 218.57 235.87 218.78 235.71 221.28 235.71 222.21 236.99 222.61 237.11 223.02 237.36 223.64 238.1 223.87 238.33 224.27 238.58 224.63 238.74 224.83 238.83 225.16 238.86 225.34 238.84 225.78 238.96 225.88 238.99 225.88 304.28 112.94 304.28 112.94 297.39" fill="#002b7f"/>

<polygon class="map__elev" id="elevDay1" points="0 304.28 5.28 304.28 10.05 304.28 10.35 303.21 10.74 303.21 11.5 304.28 14.53 304.28 14.76 304.18 15 304.21 15.17 304.28 15.71 304.28 19.01 303.69 19.18 303.78 19.43 303.21 19.8 304.28 22.19 304.28 22.39 304.24 22.57 303.21 29.82 303.21 30.08 304.28 30.33 303.21 31.6 304.28 42.2 304.28 58.89 302.14 59.24 303.21 62.45 302.14 67.76 303.21 71.76 302.14 79.67 302.14 80.79 302.14 81.04 302.15 87.39 300.8 92.79 299.61 94.1 299.34 94.8 299.26 95.3 299.18 97.91 298.92 98.36 298.92 98.69 299.99 100.95 297.85 104.42 298.92 107.18 298.92 108 298.41 108.78 298.54 110 297.85 110.73 297.85 112.68 297.85 112.94 298.09 112.94 304.28 0 304.28 0 304.28" fill="#002b7f"/></svg>