<svg  id="mapSVG" class="map__svg" data-name="Layer 1" xmlns="http://www.w3.org/2000/svg" width="621.69" height="544.3" viewBox="0 0 621.69 544.3">

<defs>
<style>.cls-1,.cls-2,.cls-3,.cls-4{fill:none;stroke-linecap:round;stroke-linejoin:round;}.cls-1,.cls-3,.cls-4{stroke:#002b7f;}.cls-1,.cls-2{stroke-width:2px;}.cls-2{stroke:#ce1126;}.cls-3{stroke-width:2.2px;}.cls-4{stroke-width:3px;}</style></defs>

<path id="day17" class="cls-1" d="M113.1,562.2a.62.62,0,0,1-.4.1c0-.94-.9-1.53-1.7-1.8-.3-.36-.51-1.26-1.1-1.1a1.84,1.84,0,0,0-1.8-.4c-2.07-.79-4.23-1.86-6.5-1.3-2.06-2.45-5.66-2.1-8.2-4.1-4.05-2.58-2.7-2.25-7.6-.8-.62-1.47-3.16-3.1-2.9-4.9-2.87-2-6.46-4.11-9.9-3.8-.68-.37-4.11-.59-2.5.6,0,.17-.31.42-.5.4-.26.37-.31,1.09-.6,1.3.18.57-.6.51-.6,1a.23.23,0,0,1-.3-.2c-2.54,5.62-11,2-15.8,4.5,1.34,3.52.31,5.37-2.8,7.1,0,1.14.07,3-1.6,2.8-5.77-1-1.73,3.53-4.4,5.5-8.29-1.16.82,10.54-2.4,15.2" transform="translate(-39.31 -39)"/>

<path id="day16" class="cls-2" d="M178.5,538.5a4.43,4.43,0,0,0,.2,1.2c-.4-.3-.39-.42-.9-.1-.33-.29-.88-.63-.9-1.1-1.93-.46-3.43,2.92-3-1-.64-.31-.49.38-.8.7-.52-.28-1.33.35-1.9,0,1.38,1.93-1.12,1.74-1,.3-1.09.37-1.74,2.53-1.9,3.5-.75.06-.85,1.25-.8,1.9a.39.39,0,0,0-.6.1c-.35.06-.56-.59-.9-.5-.14-.19,0-.56-.2-.7a.23.23,0,0,0-.3.2c-.59.07-.49-1.22-1.3-1.1-.35.57-1.72-.21-1.1.7-.3.35-1.06-.58-1.1.2-.2.05-.3-.15-.5-.1-.36.91-1.37,2.2-2.6,1.8.25-1.23-1.15-1.41-2-1.8-1.76.68-4.37.89-4.8,3a.44.44,0,0,0-.8-.2c.12.41-.3.42-.6.4v.4a2.84,2.84,0,0,0-1.2.3,2.81,2.81,0,0,0-1.8-.4c-1.4-.79-3.47-.15-4.9-1.2-.44-.61-1.47-1-2.1-1.6-.9-.62-2.23-.41-2.9-1.1-1.2.58-1.66-1-2.7-1.1-.63.08-1.31,1-1.9.5a.37.37,0,0,0,.2.7c-2.8,1.48-4.71,4.22-6.4,6.8-.72,1.55-.71,3.84-2.7,4.4-2,1.28-3.29,3.41-5.7,4.3-1.56,1.13-6.91,2-5.9,4.4l.4-.2" transform="translate(-39.31 -39)"/>

<path id="day15" class="cls-3" d="M213.1,537.5c-.15.3-.4,1.08-.8.7a.29.29,0,0,1-.4,0,1.11,1.11,0,0,1-.4.6h0v.2c-.24-.07-.38.25-.6.3l-.1.1c-.32-.83-1-.09-1.4.2,0,.12-.44.17-.5.2.09.23-.26.39-.3.53a4.33,4.33,0,0,0,.6,1.77c.76.53,1.86,1.21,2.7,1a4.31,4.31,0,0,0-.3,1.2c-.43-.17-1.44-.23-1.5-.7-.3,0-.57.16-.9.1s-.57.07-.9,0a.2.2,0,0,0-.1-.2c.05-.1.15-.23,0-.3a10.64,10.64,0,0,1-1.4-1.5c.09-.4-.35-.29-.6-.3,0,.16-.12.37-.3.4a.45.45,0,0,1-.3.3c.4,1-2.21.56-2.8.3-.09-.79-.59-.16-.9,0,0-.1-.06-.35-.2-.3s-.34.08-.5.1c0-.46-.86-.22-1.1-.1,0,.28-.19.15-.3,0-.14-.73-1.62.72-1.6-.2.17.06.13-.26.3-.2v-.1c-.08,0-.16-.05-.2-.1-.09.16-.31,0-.4.2-.23-.36-.74-.4-1-.7-.29-.47-.68.25-.7-.5-.07-.19-.33-.55-.1-.7.06-.22-.23-.37-.4-.4s-.12-.12-.2-.1-.12-.13-.2-.1a1,1,0,0,1-.8.2c-.12.07-.08.23-.2.3-.09-.11-.22-.45-.4-.4a.41.41,0,0,0-.4-.2l-.2-.2c-.05,0-.12-.12-.1-.2a.17.17,0,0,1-.2-.2c-.05,0-.12-.12-.1-.2h-.1v-.1c-.26.08-.46.38-.7,0,0-.14,0-.34-.2-.3,0,.08-.05.16-.1.2s-.17-.23-.3-.2c-.47.41-1.47.28-1.7,1-.47,0-.9.43-1,.4-.12.18-.41.07-.6.1,0-.47-1,.18-1.3-.3-.38-.08-.6.39-1,.3.09-.14.11-.36.2-.5H186c.11-.06.11-.19.1-.3-.69-.19-.64.59-1.1.9a9.26,9.26,0,0,1-1.5-.3c-.2.32-.54.19-.8.1-.66.49-1.88-.24-2.5.6-.25,0-.2-.56-.5-.5v-.1c-.12.35-.57.43-.9.5-.1-.34-.51-1.22-.1-1.4" transform="translate(-39.31 -39)"/>

<path id="day14" class="cls-2" d="M208.3,506.5c1.56.87,4.25,1,3.7,3.3a1.24,1.24,0,0,1,.7.7c-.38,3.18-1.5,7.77,2.9,7.9-.77,2.63-2.54,5.54-.3,8-1.41,1.78-2.53,3.63-1.7,6-3.58,2.53.32,2.44-.5,5.1" transform="translate(-39.31 -39)"/>

<path id="day13" class="cls-1" d="M198.6,478c.81.84,0,3.27,1.7,3,.35,1.3-.93,1.12-1.7,1.5-.58.8.8,1.12-.3,1.7,1.12.81-.2,1.73-.2,2.7,2.44-.08.79.42,2.2,1.7.16.55-.59.16-.5.6,3.31,1.4.25,1.45,2.1,2.3a.88.88,0,0,0-.5,1l-.6.9.5.1a.44.44,0,0,0,.4.4c.47-.24.89.31,1.4.2l.2.3c-.44.65.09,2,.3,2.7,1.5-.29,3.61.38,4,1.9.76,0,2.43.1,2.3,1.1-2.71,1.77,1.92,3.9-2,5.5a.8.8,0,0,0,.1.8" transform="translate(-39.31 -39)"/>

<path id="day12" class="cls-2" d="M183.3,420.4c-.16.45.17,2-.6,1.8v2.1c-1.2,1.6-.53,3.83-.7,5.6-.47.63-.93,1.58-1.8,1.8.07.58-.27,1.34.2,1.8-.35.62.59,1,.4,1.6.95.72,1.8,1.62.4,2.4.54.93.69,1.17-.4,1.8.23.73-.23,1.29-.2,2h0c.23,0,.27.3.1.4.22.46.35,1.34.8,1.6,0,.11,0,.24-.1.3s-.12.12-.2.1c0,.27.1.33,0,.6v.1c.64,0,.35,1.16.8,1.4-.14.12-.33.17-.4.31-.11.47.51.57.5,1-.31.95-.09,2.19-.4,3.12l.1.1c-.19.32-.49,0-.8.1.41.15.88.58.4,1-.07.25.62.75.1.8-.15.49.75,1-.3,1.3.35.31-.21.47-.1.8H181c0,.31-.32.72-.6.4-.35,0-.32.72-.7.7,0,.14.15.24.1.4a.82.82,0,0,0-.5.3c-.27-.05-.74.21-.7.5.85.17-.47,1.31.3,1.3.18.28-.28.71-.4,1,0,.47.45,1.51-.4,1.4a1.8,1.8,0,0,0,.9.6c.22,0,.76-.39.7.1-.23,0-.2.25-.2.4.23,0,.27.34.4.5s.37-.41.4,0c.08,0,.16.05.2.1v-.1h.1v-.4c-.61-.15.22-.43.2-.7h.1a1.71,1.71,0,0,0,1.5.9v.1h.3c-.06-.36.1-.72.4-.3,1.24.84-.85,2.34.8,3.2.32-.1,1-.29,1-.7a2,2,0,0,0,2.3-.2c.93.52,2,1.28,2.2,2.4.91-.44,1.53.77,2.4.2-.11,1.29,1.14.11,1.8,1.2-.23.07-1.15.59-.4.6a3.7,3.7,0,0,1-.8.5c.72,0,1.16-.26,1.8.1a.55.55,0,0,1,1,0c.63-.09,1.14,0,1.6-.5a.47.47,0,0,0,.6-.5c.45.63,1.36.12,1.7.8l-.3-.3h0c.14-.07.42.51.4.6.37.23,0,.46-.3.4v.8h0c0,.12-.14.18-.1.3-.37,0-.1.23-.1.4h-.1v.3h-.1c-.81,1.36.12,3.8-1,4.66.39.53,1,.89,1.37,1.44a.67.67,0,0,0-.3.7" transform="translate(-39.31 -39)"/>

<path id="day11" class="cls-4" d="M242.6,398.7h-.1v.2h.2v.1c-.08,0-.16.05-.2.1a.33.33,0,0,1-.5,0,.85.85,0,0,0-.7-.2.21.21,0,0,0-.1.2c-.08.07-.12.12-.1.2-.5-.31-.65-.13-1-.1,0-.07-.07-.24-.1-.3h0c0-.12.14-.18.1-.3a.2.2,0,0,1-.1-.2c-.05,0-.12-.12-.1-.2h-.3v.1h.1c.31.55-.27.92-.6,1.3h0c0,.23.2.38,0,.6a1.9,1.9,0,0,0-1.6.8c-1.48-1.39-.52-5.17-3.3-5-.9-.21-.8-1.26-1.7-1.3h0v-.1h-.1v-.1h-.1a1.67,1.67,0,0,0-.6,1.1h-.3c-.07.12-.23.08-.3.2h0c.06.33-.12.59-.1.9.1.05.11.2.1.3h0c.6.88,0,2.4,0,3.5h0c-.16.49-.71.57-.4,1.1-.8,1.11-.54,2.26-.3,3.6.19,1.55-1.24,2.41-1.56,3.87a3.37,3.37,0,0,1-.94.63c-.25,0-.2.26-.2.4h0c.29.15.8.22.8.7.28,1-.21,2.38.4,3.2-1.26,1,2.82,1.87.4,2.2-.08.12-.43.28-.2.4l.1-.1v.1h.1v.1c-.11.84-1.06,1.73-1.7,1.2a1.07,1.07,0,0,1-1.13-.1c-.75.28,1.29.77.53,1.2-1.1.59-1.09,1.78-1.42,2.78s-1.26,1.65-1.68,2.52h0c1,1.52-.77.77-.6,2a41.55,41.55,0,0,0-4.3-.6v.6l-.8-.1c-.12,2.76-3.79,2-5.5,1.1-.53-1-1.34-1-2.3-1.1a6.77,6.77,0,0,0-1.9-1.3c-1.35-.12-2.12-1-3-2-.38,0-1-.47-1.3-.2-.32,0-.24-.59-.4-.8-.47,0-.43-.66-.6-1-.56-.37-1.22-.32-1.6-.6-.06-.61-.57-.9-.7-1.5-.36-.18-.87-.26-1-.7.33-.05.39-.58,0-.3a.48.48,0,0,0-.6.1c-.93-.9-1.9-.13-2.7.5-.74-.28-1.16.29-2,.4-1.25,1.67-3.88,1.67-5.4,3.5-2.13-.87-4-2.05-6.5-2" transform="translate(-39.31 -39)"/>

<path id="day10" class="cls-2" d="M263.4,363.8c-.46-.11-.61.35-.9.6-.43,0-.89-.42-1.2.1.92,2-.87.94.5,2.7-1.89,2.58,1.87,1.77,2.4,3-.93.88-2.33,1.83-2.1,3.3.51.55-.39,1.81.3,2l.2.4a5.89,5.89,0,0,0-.8,3.3,3.09,3.09,0,0,0-.6,3.7,3.18,3.18,0,0,0-.5,2.9c-1.2,1.58-1.58,3.34-2.4,5.2.19,2.65-3.49,1.87-4.6,3.6-1,2-3.4,2.58-5,3.4-.3-.3-.71.35-1.1.2a.16.16,0,0,0,0,.3c-.11.2-.39,0-.5.2-.59-.16-.93.47-1.5.4-.13.21-.28.46-.6.4v-.1h-.2v.1c-.3.06-.51-.19-.8-.2-.05,0-.12-.12-.1-.2-.23-.1-.53-.05-.7-.3-.14,0-.34,0-.3-.2h-.3v.1" transform="translate(-39.31 -39)"/><path id="day09" class="cls-1" d="M290.5,341.5c-1.66.25-3.78-.88-4-2.7-2.92-1.17-5.61-3.43-8.3-4.9-.87.51-.18,1.89-1.1,2.5-.65-.3-1.05.73-1.4,1.1-.93-.22-.5.76-1.1,1.1h0v.7a26.64,26.64,0,0,0-6.4,6.8c.58.56-.32.36-.6.6.23.28.82,0,.9.2.28.39-.12.29-.4.3,0,.46-.59.73-.9,1s-.34.8-.8.7v.1h-.1c.49.73-.76.64-.9,1h0v.1c.08,0,.16-.05.2-.1.27.06.44.41.2.6a.17.17,0,0,0-.2.2.17.17,0,0,1,.2.2c.05,0,.12.12.1.2v-.1c.11,0,.24,0,.3-.1v.1h0a.17.17,0,0,0,.2.2c0-.18.16-.22.3-.2v.1h0c0,.05-.12.12-.2.1s.05.16.1.2h.4c.28.46-.21.88-.7.9-.35-.49-.81.15-.9.5-.41,0-.8.09-.9-.4-.71-.12-.87.55-1.5.2.12.07.08.23.2.3s.16.05.2.1h.1v.1h0v.1h0v.1h0c.08,0,.16,0,.2-.1.34,0,.51.23.1.3v.1h.4v.2h0v.6h0v.2h0c0,.16.32.38.4.5h0c0,.11,0,.24-.1.3h0v.1h0v.2h.1v.2h0v.1h0c0,.08,0,.16.1.2s-.12.12-.1.2c-.38-.07-.55.11-.7.4.12.35,0,.28,0,.6-.59.6-1.58,1.36-.4,1.8,0,.12.14.18.1.3.13,0,.27-.13.4-.1v.1c.08,0,.16,0,.2.1.1-.17.44-.13.4.1-.21.5-.85.81-.7,1.4.42.49.05,1.16.2,1.7h0c0,.23,0,.47-.3.4.08.46.28.92-.4.5" transform="translate(-39.31 -39)"/><path id="day08" class="cls-2" d="M365,323.3c1.63,3.15-6,1.37-7.6,1.4-2.37.12-4.76-.31-7.1-.2-.16-.07-.47-.43-.6-.2-.27-.11-.92-.4-1.2-.2a2.92,2.92,0,0,1-2.5-2.3c-1.08.49-2.5.22-3.5.9-.33,0-.77.1-1-.2-1.87.64-3.65.08-5.53-.16a17.82,17.82,0,0,1-3.57,1.26c.08,0,.34.16.4.2-.61.34-.6.86-.8,1.5-.61.51-1.11.13-1.7-.1-.22,0-.53.25-.7,0h0v.1h0c0,.24-.16.47,0,.7h-.1c-.13-.25-.57-.66-.9-.6.17,1.13-1.84,1.61-2.8,1.7-.05.19-.37.7-.6.7v1a3.87,3.87,0,0,1-1.2-.7c-.08,0-.16,0-.2.1.7.5-.14.61-.3,1,.2,0,.38.35.19.4s-.54-.06-.49.2c-.44.21-.51-.67-.8-.4.06.28-.44.23-.4,0s-.23-.08-.3-.2c-.31.33-.66-.24-1-.2h0c-.07.21.22.41.4.4-.1.59-.68.24-1.1.3-.15.59.2.88-.3,1.1h0c.07.69-.34.78-.9.6-.2.1.06.32.2.3.86.38-.09,1.14,0,1.8-.2-.28-.05-.59-.2-.9a3.92,3.92,0,0,0-1.1.1c-.07,0-.48-.8-.6-.7s-.37.14-.5.3a4,4,0,0,0-1.4-.3c-.05.31-.33.25-.5.4-.42,0-.71.26-1.1.1-.21.71.73.28.7.9-.13.08-.09.35-.3.3-.32-.53-.88-.05-1.3-.4-.14,0-.62.23-.6,0,0-.05-.13-.12-.2-.1-.35.43.79.44,1,.6-.22.34-1.07-.28-1.4.1-.1-.11-.27-.12-.3-.3-.21,0-.35-.09-.3-.3h0c.07-.12.23-.08.3-.2s.05-.16.1-.2a.17.17,0,0,0-.2-.2c-.06-.27.1-.46.1-.7-.19.19-.47.71-.7,1-.38,0-1-.05-.9.5.11.06.11.19.1.3.36.13.14.29-.1.1a.45.45,0,0,0-.3-.3c-.31-.32.08-.9,0-1.22s-.87-.15-.78.22c-.25.14-.14.37-.3.5a.75.75,0,0,1-.2.3c.14.62.14,1.08-.5,1.4-.92.28-1.92.91-2.8,1.2a2.82,2.82,0,0,0-.2.6v.1c0,1.83-1.37.78-2.2,1.2-.18,1.07-1.22,1.16-2,1.34-1,.36-1.93.85-2.08,1.81-1.35,1.47-3.4.61-5,.36a5.26,5.26,0,0,1-2.7.09" transform="translate(-39.31 -39)"/><path id="day07" class="cls-1" d="M441.4,275.7c-1.74-1.24-3.82.35-5.6-.9-.87-.51-.87-1.92-2-2.1-.29-.79-.9.13-1.3.3-1-1.78-3.71-1.91-4.5-3.8a1,1,0,0,1-1.1-1c-5.31-2.88-5.13,2.41-7.5,5.6-1.1,4.38-2.84,2.76-5.6,5.7.25,8.17-1.44,2.66-2.1,7.5l-2.7,6.1a17.6,17.6,0,0,1-4.3,2.5c-.08,0-1.71-1.33-1.8-1.4-1.13-.65-8.36-1.34-8.8-2.9-.36.22-1-.11-1.4-.2-.05-.13-.1-.45-.3-.4-.86.13-2.82-.4-2.7,1.2-.2.27-.39,0-.5-.2s-.16.13-.2.2a.58.58,0,0,0-.4.7c-.7-.17-3.28.66-2.3,1.7,0,.29-.48.08-.5.4.39.56.22,1.31.3,1.9-.28.38-.85,1-.7,1.5-.1,0-.56-.19-.6-.3s-.23.13-.3.1c.17-.35,0-.5-.2-.8-.57.55-1.32.35-2,.2-.77.29-1.64,1-2.4,1.2-2.73,1.2-2.29,1.66-1.7,4.1-4.6.72-5.88,7.12-10,8a.54.54,0,0,0-.2.4h.4a1.26,1.26,0,0,1-.1,1.1h.1c0,.17-.23.35,0,.5-.22.13-.11.57-.3.7a.2.2,0,0,1,.1.2c-1.2.34-1.67,1.3-2.1,2.4h0v.2c-.06,1.39-1.83,2.06-2.1,3.4h-.1c.36.39.31,1.29-.4,1.2.12.17.36.25.5.4a2.73,2.73,0,0,1,.6,1.6h0c.32-.11.41.41.5.6" transform="translate(-39.31 -39)"/><path id="day06" class="cls-2" d="M463.8,252.5a3.15,3.15,0,0,0-.4.8.76.76,0,0,1,.8,1.2c-1.16,0-.76.51-.3,1.1a7.58,7.58,0,0,1-2.5-1.4c0,.28.52.76.3,1-.28-.44-.8-.55-.8.1.55,0,.12.86.7,1.1a1.93,1.93,0,0,1,0,1.3c.49.39-.19,1.35-.6,1.7h0c0,.11,0,.24.1.3a2.21,2.21,0,0,0,0,1.6,1.82,1.82,0,0,0-1.4.2c-1.16-.11-.58.62-1.3,1.1-1.07-.41-2,.34-2.95.26a1.61,1.61,0,0,0-1.35-.36c-.75,1.37-1.42-.56-2.36-.45-.31-.5-.31-1.14-.74-1.55.28-.23,0-.31-.11-.47-.09-.39-.52-.53-.79-.73,0,.05-.12.12-.2.1,0,.32-.45-.12-.6-.1-.27.22.27.59.4.8a1.3,1.3,0,0,1-1.1.6,2,2,0,0,1-1.2,1.3c-.24-.12-.44-1-.7-.7s-1.34.34-1.4-.3c-.41-.08-.1.4-.1.6-.41.29-1,.48-.8,1.1-.71-.19,0-.72-.1-1.2-.2-.85-1.66-.61-1.4.1-.16.09,0,.31-.2.4-.2-.21-.59-.24-.6-.6-.47.1-.26-.54-.3-.8-.76-.36-.43-1.3-.9-1.7-.85.43-1,1.26-1.8,1.8.4.5.09.93.4,1.4-.81,0-.59.81-.9,1.2.55.55-.28.27-.5.5.27,0,.31.57.3.8l-.2-.2c-.37.3-.2,1.3-.5,1.7.25.62.68,1.66-.2,1.9-.37.27.69,1.3-.1,1.3-.1.05-.11.2-.1.3.79.81.62,1.63.4,2.6.41-.07,1.35-.26,1.4.3h-.6c0,.36.62.51.7.9,0,0-.09,1.71-.1,1.8,1.85-.38,3.5,1.73,5.5,1.3.64-.48,2.38-1.9,2.9-1.1" transform="translate(-39.31 -39)"/><path id="day05" class="cls-1" d="M504.6,250.7c-.55.69-.64,2-1.4,2.5-.13-.56.3-1.28.1-1.8-1.26.87-3.59-1.67-4,.3a4,4,0,0,0-1.2,2.3c-.21.16-.6,0-.8-.1a32.85,32.85,0,0,1-3.9,1.2c-.56-.92-1.33.74-2.2.4l-.7.7c1,.22.44.56,0,1.1.18.24-.15.58-.3.8a1.38,1.38,0,0,1-.1-.6,1.45,1.45,0,0,1-.7-.5.62.62,0,0,0-.1.4,1,1,0,0,1-.8-.3c.56-.77.27-2.13,1-2.8.11-1-.81-1-1.5-1.3.21-.89-.35-1.21-1.1-1.5-.21-.35-.06-1.05-.6-1.1l-.1.5c-.34-.27-.3.18-.3.4a1.33,1.33,0,0,0,0,1.5c-.37,1.16-1.11-.07-1.3-.7-.56-.13-1.86-.54-2,.3-.12.17-.35.21-.4.4-.2,0-.21-.18-.2-.3a5.18,5.18,0,0,1-2.1-.6c.09,1.14-1,1-1.3,1.9-.5.36-1.29-.32-1.7.1-1.07-.34-2.27-1.46-3.3-.9-.39-.77-1.05-.29-1.7-.1-.29-.47-.65.07-.9.3,0,0-.21-.25-.3-.2-.23.25-.79-.06-1,.3l-.5-.5-.1.1c.49,1-1.58-.28-1.9.3-.48.12-1-.3-1.3-.6a10.78,10.78,0,0,1-2.2,0v-.1" transform="translate(-39.31 -39)"/><path id="day04" class="cls-2" d="M534.6,213.8c.51,4.73,1.2,10.16-2.9,13.2-.64,1.09.34,3.24-1.6,3-.85.29-.72,1.3-.9,2-2,1.22-4.61,3-7.2,2a5.43,5.43,0,0,1-1,.7c-.15,1.62-2.38.61-2.8,2-2.4,2.91,2.63,5-3.7,7.5a5.52,5.52,0,0,1-3.9.2c-1.4-.24-2.7.92-4,1-.53.3-.89-.23-1.3-.3,0,.31-.6.58-.8.7.9.82-.69,1.7-1.4,1.9a1.71,1.71,0,0,1-.2,2.1l1.7.9" transform="translate(-39.31 -39)"/><path id="day03" class="cls-1" d="M548.7,165.8c1.38,2.29,5.12,5.12,3.3,7.6.15,1.09,1.11,1.43,1.1,2.6-4.67-.32-6.09-1.93-10,.9a1.86,1.86,0,0,1,1.4,2.7c-.73.47-.72,1.6-.7,2.4a5.06,5.06,0,0,0-1,1.4c-.64,2.5.24,6-.4,8.8.5.77.09,1.79,0,2.6s.27,1.93-.2,2.7c.29,2.9-1.34,5.56-2.5,8.2-2.41.56-3.18,2.58-4.8,4.1a18.84,18.84,0,0,1-.4,3.9" transform="translate(-39.31 -39)"/><path id="day02" class="cls-2" d="M577.3,94.8c-.12.52.18.79.6,1a4.36,4.36,0,0,1,0,4.6c-1.17.26-.82,1.81-2,2,0,.3,0,.74-.3.9,0,2-.08,3.35-2.2,4.1-.65,1.08-2.15.93-3.1,1.6a3.44,3.44,0,0,1-1.8,1,4.15,4.15,0,0,1-2.1,2.5c.35.54,0,.7-.5.9.42.35-.49.77-.2,1.1-.58.75-.75,1.31-.1,2.1.66.27.19.59-.2.8-.17.91-.52,2.8-1.8,2.4.09,1,.82,1.7.7,2.8a25.26,25.26,0,0,0-2.3,5.9c-.33.48-.26,1.17-.7,1.62a9,9,0,0,1-.5,2.18c.2.09,0,.35,0,.5h0v0c-.09,1.11-1.18,1.23-1.7,2-.9.6-1.14,1.56-2.5,1.6,0,.7-.59,1-1.2.9-.35.47-.9.77-1.2,1.3-1,0-1.23,1.18-2.2,1.2-.28.27-.2.84-.3,1.2-.27.32-.9.5-1.2.8-.1.32-.86,1-.31,1-.1.31-.35.55,0,.77-1.84.92,1.75,2.76.1,3.3-1.13,1.15.36,2.62,1.1,3.6a5,5,0,0,0-1.3,1.3c-.13,0-.27.13-.4.1h0c0,.48-.2.74-.3,1.2-.53-.15-.62.43-.4.8-.29,0-.4.32-.6.5-.67-.08-.43.4-.4.8-.75.18-.85.87-1,1.6-1.37.19-.8.95-1,2-.57,2.58,1.93,5,2.7,7.3" transform="translate(-39.31 -39)"/><path id="day01" class="cls-1" d="M660,40c-6.4,1.22-6.13-.77-6.9,6.1-4.91,3.41,1.85,5.07-7.3,6-.54.67-.52,3.08-1,3.8-.23.14-7,4.61-7.3,4.7.25.86-5.75,11.6-6.3,12.6-.68,7-2.25,22.83-2.9,29.6-11.22-2.58-24.59-2.2-35.1-6.7-5.15-.54-11.18.92-15.9-1.5v.2" transform="translate(-39.31 -39)"/></svg>