<svg id="mapSingleSVG" data-name="Layer 1" xmlns="http://www.w3.org/2000/svg" width="1200" height="1080" viewBox="0 0 1200 1080">

<pash id="route" d="M1097.54,51.85c-10.53,2-10-1.32-11.35,10-8.07,5.6,3.12,8.4-12,9.88-.83,1.15-.83,5.11-1.65,6.26-.33.16-11.69,7.57-12,7.74.5,1.48-9.55,19.09-10.37,20.74-1.15,11.52-3.62,37.53-4.77,48.73-18.44-4.28-40.5-3.62-57.79-11-8.39-.82-18.44,1.48-26.17-2.47v.33h0a1.45,1.45,0,0,0,1,1.65c1.32,2.79,1.49,4.77,0,7.57-2,.49-1.31,3-3.29,3.29,0,.49,0,1.15-.49,1.48,0,3.3-.17,5.6-3.62,6.75-1,1.81-3.63,1.48-5.11,2.64a6.6,6.6,0,0,1-3,1.64c-.33,2-1.81,3.13-3.46,4.12.66.82,0,1.15-.82,1.48.66.66-.83,1.32-.33,1.81-1,1.32-1.15,2.14-.17,3.46,1.16.49.33,1-.33,1.32-.32,1.48-.82,4.61-3,3.95.17,1.64,1.32,2.8,1.15,4.61-1.48,3.29-3.12,6.09-3.78,9.71-.5.82-.5,2-1.16,2.63a14,14,0,0,1-.82,3.63c.33.16,0,.65,0,.82h0v0c-.16,1.81-2,2-2.8,3.29-1.48,1-1.81,2.64-4.11,2.64a1.55,1.55,0,0,1-2,1.48c-.49.82-1.48,1.31-2,2.14-1.65,0-2,2-3.63,2-.49.5-.32,1.32-.49,2-.49.49-1.48.82-2,1.32-.16.49-1.48,1.64-.49,1.64-.16.5-.66.82,0,1.32-3,1.48,3,4.61.17,5.43-1.82,1.81.65,4.28,1.81,5.93a6.53,6.53,0,0,0-2.14,2.14c-.17,0-.5.16-.66.16h0a8.34,8.34,0,0,1-.5,2c-.82-.17-1,.66-.65,1.32-.5,0-.66.49-1,.82-1.15-.17-.66.66-.66,1.32-1.32.32-1.32,1.48-1.65,2.63-2.3.33-1.31,1.65-1.64,3.29-1,4.28,3.12,8,4.44,11.77,2.31,3.79,8.4,8.15,5.43,12.27.33,1.81,1.82,2.3,1.82,4.28-7.74-.5-10-3.13-16.47,1.48a3,3,0,0,1,2.31,4.45c-1.16.82-1.16,2.63-1.16,3.95a7.47,7.47,0,0,0-1.64,2.3c-1,4.12.33,9.88-.66,14.49.82,1.32.16,3,0,4.28s.49,3.13-.33,4.44c.49,4.78-2.14,9.22-4.12,13.5-4,1-5.26,4.28-7.9,6.75-.16,2.14.08,4.37-.57,6.51.82,7.73,2.05,16.87-4.7,21.81-1,1.81.5,5.27-2.63,4.94-1.48.49-1.15,2.14-1.48,3.29-3.29,2-7.57,4.94-11.85,3.29a14.72,14.72,0,0,1-1.65,1.16c-.17,2.63-4,1-4.61,3.29-4,4.77,4.28,8.23-6.09,12.35-2.14,1.15-4.28.82-6.42.33-2.31-.33-4.45,1.48-6.59,1.64-.82.5-1.48-.33-2.14-.49,0,.49-1,1-1.31,1.15,1.48,1.32-1.16,2.8-2.31,3.13.49,1.15.82,2.63-.33,3.46l2.8,1.48h0c-.82,1.15-1,3.29-2.31,4.11-.16-1,.5-2.14.17-3-2.14,1.48-5.93-2.8-6.59.49a6.56,6.56,0,0,0-2,3.79c-.33.33-1,0-1.32-.16a49.19,49.19,0,0,1-6.42,2c-1-1.48-2.14,1.15-3.62.66l-1.15,1.15c1.64.33.66,1,0,1.81.33.33-.33,1-.5,1.32a1.84,1.84,0,0,1-.16-1c-.5,0-.82-.49-1.15-.82a1,1,0,0,0-.17.66,1.39,1.39,0,0,1-1.32-.5c1-1.31.5-3.45,1.65-4.61.17-1.64-1.32-1.64-2.47-2.14.33-1.48-.66-2-1.81-2.47-.33-.49-.16-1.81-1-1.81l-.16.83c-.5-.5-.5.33-.5.65a2.25,2.25,0,0,0,0,2.47c-.65,2-1.81-.16-2.14-1.15-1-.16-3.12-.82-3.29.5-.16.32-.66.32-.66.65-.33,0-.33-.33-.33-.49a8.24,8.24,0,0,1-3.45-1c.16,1.81-1.65,1.65-2.14,3.13-.83.66-2.14-.49-2.8.17-1.81-.5-3.79-2.47-5.44-1.49-.65-1.31-1.81-.49-2.79-.16-.5-.82-1.16.16-1.49.49,0-.16-.33-.33-.49-.33-.33.33-1.32-.16-1.65.5l-.82-.83-.16.17c.82,1.65-2.64-.5-3.13.49a2.62,2.62,0,0,1-2.14-1c-1,.33-2.39-.08-3.54-.08a4.08,4.08,0,0,0-.58,1.24c1.15-.17,2.14,1,1.32,2-2,0-1.32.83-.49,1.81a12.61,12.61,0,0,1-4.12-2.3c0,.49.82,1.32.49,1.65-.49-.66-1.31-1-1.31.16,1,0,.16,1.48,1.15,1.81a3.21,3.21,0,0,1,0,2.14c.82.66-.33,2.14-1,2.8h0a.59.59,0,0,0,.17.49c-.5,1.16-.17,1.49,0,2.64a3.76,3.76,0,0,0-2.31.33c-2-.17-1,1-2.14,1.81-1.81-.66-3.29.49-4.77.49a3,3,0,0,0-2.31-.66c-1.15,2.31-2.3-1-4-.66-.49-.82-.49-1.81-1.15-2.63.49-.33,0-.49-.17-.82-.16-.66-.82-.83-1.31-1.15,0,.16-.17.16-.33.16,0,.49-.83-.16-1-.16-.49.32.49,1,.66,1.31a2.07,2.07,0,0,1-1.81,1,3.24,3.24,0,0,1-2,2.14c-.33-.16-.66-1.65-1.15-1.15-.66.33-2.14.49-2.31-.5-.65-.16-.16.66-.16,1-.66.5-1.65.82-1.32,1.81-1.15-.33,0-1.15-.16-2-.33-1.48-2.8-1-2.31.16-.33.17,0,.5-.33.66-.33-.33-1-.33-1-1-.83.17-.5-.82-.5-1.31-1.31-.66-.66-2.14-1.48-2.8-1.48.66-1.65,2.14-3,3,.66.82.16,1.48.66,2.3-1.32,0-1,1.32-1.49,2,.83,1-.49.49-.82.82.49,0,.49,1,.49,1.32l-.32-.33c-.66.5-.33,2.14-.83,2.8.5,1,1.15,2.8-.33,3.13-.66.49,1.16,2.14-.16,2.14a.59.59,0,0,0-.17.49c1.32,1.32,1,2.64.66,4.28.66-.16,2.31-.49,2.31.5h-1c0,.65,1,.82,1.15,1.48,0,0-.16,2.8-.16,3,3-.66,5.76,2.8,9,2.14,1-.82,4-3.13,4.78-1.81,0,0-.77-1.39-4.78,1.81-1.06.85-5.27-1.32-5.27-1.32-2.8-2-6.25.66-9.22-1.48-1.48-.82-1.48-3.13-3.29-3.45-.49-1.32-1.48.16-2.14.49-1.64-3-6.09-3.13-7.41-6.26a1.6,1.6,0,0,1-1.81-1.64c-8.72-4.78-8.39,3.95-12.34,9.22-1.82,7.24-4.61,4.61-9.22,9.38.33,13.5-2.31,4.45-3.46,12.35l-4.45,10a25.59,25.59,0,0,1-7.08,4.12,36.76,36.76,0,0,1-3-2.31c-1.81-1.15-13.83-2.14-14.49-4.77-.65.33-1.64-.17-2.3-.33,0-.17-.17-.83-.49-.66-1.49.16-4.61-.66-4.45,2-.33.5-.66,0-.82-.32a.35.35,0,0,0-.33.32.94.94,0,0,0-.66,1.16c-1.15-.33-5.43,1.15-3.79,2.8,0,.49-.82.16-.82.65.66,1,.33,2.14.49,3.13-.49.66-1.48,1.65-1.15,2.47-.16,0-1-.33-1-.49-.16,0-.33.16-.49.16.33-.66,0-.82-.33-1.31-1,1-2.14.49-3.29.32-1.32.5-2.64,1.65-4,2-4.45,2-3.79,2.8-2.8,6.75-7.58,1.15-9.72,11.69-16.47,13.17a1.27,1.27,0,0,0-.32.66h.65c.33.49,0,1.32-.16,1.81h.16c0,.33-.33.66,0,.82-.33.17-.16,1-.49,1.16.16,0,.16.16.16.32-2,.5-2.79,2.14-3.45,4h0v.33c-.17,2.3-3,3.45-3.46,5.59h-.16c.65.66.49,2.14-.66,2,.16.33.66.49.82.66a4.06,4.06,0,0,1,1,2.63h0c.49-.16.57.66.74,1,2.63,5.1-10,2.3-12.6,2.3-4,.17-7.9-.49-11.68-.33-.33-.16-.83-.65-1-.33-.5-.16-1.48-.65-2-.32a4.71,4.71,0,0,1-4.11-3.79c-1.81.82-4.12.33-5.77,1.48-.49,0-1.31.17-1.64-.33-3.13,1-5.93.17-9.06-.33-2,.66-3.95,2-5.92,2.14.16,0,.49.33.66.33-1,.5-1,1.48-1.32,2.47-1,.82-1.81.17-2.8-.16-.33,0-.82.33-1.15,0h0v.16h0c0,.33-.33.82,0,1.15h-.17c-.16-.33-1-1.15-1.48-1,.33,1.81-3,2.63-4.61,2.79-.16.33-.66,1.16-1,1.16v1.64c-.49-.33-1.64-.66-2-1.15-.17,0-.33,0-.33.17,1.15.82-.17,1-.5,1.64.33,0,.66.5.33.66-.33,0-.82-.16-.82.33-.66.33-.82-1.15-1.32-.66.17.49-.65.33-.65,0-.17-.16-.33-.16-.5-.33-.49.5-1.15-.33-1.64-.33h0c-.17.33.32.66.65.66-.16,1-1.15.33-1.81.49-.33,1,.33,1.49-.49,1.82h0c.16,1.15-.49,1.31-1.48,1-.33.17.16.5.33.5,1.48.66-.17,1.81,0,3-.33-.49,0-1-.33-1.48a6.94,6.94,0,0,0-1.81.16c-.17,0-.83-1.31-1-1.15-.17.33-.66.17-.82.49a12.06,12.06,0,0,0-2.31-.49c-.16.49-.49.33-.82.66-.66,0-1.15.49-1.81.16-.33,1.16,1.15.5,1.15,1.49-.17.16-.17.49-.49.49-.5-.82-1.49-.17-2.14-.66-.17,0-1,.33-1,0,0-.16-.17-.16-.33-.16-.66.65,1.32.65,1.64,1-.32.5-1.81-.49-2.3.17-.17-.17-.49-.17-.49-.5a.44.44,0,0,1-.5-.49h0c.17-.16.33-.16.5-.33,0-.16,0-.33.16-.33a.35.35,0,0,0-.33-.33c-.16-.49.17-.82.17-1.15a13.85,13.85,0,0,0-1.16,1.65c-.66,0-1.64-.17-1.48.82a.59.59,0,0,1,.17.49c.65.17.16.5-.17.17a.74.74,0,0,0-.49-.5c-.5-.49.16-1.48,0-2-.33-.66-1.48-.17-1.32.33-.33.16-.16.66-.49.82,0,.17-.17.33-.33.5.16,1,.16,1.81-.83,2.3-1.48.49-3.12,1.48-4.61,2,0,.16-.32.82-.32,1v.17c0,3-2.31,1.32-3.63,2-.33,1.81-2,2-3.29,2.14-1.65.66-3.13,1.49-3.46,3-2.14,2.47-5.59,1-8.23.66-1.48.65-3,.33-4.44.16h0c-2.8.49-6.26-1.48-6.59-4.44-4.77-2-9.22-5.6-13.66-8.07-1.48.82-.33,3.13-1.81,4.11-1.16-.49-1.65,1.16-2.31,1.82-1.48-.33-.82,1.31-1.81,1.81h0v1.15c-4.28,2.8-7.57,7.24-10.54,11.19,1,1-.49.66-1,1,.33.5,1.31,0,1.48.33.49.66-.17.49-.66.49,0,.83-1,1.16-1.48,1.65-.33.33-.5,1.32-1.32,1.15v.17h-.16c.82,1.15-1.32,1-1.48,1.64h0v.17c.16,0,.32,0,.32-.17.5.17.66.66.33,1a.36.36,0,0,0-.33.33.35.35,0,0,1,.33.33c.17,0,.17.17.17.33V564a.59.59,0,0,0,.49-.17V564h0a.35.35,0,0,0,.33.32c0-.32.33-.32.5-.32v.16h0c0,.16-.17.16-.33.16,0,.17,0,.33.16.33h.66c.49.83-.33,1.49-1.15,1.49-.66-.83-1.32.32-1.48.82-.66,0-1.32.16-1.49-.66-1.15-.16-1.48,1-2.47.33.17.16.17.33.33.49.17,0,.33,0,.33.17h.17v.16h0v.17h0v.16h0c.16,0,.33,0,.33-.16.49,0,.82.33.16.49v.17h.66v.33h0v1h0v.33h0c0,.33.49.66.66.83h0a.59.59,0,0,1-.17.49h0v.16h0v.33h.17v.33h0v.17h0c0,.16,0,.33.16.33-.16,0-.16.16-.16.33-.66-.17-.82.16-1.15.65.16.66,0,.5,0,1-1,1-2.64,2.31-.66,3,0,.16.16.32.16.49.17,0,.5-.17.66-.17V578c.17,0,.33,0,.33.16a.36.36,0,0,1,.66.17c-.33.82-1.48,1.32-1.15,2.3.65.83.16,2,.33,2.8h0c0,.33,0,.83-.5.66.17.82.49,1.48-.66.82-.82-.16-1,.66-1.48,1-.66,0-1.48-.66-2,.17,1.48,3.29-1.49,1.48.82,4.44-3.13,4.28,3.13,3,3.95,4.94-1.48,1.48-3.79,3-3.46,5.43.83.83-.66,3,.5,3.3l.33.65a10.51,10.51,0,0,0-1.32,5.44,5,5,0,0,0-1,6.09c-1.32,1.31-1.15,3.13-.82,4.77-2,2.64-2.64,5.43-3.95,8.56.33,4.28-5.77,3.13-7.58,5.93-1.64,3.29-5.59,4.28-8.23,5.6-.49-.5-1.15.49-1.81.33a.31.31,0,0,0,0,.49c-.16.33-.66,0-.82.33-1-.33-1.48.82-2.47.66-.17.33-.5.82-1,.66v-.17H414v.17c-.49.16-.82-.33-1.32-.33-.16,0-.16-.17-.16-.33-.33-.17-.82-.17-1.15-.5-.17,0-.5,0-.5-.33h-.49v.17h-.17v.33h.33v.16c-.16,0-.33,0-.33.17a.76.76,0,0,1-.82,0,1.56,1.56,0,0,0-1.15-.33c-.17.16-.17.16-.17.33-.16.16-.16.16-.16.33-.82-.5-1.15-.17-1.65-.17,0-.16-.16-.33-.16-.49h0c0-.17.16-.33.16-.5-.16,0-.16-.16-.16-.32-.17,0-.17-.17-.17-.33h-.49v.16h.17c.49,1-.5,1.48-1,2.14h0c0,.33.33.66,0,1a2.82,2.82,0,0,0-2.64,1.32c-2.47-2.31-.82-8.57-5.43-8.24-1.48-.33-1.32-2.14-2.8-2.14h0v-.16h-.16v-.17h-.17a2.91,2.91,0,0,0-1,1.82h-.49c-.16.16-.33.16-.49.32h0c.16.5-.17,1-.17,1.49a.59.59,0,0,1,.17.49h0c1,1.48,0,3.95,0,5.76h0c-.33.83-1.16,1-.66,1.81-1.32,1.81-.82,3.79-.5,5.93.33,2.63-2,3.95-2.63,6.42a4,4,0,0,1-1.48,1c-.33,0-.33.49-.33.66h0c.49.33,1.32.33,1.32,1.15.49,1.65-.33,4,.66,5.27-2.15,1.64,4.6,3.13.65,3.62-.16.16-.65.49-.33.66l.17-.17v.17h.16V672c-.16,1.32-1.81,2.8-2.8,2-.65.16-1.31.33-1.81-.17-1.15.5,2.14,1.32.83,2-1.81,1-1.81,3-2.31,4.61-.66,1.65-2.14,2.63-2.8,4.11h0c1.65,2.47-1.31,1.32-1,3.3a52.41,52.41,0,0,0-7.08-1v1l-1.32-.17c-.16,4.61-6.26,3.3-9,1.81-.83-1.64-2.15-1.64-3.79-1.81a9.77,9.77,0,0,0-3.13-2.14c-2.14-.16-3.46-1.64-4.94-3.29-.66-.16-1.64-.82-2.14-.33-.49,0-.33-1-.66-1.32-.82,0-.66-1.15-1-1.64-1-.66-2-.5-2.64-1-.16-1-1-1.48-1.15-2.47-.66-.33-1.48-.49-1.65-1.15.5,0,.66-1,0-.5a1,1,0,0,0-1,.17c-1.48-1.48-3.12-.17-4.44.82-1.15-.49-2,.5-3.29.66-2,2.8-6.42,2.8-8.89,5.76-3.46-1.48-6.09-3.21-10.21-3.21-.33.82.82,3.38-.49,3.05v3.45c-2,2.64-.83,6.26-1.16,9.22-.82,1-1.48,2.64-3,3,.17,1-.49,2.14.33,3-.66,1,1,1.65.66,2.63,1.64,1.16,3,2.64.66,4,.82,1.48,1.15,2-.66,3,.33,1.15-.33,2.14-.33,3.29h0a.35.35,0,0,1,.16.66c.33.82.5,2.14,1.32,2.63a.63.63,0,0,1-.16.5c0,.16-.17.16-.33.16,0,.5.16.5,0,1v.16c1,0,.66,2,1.31,2.31-.16.16-.49.33-.65.49-.17.83.82,1,.82,1.65-.5,1.48-.17,3.62-.66,5.1l.16.17c-.32.49-.82,0-1.31.16.66.33,1.48,1,.66,1.65-.17.49,1,1.32.16,1.32-.16.82,1.15,1.64-.49,2.14.49.49-.33.82-.17,1.31H309c0,.5-.5,1.16-1,.66-.66,0-.49,1.15-1.15,1.15,0,.17.33.33.16.66a1.36,1.36,0,0,0-.82.5c-.5,0-1.15.33-1.15.82,1.48.33-.83,2.14.49,2.14.33.49-.49,1.15-.66,1.65,0,.82.66,2.47-.66,2.3a3,3,0,0,0,1.48,1c.33,0,1.32-.66,1.16.16-.33,0-.33.33-.33.66.33,0,.49.5.66.83.33,0,.66-.66.66,0,.16,0,.32,0,.32.16v-.16h.17v-.66c-1-.17.33-.66.33-1.16h.16a2.56,2.56,0,0,0,2.47,1.49v.16h.5c-.17-.66.16-1.15.65-.49,2,1.31-1.31,3.78,1.32,5.26.5-.16,1.65-.49,1.65-1.15,1.48.83,2.47.5,3.78-.33,1.49.83,3.3,2.14,3.63,4,1.48-.65,2.47,1.32,3.95.33-.17,2.14,1.81.17,3,2-.33.16-2,1-.66,1a5.75,5.75,0,0,1-1.31.82c1.15,0,2-.49,3,.16a.94.94,0,0,1,1.65,0c1-.16,1.81,0,2.63-.82a.77.77,0,0,0,1-.82c.82,1,2.3.16,2.8,1.32l-.5-.5h0c.17-.16.66.82.66,1,.66.33,0,.82-.49.66v1.31h0c0,.17-.17.33-.17.5-.66,0-.16.33-.16.66h-.17v.49h-.16c-1.32,2.31.16,6.26-1.65,7.74.66.82,1.65,1.48,2.31,2.3-.33.33-.66.66-.5,1.16v.16c1.32,1.32,0,5.43,2.8,4.94.5,2.14-1.48,1.81-2.8,2.47-1,1.32,1.32,1.81-.49,2.8,1.81,1.31-.33,2.8-.33,4.44,3.95-.16,1.32.66,3.62,2.8.33,1-1,.33-.82,1,5.43,2.3.49,2.3,3.46,3.79a1.44,1.44,0,0,0-.83,1.64l-1,1.48.83.17a.71.71,0,0,0,.66.66c.82-.33,1.48.49,2.3.33l.33.49c-.66,1,.16,3.29.49,4.45,2.47-.5,5.93.65,6.59,3.12,1.32,0,3.95.17,3.79,1.81-4.45,3,3.12,6.42-3.3,9.06a1.3,1.3,0,0,0,.17,1.32l.49.16c2.64,1.48,6.92,1.65,6.09,5.43a2,2,0,0,1,1.16,1.16c-.66,5.26-2.47,12.84,4.77,13-1.32,4.28-4.12,9.06-.49,13.17-2.31,3-4.12,5.93-2.8,9.88-5.93,4.12.49,4-.83,8.4h0c-.33.49-.65,1.81-1.31,1.15-.33.16-.5.16-.66,0a1.37,1.37,0,0,1-.66,1h0v.32c-.33-.16-.66.33-1,.5L358,874c-.5-1.31-1.65-.16-2.31.33,0,.17-.66.33-.82.33.16.33-.49.66-.49.83a7.09,7.09,0,0,0,1,3c1.32.82,3.13,2,4.45,1.64a7.18,7.18,0,0,0-.5,2c-.65-.33-2.3-.33-2.47-1.15-.49,0-1,.33-1.48.16-.33-.16-1,.17-1.48,0,0-.16,0-.33-.16-.33a.31.31,0,0,0,0-.49,11,11,0,0,1-2.31-2.47c.17-.66-.49-.49-1-.49,0,.33-.16.65-.49.65a.74.74,0,0,1-.49.5c.66,1.64-3.63,1-4.61.49-.17-1.31-1-.33-1.48,0,0-.16-.17-.49-.33-.49-.17.33-.5.16-.83.16,0-.82-1.48-.33-1.81-.16,0,.49-.33.16-.49,0-.17-1.15-2.64,1.15-2.64-.33.33.16.17-.49.5-.33v-.16c-.17,0-.33,0-.33-.17-.17.33-.5,0-.66.33-.33-.66-1.15-.66-1.65-1.15-.49-.83-1.15.33-1.15-.83-.16-.32-.49-.82-.16-1.15.16-.33-.33-.66-.66-.66,0-.16-.17-.16-.33-.16,0-.17-.17-.17-.33-.17a1.77,1.77,0,0,1-1.32.33c-.16.17-.16.33-.33.5-.16-.17-.33-.66-.66-.66a.81.81,0,0,0-.65-.33l-.33-.33c-.17,0-.17-.16-.17-.33a.35.35,0,0,1-.33-.33c-.16,0-.16-.16-.16-.33h-.17V872c-.49.16-.82.66-1.15,0,0-.17,0-.5-.33-.5,0,.17,0,.33-.16.33-.17-.16-.33-.33-.5-.33-.82.66-2.47.5-2.79,1.65-.83,0-1.49.66-1.65.66-.17.33-.66.16-1,.16,0-.82-1.65.33-2.14-.49-.66-.17-1,.66-1.65.49.17-.16.17-.66.33-.82h-.16a.61.61,0,0,0,.16-.49c-1.15-.33-1,1-1.81,1.48a12.89,12.89,0,0,1-2.47-.5c-.33.5-.82.33-1.31.17-1.16.82-3.13-.33-4.12,1-.49,0-.33-1-.82-.83v-.16c-.17.49-1,.66-1.48.82-.17-.49-.83-2-.17-2.3l-.33.16a7.31,7.31,0,0,0,.33,2c-.66-.5-.66-.66-1.48-.17-.49-.49-1.48-1-1.48-1.81-3.13-.82-5.6,4.78-4.94-1.64-1-.5-.82.65-1.32,1.15-.82-.5-2.14.49-3.13,0,2.31,3.13-1.81,2.8-1.64.49-1.81.66-2.8,4.12-3.13,5.76-1.32.17-1.48,2-1.32,3.13a.62.62,0,0,0-1,.17c-.65.16-1-1-1.48-.83-.16-.33,0-1-.33-1.15-.33,0-.49.17-.49.33-1,.16-.82-2-2.14-1.81-.66,1-2.8-.33-1.81,1.15-.5.5-1.81-1-1.81.33-.33,0-.5-.16-.83-.16-.65,1.48-2.3,3.62-4.28,3,.5-2-2-2.31-3.29-3-3,1.15-7.24,1.48-7.9,4.94a.74.74,0,0,0-1.32-.33c.17.65-.49.65-1,.65v.66c-.49-.16-1.48.33-2,.5-.82-.83-2-.5-3-.66-2.31-1.32-5.77-.33-8.07-2-.66-1-2.47-1.64-3.46-2.63-1.48-1-3.62-.66-4.77-1.81-2,1-2.8-1.65-4.45-1.81-1,.16-2.14,1.64-3.13.82a.61.61,0,0,0,.33,1.15c-4.61,2.47-7.73,6.92-10.53,11.2-1.15,2.47-1.15,6.25-4.45,7.24-3.29,2.14-5.43,5.6-9.38,7.08-2.64,1.81-11.36,3.29-9.71,7.24l.65-.33v.17a1,1,0,0,1-.65.16c0-1.48-1.49-2.47-2.8-3-.5-.66-.83-2.14-1.81-1.81a2.88,2.88,0,0,0-3-.66c-3.45-1.32-6.91-3.13-10.7-2.14-3.46-3.95-9.38-3.46-13.5-6.75-6.58-4.28-4.44-3.62-12.51-1.32-1-2.47-5.27-5.1-4.77-8.06-4.78-3.3-10.71-6.75-16.3-6.26-1.16-.66-6.75-1-4.12,1a1.08,1.08,0,0,1-.82.66c-.5.66-.5,1.81-1,2.14.33,1-1,.82-1,1.64-.33,0-.49-.16-.49-.33-4.12,9.22-18.11,3.3-26,7.41,2.14,5.76.49,8.89-4.61,11.69,0,1.81.16,4.94-2.64,4.61-9.54-1.65-2.79,5.76-7.24,9.06-13.66-2,1.32,17.28-4,25" fill="none" stroke="#002b7f" stroke-linecap="round" stroke-linejoin="round" stroke-width="3.29"/>

</svg>