<svg id="mapImgSVG" class="map__svg" data-name="Layer 1" xmlns="http://www.w3.org/2000/svg" xmlns:xlink="http://www.w3.org/1999/xlink" width="1420.67" height="1080" viewBox="0 0 1420.67 1080">


<image width="3840" height="2160" transform="translate(-249.67) scale(0.5)" xlink:href="../assets/day-00/sat-map-clean.jpg"/>

<path id="day18" d="M313.65,909.76a1,1,0,0,1-.65.16c0-1.47-1.48-2.46-2.79-2.95-.49-.65-.82-2.13-1.81-1.8a2.84,2.84,0,0,0-2.95-.66c-3.44-1.31-6.89-3.11-10.66-2.13-3.44-3.94-9.35-3.44-13.45-6.73-6.56-4.26-4.43-3.6-12.46-1.31-1-2.46-5.25-5.08-4.76-8-4.76-3.28-10.66-6.73-16.24-6.24-1.15-.65-6.72-1-4.1,1a1.07,1.07,0,0,1-.82.65c-.49.66-.49,1.81-1,2.14.33,1-1,.82-1,1.64-.33,0-.49-.17-.49-.33-4.1,9.18-18,3.28-25.91,7.38,2.13,5.74.49,8.86-4.6,11.64,0,1.81.17,4.92-2.62,4.6-9.51-1.64-2.79,5.74-7.22,9-13.61-2,1.31,17.22-3.93,24.93" fill="none" stroke="#ce1126" stroke-linecap="round" stroke-linejoin="round" stroke-width="3.28"/>

<path id="day17" d="M420.92,870.89a6.93,6.93,0,0,0,.33,2c-.66-.5-.66-.66-1.48-.17-.49-.49-1.47-1-1.47-1.8-3.12-.82-5.58,4.75-4.92-1.64-1-.49-.82.65-1.32,1.15-.82-.5-2.13.49-3.11,0,2.29,3.11-1.81,2.78-1.64.49-1.81.65-2.79,4.1-3.12,5.74-1.31.16-1.48,2-1.31,3.12a.62.62,0,0,0-1,.16c-.65.16-1-1-1.47-.82-.17-.33,0-1-.33-1.15-.33,0-.49.16-.49.33-1,.16-.82-2-2.13-1.81-.66,1-2.79-.32-1.81,1.15-.49.49-1.8-1-1.8.33-.33,0-.49-.16-.82-.16-.66,1.47-2.3,3.61-4.27,3,.5-2-2-2.3-3.28-3-2.95,1.15-7.21,1.47-7.87,4.92a.73.73,0,0,0-1.31-.33c.16.66-.49.66-1,.66v.65c-.49-.16-1.47.33-2,.49-.82-.82-2-.49-3-.65-2.29-1.31-5.74-.33-8-2-.66-1-2.46-1.64-3.45-2.62-1.47-1-3.61-.66-4.75-1.81-2,1-2.79-1.64-4.43-1.8-1,.16-2.14,1.64-3.12.82a.61.61,0,0,0,.33,1.15c-4.59,2.46-7.71,6.88-10.5,11.15-1.15,2.46-1.15,6.23-4.43,7.22-3.28,2.13-5.41,5.57-9.35,7.05-2.62,1.8-11.31,3.28-9.67,7.21l.65-.32" fill="none" stroke="#002b7f" stroke-linecap="round" stroke-linejoin="round" stroke-width="3.28"/>

<path id="day16" d="M477.67,869.25c-.33.49-.66,1.8-1.31,1.15-.33.16-.49.16-.66,0a1.36,1.36,0,0,1-.65,1h0v.33c-.33-.17-.66.33-1,.49l-.16.16c-.49-1.31-1.64-.16-2.3.33,0,.17-.65.33-.82.33.17.33-.49.66-.49.82a7,7,0,0,0,1,2.95c1.32.82,3.12,2,4.43,1.64a6.69,6.69,0,0,0-.49,2c-.66-.33-2.3-.33-2.46-1.15-.49,0-1,.33-1.48.17-.32-.17-1,.16-1.47,0,0-.17,0-.33-.17-.33a.3.3,0,0,0,0-.49,11.05,11.05,0,0,1-2.29-2.46c.16-.66-.49-.5-1-.5,0,.33-.16.66-.49.66a.75.75,0,0,1-.49.49c.66,1.64-3.61,1-4.59.49-.17-1.31-1-.32-1.48,0,0-.16-.16-.49-.33-.49-.16.33-.49.17-.82.17,0-.82-1.47-.33-1.8-.17,0,.49-.33.17-.49,0-.17-1.15-2.63,1.15-2.63-.33.33.17.17-.49.49-.32V876c-.16,0-.32,0-.32-.16-.17.33-.5,0-.66.33-.33-.66-1.15-.66-1.64-1.15-.49-.82-1.15.33-1.15-.82-.16-.33-.49-.82-.16-1.15.16-.33-.33-.66-.66-.66,0-.16-.16-.16-.33-.16,0-.16-.16-.16-.32-.16a1.81,1.81,0,0,1-1.32.32c-.16.17-.16.33-.32.5-.17-.17-.33-.66-.66-.66a.86.86,0,0,0-.66-.33l-.32-.33c-.17,0-.17-.16-.17-.32a.36.36,0,0,1-.33-.33c-.16,0-.16-.17-.16-.33h-.16v-.16c-.5.16-.82.65-1.15,0,0-.17,0-.5-.33-.5,0,.17,0,.33-.17.33-.16-.16-.32-.33-.49-.33-.82.66-2.46.5-2.79,1.64-.82,0-1.47.66-1.64.66-.16.33-.65.16-1,.16,0-.82-1.64.33-2.13-.49-.66-.16-1,.66-1.64.49.16-.16.16-.65.33-.82h-.17a.58.58,0,0,0,.17-.49c-1.15-.33-1,1-1.81,1.48a13.39,13.39,0,0,1-2.46-.49c-.33.49-.82.32-1.31.16-1.15.82-3.12-.33-4.1,1-.49,0-.33-1-.82-.82v-.16c-.17.49-1,.66-1.48.82-.16-.49-.82-2-.16-2.3" fill="none" stroke="#ce1126" stroke-linecap="round" stroke-linejoin="round" stroke-width="3.28"/>

<path id="day15" d="M469.8,818.4c2.62,1.48,6.89,1.64,6.07,5.41A2,2,0,0,1,477,825c-.65,5.25-2.46,12.8,4.76,13-1.31,4.26-4.1,9-.49,13.12-2.3,3-4.1,5.91-2.79,9.84-5.9,4.1.49,3.94-.82,8.37" fill="none" stroke="#002b7f" stroke-linecap="round" stroke-linejoin="round" stroke-width="3.28"/>

<path id="day14" d="M453.89,771.66c1.31,1.31,0,5.41,2.79,4.92.49,2.13-1.48,1.8-2.79,2.46-1,1.31,1.31,1.8-.49,2.79,1.8,1.31-.33,2.78-.33,4.42,3.93-.16,1.31.66,3.61,2.79.32,1-1,.33-.82,1,5.41,2.29.49,2.29,3.44,3.77a1.44,1.44,0,0,0-.82,1.64l-1,1.48.82.16a.7.7,0,0,0,.65.66c.82-.33,1.48.49,2.3.32l.33.5c-.66,1,.16,3.28.49,4.42,2.46-.49,5.9.66,6.56,3.12,1.31,0,3.94.17,3.77,1.81-4.43,3,3.12,6.39-3.28,9a1.29,1.29,0,0,0,.17,1.31" fill="none" stroke="#ce1126" stroke-linecap="round" stroke-linejoin="round" stroke-width="3.28"/>

<path id="day13" d="M428.79,677.18c-.32.82.33,3.28-1,3v3.44c-2,2.62-.82,6.23-1.15,9.18-.82,1-1.47,2.63-3,3,.16,1-.49,2.13.33,2.95-.66,1,1,1.64.65,2.62,1.64,1.15,3,2.63.66,3.94.82,1.48,1.15,2-.66,2.95.33,1.15-.33,2.13-.33,3.28h0a.35.35,0,0,1,.17.66c.33.82.49,2.13,1.31,2.62a.6.6,0,0,1-.16.49c0,.17-.17.17-.33.17,0,.49.16.49,0,1v.17c1,0,.66,2,1.31,2.29-.16.17-.49.33-.65.5-.17.82.82,1,.82,1.64-.5,1.47-.17,3.6-.66,5.08l.16.16c-.32.5-.82,0-1.31.17.66.33,1.48,1,.66,1.64-.17.49,1,1.31.16,1.31-.16.82,1.15,1.64-.49,2.13.49.49-.33.82-.16,1.31H425c0,.5-.49,1.15-1,.66-.66,0-.5,1.15-1.15,1.15,0,.16.33.33.16.66a1.37,1.37,0,0,0-.82.49c-.49,0-1.15.33-1.15.82,1.48.33-.82,2.13.5,2.13.32.49-.5,1.15-.66,1.64,0,.82.66,2.46-.66,2.3a3,3,0,0,0,1.48,1c.33,0,1.31-.66,1.15.16-.33,0-.33.33-.33.66.33,0,.49.49.66.82.32,0,.65-.66.65,0,.17,0,.33,0,.33.16v-.16h.16v-.66c-1-.16.33-.65.33-1.14h.17a2.53,2.53,0,0,0,2.46,1.47v.17h.49c-.16-.66.16-1.15.66-.5,2,1.32-1.32,3.78,1.31,5.25.49-.16,1.64-.49,1.64-1.15,1.47.82,2.46.5,3.77-.32,1.48.82,3.28,2.13,3.61,3.93,1.47-.65,2.46,1.32,3.93.33-.16,2.13,1.81.16,3,2-.33.16-2,1-.66,1a5.54,5.54,0,0,1-1.31.82c1.15,0,2-.49,2.95.17a.93.93,0,0,1,1.64,0c1-.17,1.81,0,2.63-.82a.77.77,0,0,0,1-.82c.82,1,2.3.16,2.79,1.31l-.49-.49h0c.16-.17.65.82.65,1,.66.33,0,.82-.49.66v1.31h0c0,.16-.16.33-.16.49-.66,0-.17.33-.17.66h-.16v.49h-.17c-1.31,2.3.17,6.23-1.64,7.71.66.82,1.64,1.47,2.3,2.29-.33.33-.66.66-.49,1.15" fill="none" stroke="#002b7f" stroke-linecap="round" stroke-linejoin="round" stroke-width="3.28"/>

<path id="day12" d="M526.06,641.59h-.17v.33h.33v.16c-.16,0-.33,0-.33.17a.76.76,0,0,1-.82,0,1.56,1.56,0,0,0-1.15-.33c-.16.16-.16.16-.16.33-.16.16-.16.16-.16.33-.82-.5-1.15-.17-1.64-.17,0-.16-.17-.33-.17-.49h0c0-.16.17-.33.17-.49-.17,0-.17-.17-.17-.33-.16,0-.16-.16-.16-.33h-.49v.17h.16c.49,1-.49,1.47-1,2.13h0c0,.33.32.65,0,1a2.83,2.83,0,0,0-2.63,1.31c-2.46-2.29-.82-8.53-5.41-8.2-1.48-.33-1.31-2.13-2.79-2.13h0v-.16h-.16v-.17h-.17a2.85,2.85,0,0,0-1,1.81h-.49c-.17.16-.33.16-.5.32h0c.17.5-.16,1-.16,1.48a.61.61,0,0,1,.16.49h0c1,1.48,0,3.94,0,5.74h0c-.32.82-1.14,1-.65,1.81-1.31,1.8-.82,3.77-.49,5.9.32,2.63-2,3.94-2.63,6.4a3.82,3.82,0,0,1-1.47,1c-.33,0-.33.5-.33.66h0c.49.33,1.31.33,1.31,1.15.49,1.64-.33,3.93.66,5.25-2.14,1.64,4.59,3.11.65,3.6-.16.17-.65.5-.33.66l.17-.16V671h.16v.16c-.16,1.32-1.8,2.79-2.79,2-.65.17-1.31.33-1.8-.16-1.15.49,2.13,1.31.82,2-1.81,1-1.81,3-2.3,4.59-.65,1.64-2.13,2.62-2.79,4.1h0c1.64,2.46-1.31,1.31-1,3.28a51.94,51.94,0,0,0-7-1v1L486,686.7c-.17,4.59-6.24,3.28-9,1.8-.82-1.64-2.13-1.64-3.77-1.8a9.69,9.69,0,0,0-3.11-2.14c-2.14-.16-3.45-1.64-4.92-3.28-.66-.16-1.64-.82-2.14-.32-.49,0-.32-1-.65-1.32-.82,0-.66-1.14-1-1.64-1-.65-2-.49-2.62-1-.17-1-1-1.48-1.15-2.46-.66-.33-1.48-.49-1.64-1.15.49,0,.66-1,0-.49a1,1,0,0,0-1,.16c-1.48-1.47-3.12-.16-4.43.82-1.15-.49-2,.49-3.28.66-2,2.79-6.4,2.79-8.86,5.74-3.44-1.48-6.56-3.28-10.66-3.28" fill="none" stroke="#ce1126" stroke-linecap="round" stroke-linejoin="round" stroke-width="3.28"/>

<path id="day11" d="M560.17,584.35c-.82-.17-1,.65-1.47,1-.66,0-1.48-.65-2,.17,1.47,3.28-1.48,1.47.82,4.43-3.12,4.26,3.11,3,3.93,4.92-1.47,1.47-3.77,2.95-3.44,5.41.82.82-.66,3,.49,3.28l.33.65a10.55,10.55,0,0,0-1.31,5.42,5,5,0,0,0-1,6.07c-1.31,1.31-1.14,3.11-.82,4.75-2,2.63-2.62,5.42-3.93,8.53.32,4.27-5.74,3.12-7.55,5.91-1.64,3.28-5.57,4.26-8.2,5.57-.49-.49-1.15.49-1.8.33a.3.3,0,0,0,0,.49c-.17.33-.66,0-.82.33-1-.33-1.48.82-2.46.66-.17.33-.5.82-1,.65v-.16h-.33v.16c-.49.17-.82-.32-1.31-.32-.16,0-.16-.17-.16-.33-.33-.17-.82-.17-1.15-.5-.16,0-.49,0-.49-.32h-.49v.16" fill="none" stroke="#002b7f" stroke-linecap="round" stroke-linejoin="round" stroke-width="3.28"/>

<path id="day10" d="M604.62,547.77c-2.79.49-6.23-1.47-6.56-4.43-4.76-2-9.19-5.57-13.61-8-1.48.82-.33,3.11-1.81,4.1-1.15-.49-1.64,1.15-2.29,1.8-1.48-.33-.82,1.31-1.81,1.81h0v1.14c-4.26,2.79-7.54,7.22-10.5,11.16,1,1-.49.65-1,1,.33.49,1.31,0,1.48.33.49.66-.17.49-.66.49,0,.82-1,1.15-1.48,1.64-.32.33-.49,1.31-1.31,1.15v.16h-.16c.82,1.15-1.31,1-1.48,1.64h0v.17c.17,0,.33,0,.33-.17.49.17.66.66.33,1a.35.35,0,0,0-.33.33.35.35,0,0,1,.33.32c.16,0,.16.17.16.33v-.16a.58.58,0,0,0,.49-.17v.17h0a.36.36,0,0,0,.33.33c0-.33.33-.33.49-.33v.16h0c0,.17-.16.17-.32.17,0,.16,0,.32.16.32h.66c.49.82-.33,1.48-1.15,1.48-.66-.82-1.31.33-1.48.82-.65,0-1.31.16-1.47-.66-1.15-.16-1.48,1-2.46.33.16.17.16.33.32.49.17,0,.33,0,.33.17h.17V567h0v.17h0v.16h0c.16,0,.32,0,.32-.16.5,0,.82.33.17.49v.16h.65v.33h0v1h0v.32h0c0,.33.5.66.66.82h0a.63.63,0,0,1-.16.5h0v.16h0v.33h.16v.33h0v.16h0c0,.16,0,.33.16.33-.16,0-.16.16-.16.33-.66-.17-.82.16-1.15.65.17.66,0,.49,0,1-1,1-2.62,2.29-.65,3,0,.16.16.33.16.49.16,0,.49-.16.66-.16v.16c.16,0,.32,0,.32.16a.36.36,0,0,1,.66.17c-.33.82-1.48,1.31-1.15,2.29.66.82.17,2,.33,2.79h0c0,.33,0,.82-.49.66.16.82.49,1.48-.66.82" fill="none" stroke="#ce1126" stroke-linecap="round" stroke-linejoin="round" stroke-width="3.28"/>

<path id="day9" d="M726.81,517.92c2.63,5.09-9.84,2.3-12.46,2.3-3.94.16-7.87-.49-11.65-.33-.32-.16-.82-.66-1-.33-.49-.16-1.48-.65-2-.33a4.67,4.67,0,0,1-4.1-3.77c-1.8.82-4.1.33-5.74,1.48-.49,0-1.31.16-1.64-.33-3.12,1-5.9.16-9-.33-2,.66-3.94,2-5.91,2.13.17,0,.5.33.66.33-1,.49-1,1.48-1.31,2.46-1,.82-1.81.17-2.79-.16-.33,0-.82.33-1.15,0h0v.16h0c0,.33-.33.82,0,1.15h-.16c-.17-.33-1-1.15-1.48-1,.33,1.8-3,2.62-4.59,2.78-.17.33-.66,1.15-1,1.15v1.64c-.49-.33-1.64-.65-2-1.15-.17,0-.33,0-.33.17,1.15.82-.17,1-.49,1.64.32,0,.65.49.32.65-.32,0-.82-.16-.82.33-.65.33-.82-1.15-1.31-.65.17.49-.65.32-.65,0-.17-.17-.33-.17-.5-.33-.49.49-1.14-.33-1.64-.33h0c-.16.33.33.66.66.66-.16,1-1.15.32-1.8.49-.33,1,.32,1.47-.5,1.8h0c.17,1.15-.49,1.31-1.47,1-.33.16.16.49.33.49,1.47.65-.17,1.8,0,2.95-.33-.49,0-1-.33-1.47a6.94,6.94,0,0,0-1.81.16c-.16,0-.82-1.31-1-1.15-.16.33-.66.16-.82.49a11.81,11.81,0,0,0-2.3-.49c-.16.49-.49.33-.82.66-.65,0-1.15.49-1.8.16-.33,1.15,1.15.49,1.15,1.48-.17.16-.17.49-.5.49-.49-.82-1.47-.16-2.13-.66-.16,0-1,.33-1,0,0-.16-.17-.16-.33-.16-.66.66,1.31.66,1.64,1-.33.5-1.8-.49-2.3.17-.16-.17-.49-.17-.49-.49a.44.44,0,0,1-.49-.5h0c.16-.16.33-.16.49-.32,0-.17,0-.33.17-.33a.35.35,0,0,0-.33-.33c-.17-.49.16-.82.16-1.15a14.54,14.54,0,0,0-1.15,1.64c-.65,0-1.64-.16-1.47.82a.62.62,0,0,1,.16.49c.66.17.17.5-.16.17a.73.73,0,0,0-.49-.49c-.5-.5.16-1.48,0-2-.33-.66-1.48-.17-1.32.32-.32.17-.16.66-.49.83,0,.16-.16.32-.33.49.17,1,.17,1.8-.82,2.29-1.47.5-3.11,1.48-4.59,2,0,.17-.33.82-.33,1v.16c0,3-2.29,1.31-3.61,2-.32,1.8-2,2-3.28,2.13-1.64.66-3.11,1.48-3.44,3-2.13,2.46-5.58,1-8.2.66-1.48.65-2.95.33-4.43.16" fill="none" stroke="#002b7f" stroke-linecap="round" stroke-linejoin="round" stroke-width="3.28"/>

<path id="day8" d="M852.12,439.85c-2.78-2-6.23.66-9.18-1.48-1.48-.82-1.48-3.11-3.28-3.44-.49-1.31-1.48.16-2.13.49-1.64-2.95-6.07-3.12-7.38-6.23a1.6,1.6,0,0,1-1.81-1.64c-8.69-4.76-8.36,3.93-12.3,9.18-1.8,7.22-4.59,4.6-9.19,9.35.33,13.45-2.29,4.43-3.44,12.3l-4.43,10a25.51,25.51,0,0,1-7.05,4.1,33.28,33.28,0,0,1-2.95-2.3c-1.81-1.15-13.78-2.13-14.44-4.75-.65.32-1.64-.17-2.29-.33,0-.17-.17-.82-.5-.66-1.47.17-4.59-.65-4.42,2-.33.49-.66,0-.82-.33a.35.35,0,0,0-.33.33.94.94,0,0,0-.66,1.15c-1.15-.33-5.41,1.15-3.77,2.79,0,.49-.82.16-.82.65.66,1,.33,2.13.49,3.12-.49.65-1.47,1.64-1.15,2.46-.16,0-1-.33-1-.49-.16,0-.33.16-.49.16.33-.65,0-.82-.33-1.31-1,1-2.13.49-3.28.33-1.31.49-2.63,1.64-3.94,2-4.43,2-3.77,2.78-2.79,6.72-7.54,1.15-9.67,11.65-16.4,13.12a1.29,1.29,0,0,0-.33.66h.66c.33.49,0,1.31-.16,1.8h.16c0,.33-.33.66,0,.82-.33.17-.16,1-.49,1.15.16,0,.16.16.16.33-2,.49-2.79,2.13-3.44,3.93h0v.33c-.17,2.3-3,3.45-3.45,5.58H725c.66.66.49,2.13-.66,2,.17.33.66.49.82.65a4,4,0,0,1,1,2.63h0c.49-.17.65.65.82,1" fill="none" stroke="#ce1126" stroke-linecap="round" stroke-linejoin="round" stroke-width="3.28"/>

<path id="day7" d="M888.86,401.8c-.16.32-.65,1-.65,1.31,1.15-.17,2.13,1,1.31,2-2,0-1.31.82-.49,1.8a12.6,12.6,0,0,1-4.1-2.29c0,.49.82,1.31.49,1.64-.49-.66-1.31-1-1.31.16,1,0,.16,1.48,1.15,1.8a3.27,3.27,0,0,1,0,2.14c.82.65-.33,2.13-1,2.78h0a.6.6,0,0,0,.17.5c-.5,1.14-.17,1.47,0,2.62a3.79,3.79,0,0,0-2.3.33c-2-.17-1,1-2.13,1.8-1.81-.65-3.28.49-4.76.49a3,3,0,0,0-2.3-.65c-1.14,2.29-2.29-1-3.93-.66-.49-.82-.49-1.8-1.15-2.62.49-.33,0-.49-.16-.82-.17-.66-.82-.82-1.32-1.15,0,.16-.16.16-.32.16,0,.5-.82-.16-1-.16-.49.33.49,1,.66,1.31a2.1,2.1,0,0,1-1.81,1,3.2,3.2,0,0,1-2,2.13c-.32-.17-.65-1.64-1.14-1.15-.66.33-2.14.49-2.3-.49-.66-.17-.16.65-.16,1-.66.49-1.64.82-1.32,1.81-1.14-.33,0-1.15-.16-2-.33-1.48-2.79-1-2.3.16-.32.17,0,.49-.32.66-.33-.33-1-.33-1-1-.82.17-.49-.82-.49-1.31-1.31-.65-.66-2.13-1.48-2.79-1.47.66-1.64,2.14-2.95,3,.66.82.17,1.47.66,2.29-1.31,0-1,1.31-1.48,2,.82,1-.49.49-.82.82.49,0,.49,1,.49,1.31l-.33-.33c-.65.5-.32,2.14-.82,2.79.5,1,1.15,2.79-.32,3.12-.66.49,1.14,2.13-.17,2.13a.62.62,0,0,0-.16.49c1.31,1.32,1,2.63.65,4.27.66-.17,2.3-.49,2.3.49h-1c0,.66,1,.82,1.15,1.48,0,0-.17,2.78-.17,2.95,2.95-.66,5.74,2.79,9,2.13,1-.82,3.94-3.12,4.76-1.8" fill="none" stroke="#002b7f" stroke-linecap="round" stroke-linejoin="round" stroke-width="3.28"/>

<path id="day6" d="M955.78,398.84c-.82,1.15-1,3.28-2.29,4.1-.17-1,.49-2.13.16-2.95-2.13,1.48-5.9-2.79-6.56.49a6.56,6.56,0,0,0-2,3.78c-.33.33-1,0-1.31-.17a45.64,45.64,0,0,1-6.4,2c-1-1.47-2.13,1.15-3.61.66l-1.14,1.15c1.64.32.65,1,0,1.8.32.33-.33,1-.5,1.31-.16-.16-.16-.65-.16-1-.49,0-.82-.49-1.15-.82a1,1,0,0,0-.16.65,1.33,1.33,0,0,1-1.31-.49c1-1.31.49-3.44,1.64-4.59.16-1.64-1.32-1.64-2.46-2.13.32-1.48-.66-2-1.81-2.46-.33-.5-.16-1.81-1-1.81l-.17.82c-.49-.49-.49.33-.49.66a2.24,2.24,0,0,0,0,2.46c-.65,2-1.8-.17-2.13-1.15-1-.16-3.12-.82-3.28.49-.17.33-.66.33-.66.66-.33,0-.33-.33-.33-.49a8.39,8.39,0,0,1-3.44-1c.16,1.81-1.64,1.64-2.13,3.12-.82.66-2.13-.49-2.79.16-1.8-.49-3.77-2.46-5.41-1.47-.66-1.32-1.81-.5-2.79-.17-.49-.82-1.15.17-1.48.49,0-.16-.33-.32-.49-.32-.33.32-1.31-.17-1.64.49l-.82-.82-.16.16c.82,1.64-2.63-.49-3.12.49a2.62,2.62,0,0,1-2.13-1c-1,.33-2.46,0-3.61,0v-.16" fill="none" stroke="#ce1126" stroke-linecap="round" stroke-linejoin="round" stroke-width="3.28"/>

<path id="day5" d="M1005,338.32c.82,7.71,2,16.73-4.76,21.65-1,1.81.49,5.25-2.62,4.92-1.48.49-1.15,2.14-1.48,3.28-3.28,2-7.54,4.92-11.81,3.28a14.54,14.54,0,0,1-1.64,1.15c-.16,2.63-3.93,1-4.59,3.28-3.94,4.76,4.26,8.2-6.07,12.3-2.13,1.15-4.26.82-6.4.33-2.29-.33-4.42,1.48-6.56,1.64-.82.49-1.47-.33-2.13-.49,0,.49-1,1-1.31,1.15,1.47,1.31-1.15,2.79-2.3,3.11.49,1.15.82,2.63-.33,3.45l2.79,1.47" fill="none" stroke="#002b7f" stroke-linecap="round" stroke-linejoin="round" stroke-width="3.28"/>

<path id="day4" d="M1018.93,277.8a3,3,0,0,1,2.3,4.43c-1.15.82-1.15,2.62-1.15,3.93a7.42,7.42,0,0,0-1.64,2.3c-1,4.1.33,9.84-.66,14.43.82,1.32.17,3,0,4.27s.49,3.11-.33,4.43c.5,4.75-2.13,9.18-4.1,13.45-3.93,1-5.25,4.26-7.87,6.72-.16,2.13,0,4.27-.66,6.4" fill="none" stroke="#ce1126" stroke-linecap="round" stroke-linejoin="round" stroke-width="3.28"/>

<path id="day3" d="M1028.11,259.59c2.3,3.78,8.37,8.37,5.42,12.47.33,1.8,1.8,2.29,1.8,4.26-7.71-.49-10-3.11-16.4,1.48" fill="none" stroke="#002b7f" stroke-linecap="round" stroke-linejoin="round" stroke-width="3.28"/>

<path id="day2" d="M1075,143.14a1.46,1.46,0,0,0,1,1.64c1.31,2.79,1.47,4.76,0,7.55-2,.49-1.31,2.95-3.28,3.28,0,.49,0,1.14-.49,1.47,0,3.28-.17,5.58-3.61,6.73-1,1.8-3.61,1.47-5.09,2.62a6.47,6.47,0,0,1-3,1.64c-.33,2-1.8,3.12-3.44,4.1.65.82,0,1.15-.82,1.48.65.65-.82,1.31-.33,1.8-1,1.31-1.15,2.13-.17,3.45,1.15.49.33,1-.32,1.31-.33,1.47-.82,4.59-3,3.94.17,1.64,1.32,2.78,1.15,4.59-1.47,3.28-3.11,6.07-3.77,9.67-.49.82-.49,2-1.15,2.63a14.25,14.25,0,0,1-.82,3.61c.33.16,0,.65,0,.82h0v0c-.16,1.8-2,2-2.79,3.28-1.47,1-1.8,2.62-4.1,2.62a1.54,1.54,0,0,1-2,1.48c-.49.82-1.47,1.31-2,2.13-1.64,0-2,2-3.61,2-.49.49-.33,1.31-.49,2-.5.49-1.48.82-2,1.31-.17.49-1.48,1.64-.49,1.64-.17.49-.66.82,0,1.31-3,1.48,3,4.59.16,5.41-1.81,1.81.66,4.27,1.8,5.91a6.67,6.67,0,0,0-2.13,2.13c-.16,0-.49.16-.66.16h0a8.36,8.36,0,0,1-.49,2c-.82-.16-1,.66-.65,1.32-.5,0-.66.49-1,.82-1.15-.17-.65.65-.65,1.31-1.32.33-1.32,1.47-1.64,2.62-2.3.33-1.32,1.64-1.64,3.28-1,4.27,3.11,8.2,4.42,12" fill="none" stroke="#ce1126" stroke-linecap="round" stroke-linejoin="round" stroke-width="3.28"/>

<path id="day1" d="M1210.67,53.26c-10.5,2-10-1.31-11.32,10-8,5.58,3.12,8.37-12,9.85-.82,1.14-.82,5.08-1.64,6.23-.33.16-11.65,7.54-12,7.71.49,1.47-9.51,19-10.33,20.66-1.15,11.48-3.61,37.4-4.76,48.55-18.37-4.26-40.35-3.61-57.57-11-8.36-.82-18.37,1.48-26.08-2.46v.33" fill="none" stroke="#002b7f" stroke-linecap="round" stroke-linejoin="round" stroke-width="3.28"/></svg>