<?xml version="1.0" encoding="utf-8"?>
<!-- Generator: Adobe Illustrator 24.3.0, SVG Export Plug-In . SVG Version: 6.00 Build 0)  -->
<svg version="1.1" id="Layer_1" xmlns="http://www.w3.org/2000/svg" xmlns:xlink="http://www.w3.org/1999/xlink" x="0px" y="0px"
	 viewBox="0 0 1920 1080" style="enable-background:new 0 0 1920 1080;" xml:space="preserve">
<style type="text/css">
	.st0{fill:#002B7F;}
</style>
<polygon id="elevDay18" class="st0" points="1807.1,1065.6 1807.3,1065.7 1807.5,1065.8 1808.1,1066.1 1808.4,1066.2 1809,1066.2 
	1809.4,1066 1810.2,1066.7 1810.8,1067.2 1811.5,1065.9 1811.9,1065.9 1812.4,1065.3 1812.9,1064.8 1813.4,1065.4 1813.8,1065.6 
	1814.6,1065.4 1816.8,1066.5 1817.7,1067.3 1818.8,1067.8 1819,1067.9 1819.9,1068.3 1820.5,1068.7 1820.8,1069.4 1821.2,1069.4 
	1822.7,1068.4 1823,1068.4 1823.1,1068.8 1823.8,1069.4 1824.1,1069.4 1825.2,1069.4 1826.2,1069.4 1826.6,1069.5 1827,1070.5 
	1827.3,1069.4 1828.1,1069.4 1829,1069.3 1829.6,1069 1829.9,1069 1830.1,1069.1 1830.3,1069.1 1830.4,1069.1 1830.8,1068.4 
	1833,1068.3 1833.2,1068.4 1833.5,1068.4 1833.7,1068.5 1834.3,1068.7 1838.5,1069.4 1838.8,1069.4 1839.2,1069.4 1842.2,1070.2 
	1843.2,1070.1 1843.6,1070.3 1844.1,1070.5 1844.3,1070.4 1844.7,1070.2 1845.9,1069.9 1848.2,1070.6 1848.5,1070.4 1849.2,1070.6 
	1849.5,1071.6 1850.4,1071.6 1851.2,1070.5 1851.7,1070.4 1852,1070.5 1852.8,1070.7 1853.6,1071.1 1854.3,1071.5 1854.8,1071.6 
	1855,1071.7 1855.7,1071.8 1856.1,1071.7 1856.9,1071.2 1857.5,1071.3 1857.8,1071.6 1858.1,1071.7 1858.3,1071.3 1858.7,1070.8 
	1859,1070.6 1859.2,1070.4 1859.7,1069.6 1859.7,1069.5 1860,1068.8 1860.3,1068 1860.5,1067.6 1860.9,1067.5 1861.1,1067.3 
	1861.2,1067.3 1861.5,1067.3 1861.7,1067.7 1861.9,1067.8 1862,1067.7 1862.3,1067.8 1862.5,1068 1862.6,1068.2 1862.8,1068.1 
	1863,1067.8 1863,1067.8 1863.3,1068.1 1863.5,1068.5 1863.8,1068.9 1864.1,1069.2 1864.8,1069.4 1865.6,1069.2 1866,1068.3 
	1866.7,1069.1 1867.8,1071.2 1868.7,1072.3 1869.3,1072.9 1870,1073.7 1871.6,1073.7 1872.9,1074 1873.9,1073.7 1874.5,1073.7 
	1875.2,1073.3 1876.3,1072 1877.1,1072.3 1878.1,1075.2 1878.9,1076.3 1879.6,1076.1 1880.1,1076.2 1880.8,1076.3 1881.3,1076.4 
	1882.7,1076.9 1884.5,1075.9 1885.1,1075.9 1885.9,1076.7 1887.7,1076.1 1888.3,1075.9 1888.8,1075.9 1889.2,1076.2 1889.8,1076.3 
	1890.8,1076.2 1891.4,1076.3 1892.1,1076.9 1892.5,1076.9 1893.6,1075.9 1894.8,1076.9 1895.1,1076.9 1895.7,1076.4 1896.3,1076.6 
	1896.8,1075.9 1897.7,1076.9 1898.9,1076.9 1899.7,1076.7 1900.1,1076.8 1900.5,1076.9 1901.3,1076.9 1903.4,1077.3 1904.3,1077.1 
	1905,1078 1905.6,1076.9 1906.1,1078 1907.2,1078 1908.4,1075.9 1909.6,1076.9 1911.6,1076.9 1913.7,1076.9 1915.4,1077.2 
	1916.3,1076.9 1917.2,1078 1918.3,1078 1919.4,1077.3 1920,1077.2 1920,1078 1807.1,1078 "/>
<polygon id="elevDay17" class="st0" points="1694.1,1004.4 1694.4,1005 1695.1,1006.4 1695.5,1007.5 1695.7,1007.1 1695.9,1006.7 
	1696,1006.6 1696.2,1006.8 1696.4,1007.1 1696.6,1007.3 1696.9,1007.3 1697.2,1007 1697.5,1006.8 1697.7,1006.5 1698,1006.3 
	1698.2,1006 1698.4,1005.9 1698.5,1005.8 1698.8,1005.8 1699,1005.3 1699.4,1004.5 1699.7,1004.1 1701.7,1003.9 1702,1004.7 
	1702.2,1004.5 1702.6,1004.6 1703.4,1003.4 1703.7,1003.1 1704.3,1001.8 1704.5,1001.9 1704.7,1001.6 1704.9,1001.6 1705.1,1002.1 
	1705.4,1003.3 1705.6,1004.1 1705.8,1004.6 1705.9,1004.4 1706.1,1004 1706.3,1004.1 1706.7,1005 1707.5,1007.2 1707.9,1006.6 
	1708.1,1005.8 1708.3,1006.3 1708.5,1006.8 1709,1008.2 1709.3,1009.1 1709.6,1010.3 1710,1009.5 1710.3,1009 1710.6,1007.4 
	1711.4,1003.3 1712.1,999.9 1712.2,999 1712.5,997.2 1712.7,997 1713,998.2 1715.1,1005.7 1715.7,1007.1 1716.2,1006.7 
	1716.5,1007.2 1716.7,1007.4 1716.8,1007.2 1717.1,1006.4 1717.3,1005.2 1717.4,1004.2 1717.7,1003 1718,1002.6 1718.2,1001.9 
	1718.5,1001.9 1718.8,1002.2 1718.9,1002.4 1719.6,1004.2 1719.8,1005.3 1720.1,1005.2 1720.2,1005.3 1720.5,1006.9 1720.7,1007.4 
	1721,1007.5 1721.6,1008.7 1721.9,1009.8 1722.2,1009.7 1722.5,1008.7 1722.7,1008.5 1722.9,1009.1 1723.1,1010.1 1723.2,1010.9 
	1723.4,1011.2 1723.7,1010.3 1723.9,1009.5 1724.2,1008.8 1724.7,1007.5 1725,1006.6 1725.3,1007 1725.7,1007.3 1725.9,1007.2 
	1726.1,1007 1726.4,1005.2 1726.5,1004.8 1726.6,1004.1 1726.7,1003.9 1726.9,1004 1727.1,1004.9 1727.3,1005.3 1727.4,1005.7 
	1727.5,1005.8 1727.6,1005.8 1727.7,1005.5 1727.8,1005.1 1728.2,1003.4 1728.3,1002.9 1728.5,1002.2 1728.7,1002 1728.9,1002.2 
	1729,1002.1 1729.1,1001.8 1729.2,1001.3 1729.4,1000.6 1729.4,1000.3 1729.5,1000 1729.6,999.8 1729.8,1000.2 1730.2,1000.4 
	1730.6,1000.1 1731,1001.8 1731.4,1004 1731.5,1004.9 1732.3,1006.3 1733.5,1001.6 1733.9,999.9 1734.2,998.2 1734.9,996.8 
	1735.2,996.2 1735.6,995.4 1736.1,995 1737.4,994.4 1737.6,994.5 1738,994.8 1738.3,995.4 1738.6,995.5 1739.4,995.7 1740,995.2 
	1740.1,994.7 1740.5,993.5 1740.8,993.4 1741.2,993.4 1741.6,994 1742,994.7 1742.5,995.1 1743.4,996.3 1743.8,996.7 1744,996.8 
	1744.3,996.9 1744.5,996.1 1744.8,995.5 1745.2,996.3 1745.4,997 1745.7,997.7 1746.1,997.8 1746.3,998 1746.9,1000.6 1747.1,999.9 
	1747.3,999.5 1747.7,1001.2 1748.7,1002 1749.4,1005.5 1749.7,1006.5 1750.1,1006.4 1750.5,1007.2 1750.9,1008.6 1751.4,1011.2 
	1752,1012.6 1752.6,1013 1753.1,1014.4 1754.3,1017.4 1754.8,1018.7 1755.5,1019.4 1756,1018.7 1756.4,1018.2 1756.8,1019 
	1757.1,1019.5 1757.5,1019.9 1757.7,1020.1 1758,1020.5 1758.8,1020.4 1759.2,1021.1 1759.5,1021.9 1759.8,1022.5 1761.1,1024.5 
	1762,1026.2 1762.3,1026.1 1762.6,1026.4 1762.9,1027.3 1763.2,1027.6 1763.4,1027.7 1763.6,1027.6 1764.3,1027.7 1764.7,1027.6 
	1765.1,1027.1 1765.7,1026.7 1766.4,1028.3 1767,1029.2 1767.4,1029.1 1767.7,1028.9 1768.1,1029.5 1768.6,1031.6 1768.9,1033.3 
	1769.2,1034.5 1769.5,1035 1769.7,1035.4 1770,1036.6 1770.1,1037.2 1770.3,1037.9 1770.5,1038.5 1770.8,1038.6 1771.6,1042 
	1772.1,1044.3 1772.5,1045.8 1773.5,1047.4 1774.6,1050 1775.3,1052.1 1776.1,1054 1776.6,1054.6 1777.1,1055.4 1777.7,1056.4 
	1778.1,1056.5 1778.4,1056.3 1778.8,1056 1779.3,1054.5 1779.8,1053 1780.1,1054.1 1780.5,1055.7 1781.2,1057 1781.8,1057.3 
	1782.1,1057.8 1782.5,1058.4 1783.2,1058.5 1784,1058 1784.6,1058.2 1785.1,1058.9 1785.6,1059.5 1787.4,1058.1 1788.1,1058.3 
	1788.2,1058.2 1788.7,1058.9 1789.5,1059 1790,1059.8 1790.5,1060 1790.7,1059.8 1791.8,1059.8 1792.1,1060.2 1793.3,1062.2 
	1793.8,1062.7 1794.2,1063 1794.4,1063 1795,1064.1 1795.8,1064.1 1796.1,1063.7 1796.9,1064 1797.7,1064.3 1798.7,1064.7 
	1799.5,1064.5 1800,1064.5 1800.3,1064.6 1800.7,1064.7 1801.6,1065 1802.5,1065.5 1803.2,1065.7 1803.8,1065.9 1804.1,1066 
	1805.3,1066.2 1805.8,1066.1 1806.5,1065.7 1807.1,1065.6 1807.1,1078 1694.1,1078 "/>
<polygon id="elevDay16" class="st0" points="1581.2,1001.6 1581.2,1001.6 1581.6,1001.8 1582,1002 1582.3,1002.1 1582.6,1002.7 
	1582.8,1003.5 1583.1,1004.1 1583.3,1004.8 1583.5,1005.1 1583.7,1005.5 1584.1,1006.4 1584.5,1007.5 1585,1009 1585.4,1010.6 
	1585.9,1010.8 1586,1010.8 1586.2,1011.2 1586.2,1011.2 1586.5,1011.4 1587.1,1011.9 1587.4,1012.6 1587.6,1013 1587.8,1013.3 
	1588.2,1013.7 1588.4,1013.5 1588.8,1013.3 1589,1013.4 1589.4,1014.7 1589.8,1016.2 1590.3,1017.3 1590.7,1018.5 1591.2,1019.9 
	1591.2,1020 1591.6,1020.9 1592.2,1022.7 1592.6,1023.5 1593.3,1025.9 1593.5,1026.6 1593.7,1026.6 1594,1026.7 1594.2,1027.3 
	1594.5,1027.4 1594.8,1027.1 1595.1,1026.7 1595.3,1026.4 1596,1026.6 1596.5,1027.6 1597,1027.6 1597.1,1027.1 1597.2,1027 
	1597.8,1027 1598.7,1026.6 1599.8,1026.2 1600.5,1026.8 1600.9,1025.5 1601.2,1025.5 1601.7,1026.3 1602.2,1026.1 1602.5,1026.2 
	1602.7,1026.3 1603,1025.9 1603.2,1025.8 1603.7,1026.7 1604,1026.8 1604.6,1026.4 1605.6,1025.3 1607.2,1025.9 1607.9,1026.6 
	1608,1026.6 1608.3,1026.5 1608.6,1026.9 1608.9,1027.5 1609.1,1027.7 1609.4,1027.4 1609.8,1027 1610.3,1026.9 1610.3,1026.9 
	1610.6,1026.6 1610.7,1026.6 1611,1026.3 1611.3,1025.6 1611.3,1025.5 1611.5,1025.1 1611.9,1024.1 1612.3,1023.3 1612.5,1022.9 
	1612.7,1023.4 1612.9,1023.5 1613.2,1024.3 1613.5,1024.3 1613.8,1024.9 1614.1,1023.7 1614.6,1022.3 1615.4,1021 1615.7,1021.9 
	1616.2,1022 1616.5,1021.4 1616.9,1021.1 1617.5,1020.9 1617.9,1021.5 1618.2,1022.5 1618.4,1023.3 1618.7,1023.4 1618.9,1023.3 
	1619.3,1023.5 1619.8,1023.7 1620.2,1023.8 1620.6,1024.2 1621,1024.4 1621.3,1023.3 1621.6,1022.6 1621.8,1022.2 1622,1022.7 
	1622.5,1025.5 1623,1028.4 1623.4,1029.4 1624.5,1031.9 1625.3,1033.2 1625.4,1033.4 1626.1,1034.5 1626.4,1035 1626.8,1035.6 
	1627,1035.5 1627.3,1035.4 1627.8,1035.1 1628.1,1035 1628.4,1034.7 1628.7,1034.1 1629,1033.6 1629.3,1033 1629.6,1032.7 
	1630,1032.3 1630.2,1032.1 1630.4,1031.7 1630.6,1031.2 1630.8,1030.9 1631,1030.3 1631.2,1030.1 1631.4,1029.9 1631.6,1029.5 
	1631.9,1029.2 1632.1,1028.7 1632.3,1028 1632.6,1027.2 1632.9,1026.5 1633.5,1025.7 1633.8,1025.1 1634.1,1024.4 1634.4,1024 
	1634.6,1024.1 1634.9,1024.6 1635.1,1024.1 1635.4,1023.3 1635.6,1022.4 1635.8,1021.6 1636.1,1020.7 1636.5,1019.4 1636.8,1018.7 
	1637.1,1018.1 1637.3,1017.5 1637.6,1016.7 1637.8,1016.3 1638,1016.5 1638.3,1016 1638.6,1015.2 1639,1014.1 1639.3,1013.2 
	1639.4,1012.5 1639.7,1011.8 1639.9,1011.9 1640.3,1011.9 1640.5,1011.9 1640.7,1011.4 1640.9,1010.9 1641,1010.4 1641.3,1009.8 
	1641.6,1009.4 1641.9,1009 1642,1008.7 1642.7,1006.4 1643.1,1005.2 1643.7,1003.7 1644.3,1002.5 1644.3,1002.4 1644.6,1002.2 
	1644.9,1001.9 1645.1,1001.7 1645.5,1000.8 1645.6,1000.6 1645.8,1000.5 1646.1,1000.3 1646.4,1000.1 1646.5,1000 1647,998.9 
	1647.4,997.8 1647.6,997.3 1647.9,997.2 1648,997 1648.3,996.4 1648.7,995.6 1648.9,995.1 1649.1,994.6 1649.3,994 1649.5,993.6 
	1649.8,992.7 1649.9,992.4 1650.1,992.1 1650.2,992 1650.4,991.7 1650.6,991.5 1650.8,991.3 1650.9,991 1651,990.7 1651.2,990.3 
	1651.4,989.9 1651.5,989.5 1651.7,989.3 1651.9,989.1 1652.1,989 1652.3,988.7 1652.9,988 1653.1,987.9 1653.3,987.8 1653.4,987.7 
	1653.6,987.3 1653.8,986.9 1654,986.8 1654.2,986.9 1654.4,986.9 1654.8,986.5 1654.9,986.6 1655.1,986.4 1655.3,986.2 1655.4,986 
	1655.7,985.9 1655.9,985.9 1656.1,985.9 1656.3,985.6 1656.5,985.6 1656.6,985.8 1656.7,986.2 1657,987 1657.2,987.7 1657.4,988.4 
	1657.6,988.8 1657.9,988.9 1658.2,988.8 1658.5,988.4 1658.6,988.2 1658.8,987.9 1658.9,987.8 1659.1,988.4 1659.3,988.9 
	1659.5,989.5 1659.6,989.6 1659.8,989.3 1660.1,989.1 1660.2,988.6 1660.4,988.8 1660.4,988.8 1660.8,989.3 1660.8,989.3 
	1661,989.4 1661.3,989.4 1661.5,989.1 1661.7,990.1 1662.2,990.1 1662.4,989.4 1662.7,989.2 1662.9,989 1663.2,989.1 1663.5,989.1 
	1663.9,988.7 1664.3,988.1 1664.5,987.9 1664.9,987.6 1665,987.5 1665.2,987.4 1665.2,987.4 1665.5,987.5 1665.8,987.7 1666,987.8 
	1666.2,987.8 1666.5,987.8 1666.7,987.7 1666.7,987.7 1666.9,987.9 1667,988.1 1667.4,988.6 1667.6,988.8 1667.8,989.1 
	1667.9,989.5 1668.1,990 1668.2,990.4 1668.4,990.7 1668.5,990.7 1668.7,990.9 1668.9,991.1 1669.1,991.5 1669.5,992.2 
	1669.7,992.6 1670.1,993.1 1670.4,993.5 1670.6,993.9 1670.8,994.4 1670.9,994.5 1671.2,995 1671.8,995.9 1672.3,997.2 
	1672.6,997.7 1672.8,997.8 1673.1,997.3 1673.4,997.1 1673.6,997 1673.8,997.1 1674,997 1674.2,997 1674.3,997 1674.6,997.3 
	1674.8,997.4 1675,997.5 1675.2,997.5 1675.6,997.6 1676.2,998.1 1676.6,998.6 1677.1,999.3 1677.3,999.7 1677.6,1000 1678,1000 
	1678.8,1000.9 1679.2,1000.9 1679.5,1001.9 1679.8,1001.9 1680.1,1001.9 1680.3,1002.3 1680.6,1002.9 1680.8,1003.4 1681.2,1003 
	1681.5,1003 1681.8,1003.5 1682,1003.4 1682.4,1003.8 1682.7,1004 1682.9,1003.9 1683.1,1003.6 1683.3,1003.2 1683.5,1002.9 
	1683.7,1003 1683.9,1003.2 1684.2,1003.4 1684.7,1004.1 1685.8,1004.1 1686.3,1004.2 1686.6,1004.6 1687,1005.7 1687.6,1007.2 
	1687.8,1007.5 1688,1007.7 1688.4,1007.5 1688.8,1007.3 1688.9,1007.4 1689.1,1007.4 1689.3,1007.3 1689.6,1007.6 1689.8,1007.8 
	1690.1,1007.8 1690.4,1007.9 1690.9,1008.3 1691.2,1008.4 1691.2,1008.4 1691.4,1008.1 1691.7,1007.7 1691.9,1007.3 1691.9,1007.2 
	1692.4,1006.5 1692.9,1005.9 1693.3,1005.5 1693.5,1005.2 1693.8,1004.9 1694.1,1004.7 1694.1,1078 1581.2,1078 "/>
<polygon id="elevDay15" class="st0" points="1468.2,897.3 1469.9,893.8 1472.2,887.3 1473.8,882.1 1475.1,878.1 1476.5,874.6 
	1477.8,871.8 1479,870.3 1480.2,871.2 1481,875.4 1482.8,884.6 1485.2,896.2 1486.5,899.7 1488.3,907.5 1489.7,912.5 1495.1,920.1 
	1499.6,925.7 1503.9,918.8 1506.4,921 1509.3,923.2 1510.8,924.7 1513.2,932.2 1515.2,939.1 1516.3,942.3 1517.9,946.1 1521.9,942 
	1528.2,939 1530.6,941.8 1533.2,948.7 1535.5,950.2 1537.5,950.8 1539.1,953.9 1540.4,957.8 1543.3,967.6 1545.2,967.5 
	1547.5,966.1 1549.5,966.8 1554.4,969.9 1559,969.4 1562.7,972.9 1565,979.1 1567.3,986.6 1570,990.2 1571.7,993.7 1573.3,997.6 
	1575.4,1000.1 1576.7,998.8 1578.3,1000.3 1581.2,1002.5 1581.2,1078 1468.2,1078 "/>
<polygon id="elevDay14" class="st0" points="1355.3,898.1 1355.9,898.5 1356.6,898.2 1357.6,897.5 1359.3,896.2 1361.7,890 
	1363.2,885 1364.6,880.3 1365.6,877.8 1367,876.9 1368,877.1 1370.2,884.5 1371.8,890.4 1372.9,892.6 1374.2,893 1375.3,890.4 
	1376,888.8 1376.9,889.3 1378.2,889.5 1378.7,888.3 1379.8,885.6 1381.2,883.4 1382.9,884.1 1385,884.9 1385.9,884.6 1386.6,883.1 
	1387.4,882.2 1389.3,879.1 1390.1,878.3 1390.9,879.6 1391.7,879.8 1392.5,877.9 1393.6,876.5 1394.6,875 1395,874.4 1395.7,873.9 
	1396.8,876.5 1397.2,876.6 1398,875.2 1399.9,871.5 1401,869.3 1402,866.7 1402.9,866.3 1404.1,870.2 1404.7,870.8 1405.9,867.8 
	1406.8,866.5 1408.2,869 1409.1,868.9 1409.9,867.2 1412.6,868.5 1413.8,867.3 1414.6,868 1415.3,868 1416.3,866.4 1417.2,866.9 
	1418.4,867.6 1419.2,868.6 1420.1,872 1420.9,873.2 1421.8,877 1422.6,880.6 1424.4,888.8 1425.4,894.2 1426.5,899.5 1427.5,903.3 
	1428.9,902 1430.1,899.4 1431.2,896.7 1432.7,892.9 1434.9,887.6 1435.7,885.9 1436.7,884.9 1438.2,882.5 1439,880.8 1440.1,880 
	1441,876.6 1442.3,872.1 1443.4,867 1444.7,861.7 1445.9,856.6 1446.6,854.2 1447.9,853.7 1449.6,859.2 1451,862.7 1452.3,867.4 
	1454.2,877.1 1455.5,882.7 1457.1,888.9 1459.1,895.7 1460,896.9 1460.8,898.4 1462.8,900.8 1464.4,902.2 1465.9,904.3 
	1466.9,901.5 1468.2,898.3 1468.2,1078 1355.3,1078 "/>
<polygon id="elevDay13" class="st0" points="1242.4,911.5 1243.7,911.3 1244.5,911.1 1245,911.4 1247.1,910 1247.5,909.7 
	1249.4,908.6 1251.5,907.4 1252.2,906.7 1253.7,906.1 1254.3,905.2 1254.6,905.1 1255.8,903.8 1256.6,903.5 1257.3,903 1258,902.7 
	1258.8,902.2 1259.5,901.7 1259.8,901 1260.1,900.3 1260.4,899.7 1260.9,899.5 1261.5,897.6 1261.7,896.9 1262.2,896.3 
	1262.7,895.4 1263,894.7 1263.5,895.2 1263.7,895 1263.8,894.6 1264,894.1 1264.4,893.4 1265.2,891.2 1265.4,891.1 1265.6,891.4 
	1265.9,892.1 1266.3,892 1266.6,891.1 1266.8,890.6 1267.1,890.3 1267.4,889.8 1268.1,887.4 1268.3,886.9 1268.4,886.4 
	1268.6,886.1 1268.9,885.9 1269.4,884.4 1269.6,883.7 1270,882.5 1270.2,882.3 1270.4,881.5 1270.6,881.1 1270.7,881.2 
	1270.8,881.6 1270.9,881.9 1270.9,881.9 1271.1,881.4 1271.2,880.7 1271.4,880.8 1271.5,880.4 1271.7,879.6 1271.8,879.4 
	1272.1,879.5 1272.5,879.4 1272.9,878.6 1273.2,878 1273.4,878.3 1273.5,878.5 1273.6,878.4 1273.7,878.2 1273.8,877.5 1273.9,877 
	1274,876.2 1274.1,875.7 1274.2,875.3 1274.4,875.3 1274.5,875 1274.6,874.3 1274.8,873.8 1274.9,873.3 1274.9,873.3 1275.1,873.8 
	1275.2,874.4 1275.3,874.4 1276,872.6 1276.4,871.8 1276.6,871.3 1276.9,870.9 1277,870.3 1277.1,870.1 1277,870.1 1277.1,870.1 
	1277.2,869.8 1277.4,869.5 1277.7,869 1278,868.5 1278.2,868.1 1278.5,867.7 1278.7,867.3 1279.1,869 1279.7,871.3 1280.1,871.7 
	1280.2,871.9 1280.6,872.1 1280.9,872.2 1282.6,875.5 1282.8,876.1 1282.9,876.5 1283,876.7 1283.2,876.7 1283.4,876.8 
	1283.6,876.7 1283.8,877.1 1284,877.5 1284.1,877.4 1284.4,877.4 1284.6,877.9 1284.8,878.5 1285,879.3 1285.3,880.2 1285.5,880.8 
	1285.7,881.2 1285.9,881.8 1286.4,883.4 1286.5,883.8 1286.6,884.1 1286.6,884.1 1286.8,883.5 1287.2,885.5 1287.5,885.1 
	1287.7,885.2 1287.9,885.5 1288.1,886.4 1288.2,886.4 1288.5,885.9 1288.6,886 1288.7,886.5 1288.8,886.8 1289,887 1289.3,886.8 
	1289.4,886.8 1289.4,886.9 1289.6,887.1 1289.7,887.1 1289.8,887.1 1290,887.3 1290.2,887.3 1290.5,886.8 1290.6,886.2 
	1290.8,885.5 1290.9,885.1 1291.1,885 1291.3,884.9 1291.7,884.1 1292,883.1 1292.1,882.7 1292.2,883 1292.4,883.3 1292.5,883.5 
	1292.6,883.3 1292.9,882.9 1293,882.5 1293.1,882.4 1293.3,882.3 1293.6,881.8 1294,881.7 1294.2,881.5 1294.5,881.5 1294.7,881.9 
	1294.8,881.9 1295.1,881.6 1295.4,880.6 1295.6,880.1 1295.8,879.8 1296,879.4 1296.2,879.5 1296.4,879.7 1296.7,879.5 
	1296.8,879.1 1297.3,878.2 1297.6,878 1297.8,878.1 1298.2,878.4 1298.5,879 1298.9,879.7 1299.2,880.9 1299.5,882.4 1299.8,883.6 
	1300.1,884.4 1300.5,884.7 1301,887 1301.7,888.7 1302,890.3 1302.2,890.2 1302.3,889.9 1302.4,889.9 1302.5,890.6 1302.7,891.6 
	1302.9,892.1 1303,892.5 1303.2,893 1303.3,893.5 1303.6,893.7 1303.7,893.7 1303.9,893.7 1304,894.8 1304.1,894.8 1304.2,893.6 
	1304.4,893.5 1304.5,893.8 1304.5,894.1 1304.6,894.5 1304.7,894.9 1304.9,895.4 1305.1,895.7 1305.2,895.2 1305.3,894.8 
	1305.6,895.2 1305.8,896.1 1306,896.5 1306.2,896.3 1306.3,896 1306.4,896.3 1306.6,897.8 1306.9,899.2 1307.1,899.5 1307.2,899.9 
	1307.4,900.4 1307.9,902.1 1308.1,903.3 1308.3,904.2 1308.5,905.2 1308.7,905.7 1308.8,906.1 1308.9,906.7 1309,907.1 
	1309.2,906.9 1309.4,905.4 1309.6,904 1309.7,903.7 1309.8,904 1309.9,904.5 1310,905.2 1310.1,905.9 1310.3,906.7 1310.4,907.4 
	1310.6,908.2 1310.8,909.3 1311,910.6 1311.5,914 1312,917.3 1312.7,917.1 1313.2,919 1313.5,920.6 1314,922.8 1314.5,925.4 
	1315.6,924 1316,923.1 1316.7,918.1 1317.1,915.1 1317.6,912.7 1317.9,910.1 1318.2,908.2 1318.6,907.2 1318.9,906.5 1319.7,903.6 
	1320.2,901.7 1320.9,898.7 1321.3,897.1 1321.8,896 1322.9,892 1323.6,890.8 1324,890.4 1324.7,889.5 1325.2,888.6 1325.6,888.1 
	1326,887.5 1326.4,887.8 1326.7,888.4 1327,888.4 1327.3,888.3 1327.7,888 1328,887.8 1328.2,888.1 1328.7,890.2 1329,890.5 
	1329.1,891.4 1329.9,892.8 1330.2,894.3 1330.4,894.8 1330.6,895.3 1330.9,896.3 1331.5,898.2 1331.9,899.2 1332.2,899.4 
	1332.6,899.4 1332.9,899.4 1333.1,900.1 1333.4,901.2 1333.8,902.3 1334,903.4 1334.4,903.4 1334.8,902 1335.2,904 1335.6,905.8 
	1336.3,906.4 1336.8,909.9 1337.2,909.4 1337.8,910.2 1338.1,912.5 1338.4,912.6 1338.8,909.9 1339.2,911.4 1339.6,913.6 
	1339.9,914.6 1340.3,914.9 1340.7,915 1340.7,915 1341.2,915.2 1341.2,915.2 1341.7,915.1 1341.7,915 1341.7,915.1 1341.7,915 
	1341.7,915 1341.7,915.1 1342.4,914.8 1342.6,914.6 1342.7,914.2 1342.9,913.5 1343,913.3 1343.2,913.2 1343.4,913.7 1343.5,913.9 
	1343.6,913.7 1343.7,913.3 1343.9,912.6 1344.1,911.7 1344.3,911.3 1344.4,910.9 1344.4,910.6 1344.5,910.6 1344.7,910.2 
	1344.8,909.7 1344.9,909.6 1345,910.2 1345.1,909.7 1345.3,908.3 1345.5,906.9 1345.6,907.7 1345.6,907.4 1345.8,906.6 
	1345.9,906.1 1346,906.7 1346,907.3 1347.1,904.5 1349.5,889.4 1350.3,887.7 1351,888.6 1351.5,892.9 1351.9,895.9 1352.2,895.9 
	1352.7,894.5 1353.1,893.9 1353.6,894.6 1354.1,894.1 1354.4,893.6 1354.6,894.8 1354.8,895.6 1355.3,896.9 1355.3,1078 
	1242.4,1078 "/>
<polygon id="elevDay12" class="st0" points="1129.4,816.8 1129.5,817 1129.6,817.2 1129.6,817.3 1129.7,817.2 1129.8,817.1 
	1129.9,817.3 1130,817.6 1130.1,817.9 1130.1,818.3 1130.3,818.7 1130.4,819 1130.6,819.3 1130.7,819.3 1130.7,819.3 1130.8,819.5 
	1131,819.7 1131.1,819.8 1131.2,820 1131.3,820.2 1131.4,820.4 1131.6,820.2 1131.7,819.7 1131.9,819.1 1131.9,818.8 1132,818.6 
	1132.2,818.3 1132.4,817.9 1132.5,817.7 1132.6,817.3 1132.7,816.9 1132.8,816.6 1132.9,816.5 1133,816.6 1133.1,816.7 
	1133.2,816.9 1133.3,817.1 1133.4,817.2 1133.5,817.4 1133.6,817.7 1133.7,817.7 1133.8,817.7 1134,818.7 1134.1,817.7 
	1134.3,817.6 1134.4,817.5 1134.5,817.4 1134.5,817.2 1134.6,817.2 1134.8,817.1 1134.9,817 1135,816.7 1135.2,816.4 1135.3,816.2 
	1135.5,815.7 1135.7,815.3 1135.8,815 1136,814.4 1136.1,813.9 1136.2,813.8 1136.3,813.7 1136.5,813.5 1136.6,813.3 1136.8,813 
	1136.8,812.8 1136.9,812.6 1137,812.4 1137.2,812 1137.3,811.8 1137.4,811.5 1137.5,811.2 1137.5,811.2 1137.7,810.8 1137.9,810.6 
	1138.1,810.2 1138.4,809.7 1138.7,809.6 1138.8,809.5 1139,809.4 1139.1,809.2 1139.3,809.3 1139.5,809.4 1139.6,809.6 
	1139.8,809.8 1140,810.2 1140.1,810.5 1140.3,810.9 1140.7,811.4 1141.1,811.8 1141.7,811.6 1142,811.5 1142.1,811.4 1142.2,811.3 
	1142.4,811.2 1142.6,811.1 1143,810.8 1143.2,810.5 1143.4,810.2 1143.7,810.2 1143.8,810.1 1144,810.3 1144.2,810.4 1144.3,810.5 
	1144.6,811.2 1144.8,810.2 1145,810.2 1145,810.1 1145.3,809.7 1145.5,809.3 1145.5,809.2 1145.5,809.2 1145.6,808.9 1145.8,808.8 
	1145.9,808.8 1146.1,808.9 1146.3,809 1146.4,809.1 1146.7,810.2 1147.2,810.2 1147.4,810.1 1147.6,810.2 1147.7,810.3 
	1147.8,810.4 1148,810.4 1148.1,810.3 1148.1,810.2 1148.2,810.1 1148.2,810 1148.3,810.1 1148.4,810.2 1148.4,810.3 1148.6,810.5 
	1148.7,810.7 1148.9,810.8 1148.9,810.9 1149,811.1 1149.2,811.5 1149.4,812.1 1149.5,812.5 1149.6,812.9 1149.7,813 1149.9,812.8 
	1149.9,812.7 1150,812.7 1150.1,812.7 1150.2,812.8 1150.3,813.1 1150.4,813.7 1150.5,814.1 1150.6,814.7 1150.7,815.1 
	1150.8,815.5 1151,815.9 1151.1,816.2 1151.2,816.6 1151.4,817 1151.5,817.2 1151.6,817.5 1151.7,817.6 1151.7,817.8 1152,818.5 
	1152.2,819 1152.4,819.7 1152.5,820 1152.7,820.1 1152.8,820.3 1152.9,820.6 1153.2,821.2 1153.4,821.7 1153.5,821.9 1153.7,822.2 
	1153.9,822.7 1154,823 1154.4,823.7 1154.7,824.4 1154.9,824.9 1155.2,825.3 1155.2,825.4 1155.2,825.4 1155.3,825.7 1155.6,826 
	1155.8,826 1156,826.3 1156.1,826.5 1156.2,827 1156.4,827.6 1156.5,828 1156.6,828.3 1156.7,828.6 1156.8,829 1156.9,829.2 
	1157.1,829.5 1157.3,829.7 1157.5,829.5 1157.6,829.4 1157.7,829.5 1158,829.9 1158.4,829.7 1158.6,829.6 1159,830 1159.6,831.2 
	1159.8,831.9 1160,832.4 1160.3,833.2 1160.3,833.3 1160.6,834 1160.8,834.5 1161,834.8 1161.3,835.3 1161.5,835.8 1161.8,836.4 
	1162.1,836.6 1162.3,836.6 1162.4,836.7 1162.6,837 1162.9,837.3 1163.1,837.7 1163.3,838.3 1163.6,838.7 1163.9,839.1 
	1164.2,839.6 1164.5,840.2 1164.8,840.7 1165,841.2 1165.2,841.5 1165.4,841.9 1165.6,842.2 1165.8,842.4 1165.9,842.6 1166,842.9 
	1166.1,843.2 1166.2,843.5 1166.3,843.7 1166.5,844 1166.6,844.1 1166.8,844.1 1166.9,844.3 1167.1,844.7 1167.3,845.2 
	1167.5,845.6 1167.5,845.6 1167.7,846.3 1168,846.7 1168.4,847.3 1168.5,847.5 1168.7,847.8 1168.9,848.3 1169.1,848.7 
	1169.3,849.1 1169.6,849.6 1170,849.9 1170.3,850.1 1170.6,849.9 1170.8,850.1 1170.9,850.1 1171,849.9 1171.2,849.8 1171.5,850.9 
	1171.8,850.9 1172.2,850.8 1172.4,850.9 1172.8,851.9 1173.2,854.8 1173.4,856 1173.6,856.1 1173.7,856.2 1173.8,856.5 1174,856.8 
	1174.1,857.2 1174.2,857.5 1174.4,857.5 1174.8,857.6 1174.8,857.7 1174.8,857.7 1175.1,858.2 1175.3,858.1 1175.4,858.6 
	1175.5,859.4 1175.6,859.6 1175.6,859.6 1175.7,860.1 1175.7,860.1 1176,860.7 1176.2,861.3 1176.7,861.5 1176.9,861.8 
	1177.1,861.9 1177.4,862.1 1177.7,862.8 1178,863.8 1178,863.8 1178.1,863.6 1178.3,863 1178.4,863 1178.6,863.9 1178.8,864.6 
	1179,865.3 1179.2,866 1179.4,865.8 1179.6,865.5 1179.7,865.5 1179.8,865.9 1179.9,866.5 1180.2,867.1 1180.4,867.6 1180.6,867.7 
	1180.8,867.4 1181,867.4 1181.2,867.6 1181.4,868 1181.5,868.5 1181.6,868.6 1181.8,869.5 1182,870 1182.5,871 1182.9,871.6 
	1183.4,872.3 1183.6,872.8 1183.9,873.3 1184.3,873.6 1184.7,874 1185.2,874.7 1185.7,875.4 1186.2,875.8 1186.5,875.7 1187,876.2 
	1187.5,876.7 1187.8,877.4 1188,877.8 1188,877.8 1188.4,877.8 1188.8,877.6 1189,877.6 1189.3,877.4 1189.5,877.3 1189.9,877.4 
	1190.1,877.2 1190.5,877 1190.8,876.9 1191.3,877.4 1192.2,878.2 1193.4,879.4 1194.6,880.3 1195.3,880.8 1195.9,880.9 
	1196.7,881.3 1197.8,880.9 1199.5,880.9 1199.9,880.6 1200,880.6 1201.1,882 1202.8,882.7 1203.6,882.2 1203.7,881.9 1204,881.7 
	1204.4,880.9 1204.7,880.9 1205.2,881.8 1205.4,881.9 1205.8,881.9 1206.2,881.9 1206.5,882 1206.9,882.3 1207.5,883.4 1208,883.8 
	1208.3,884 1208.6,884.1 1208.9,884.1 1209.1,884 1209.6,884.1 1210,883.9 1210.2,883.8 1210.3,883.8 1210.5,883.4 1210.7,883 
	1210.9,883.2 1211.2,883.9 1211.4,884.1 1211.8,883.9 1212.5,884.1 1212.9,884.3 1213.2,884.3 1213.7,884.1 1214,884.3 
	1214.1,883.4 1214.3,882 1214.4,881.8 1214.6,882.5 1214.8,883.7 1215.1,885.2 1215.3,885 1215.6,883.3 1216,883.9 1216.2,884.2 
	1216.6,884.5 1216.8,884 1217,883.1 1217.2,883.2 1217.4,883.4 1217.6,883.2 1217.8,882.4 1218,881.5 1218.2,881.7 1218.4,882.3 
	1218.6,883.2 1218.8,884.1 1219,884.4 1219.3,884.3 1219.4,884.3 1219.7,886 1220,886.8 1220.1,887 1220.4,887.1 1220.7,887.1 
	1221,887.2 1221.2,888.4 1221.5,889.5 1221.6,890 1221.8,890.7 1221.9,891.1 1222,891.4 1222.2,891.2 1222.3,891.6 1222.5,891.7 
	1222.6,891.6 1222.8,891.8 1223.1,893.2 1223.5,895 1223.8,896.1 1224.1,896.9 1224.3,897 1224.6,897.3 1224.9,898.3 1225.1,898.1 
	1225.4,898.5 1225.7,899.2 1226,899.5 1226.2,899.8 1226.5,901.4 1226.7,902.3 1227,902.2 1227.2,901.4 1227.6,901.6 1228,901.9 
	1228.4,902.2 1228.7,901.8 1229.1,901.6 1229.2,901.7 1229.4,901.9 1229.6,901.7 1229.9,902 1230.3,902.1 1230.6,902.4 
	1230.7,902.3 1230.9,902 1231.1,902.1 1231.4,902.3 1231.6,902.3 1231.8,902.4 1232.1,902.9 1232.4,903.4 1232.7,903.8 1233,903.9 
	1233.6,904.4 1234,904.4 1234.5,905.1 1234.7,905.1 1235.1,904.7 1235.3,905.3 1235.6,906.2 1236.1,907.3 1236.5,908.2 1237,909 
	1237.4,909.7 1238,910.2 1238.5,910.7 1238.9,911.1 1239.2,911.2 1240.4,911.6 1241.6,912.2 1242.4,912.6 1242.4,1078 1129.4,1078 
	"/>
<polygon id="elevDay11" class="st0" points="1016.5,855.1 1017,856.6 1017.6,858.2 1018.1,858.8 1018.9,859.9 1019.4,861.5 
	1020,863.9 1020.6,866.6 1021.1,867.1 1021.8,867.4 1022.2,866.7 1022.7,865.7 1023.1,864.7 1023.6,863.6 1024.1,862.1 1025,862 
	1025.6,862.7 1026.1,862.6 1026.5,861.9 1026.9,861.4 1027.4,861.3 1027.9,861.6 1028.4,861.6 1029.2,860.2 1029.9,858 
	1030.5,857.5 1031.8,857.1 1032.8,856.2 1034.1,856.1 1035.7,858.6 1037.1,857.8 1038.2,857.4 1039.2,856.4 1039.7,854.9 
	1042.4,853.7 1044.1,851.8 1045.2,849.3 1046.1,846.9 1047.6,844.2 1048.8,843.7 1050.2,842.2 1051.5,839.5 1052.3,840.4 
	1053.1,839.4 1055.1,837.8 1056.1,836 1057.3,834.8 1058.4,831.9 1059.4,830 1060.3,830.6 1061.1,828.6 1062.1,827.4 1063,825.3 
	1064.2,820.5 1065.3,816.4 1066.8,809.8 1067.8,805.1 1068.8,801.5 1070.2,801 1071,801.2 1072.1,801.5 1073.1,801 1074,800.4 
	1075.2,798.4 1076.4,795.3 1077.8,792.7 1079.3,790.7 1080.3,790.4 1081.3,788.5 1082.5,784.7 1084.4,781.2 1085.5,778.7 
	1086.3,777.4 1087.5,776.2 1088.4,775.1 1089.3,774 1090,773.7 1090.9,774.2 1091.8,774.8 1093.5,777.9 1094.4,780.1 1095.9,783.6 
	1096.7,784.9 1099.1,788.3 1100.4,788.7 1102.9,788.7 1105,791.4 1106.3,793.4 1108.6,797.2 1109.6,798.3 1110.8,799.8 1111.7,801 
	1112.5,802.4 1113.7,804.4 1114.2,805.1 1114.5,805.4 1114.8,805.7 1115.2,806.3 1115.6,806.8 1116.1,807.7 1116.4,808 
	1116.6,808.3 1116.9,808.7 1117.1,809 1117.4,809 1117.6,809.5 1118,810 1118.3,810.4 1118.6,810.8 1118.9,811 1119.2,811.2 
	1119.5,811.4 1120,811.7 1120.4,811.9 1120.8,812.1 1121.2,812.4 1121.4,812.6 1121.6,812.7 1121.9,812.9 1122.1,813.1 
	1122.3,813.2 1122.5,813.3 1122.7,813.3 1123.1,813.5 1123.2,813.5 1123.4,813.4 1123.5,813.4 1123.6,813.4 1123.8,813.4 
	1123.9,813.5 1124.1,813.7 1124.2,813.8 1124.4,814 1124.5,814.2 1124.7,814.2 1124.9,814.3 1125,814.4 1125.2,814.6 1125.5,814.8 
	1125.7,814.9 1125.9,815 1126,815 1126.3,815.1 1126.4,815.1 1126.6,815.1 1126.9,815.2 1127.1,815.3 1127.2,815.3 1127.5,815.2 
	1127.8,815 1128,815 1128.2,815.1 1128.4,815.3 1128.6,815.4 1128.8,815.4 1129,815.6 1129.3,815.8 1129.4,815.9 1129.4,1078 
	1016.5,1078 "/>
<polygon id="elevDay10" class="st0" points="903.5,949.4 904.1,949.4 904.5,949.5 905.1,949.3 905.8,949.6 906.8,950.5 907.4,950.5 
	908,949.7 909,949.8 909.6,950.5 910.3,950.5 911.6,950.2 912.9,951.4 913.3,951.4 913.6,951.4 915.4,952.2 918,953.8 919.3,954.9 
	922,956.2 923.3,955.8 925.5,954.5 928.3,952.6 928.9,953.2 929.5,954.4 930,954.6 930.8,954.5 931.9,953.5 932.9,952.8 
	933.3,952.7 935,951.2 935.5,950.5 936.4,949.5 937.3,948.2 937.8,947.4 938.3,946.8 938.5,947.1 938.8,947.5 939.1,947.8 
	939.4,948 939.6,947.8 939.9,947.1 940.3,946.3 940.5,946 940.7,946 941,946 941.2,946.4 941.4,946.9 941.5,947.2 941.6,947.2 
	941.9,946.9 942.3,946.1 942.6,945.5 942.8,945.4 943,946.2 943.4,946.3 944.5,945.8 945.1,945.5 945.8,945.3 947.2,944.3 
	948,943.5 948.9,942.4 949.9,941.5 950.5,941 951.3,940.2 951.9,939.8 952.1,939.6 952.9,939.3 953.6,938.9 954.5,938.6 
	955.3,937.8 956.1,936.6 956.8,936.1 957.1,935.7 957.6,935.5 958.7,934.3 959,934 959.3,933.3 959.4,932.8 959.6,932.2 960,930.8 
	960.2,930.3 960.3,930.1 960.6,930.3 960.8,929.6 961.2,929.5 961.4,929.3 961.7,928.7 961.8,928 962.1,927.7 962.5,927.4 
	963.1,927.7 963.2,927.4 963.4,926.9 963.6,926.2 963.8,925.6 964,925.2 964.1,925 964.5,924.9 964.8,924.4 965.1,923.4 
	965.6,921.8 966.1,920.2 966.3,920.2 966.6,919.8 967,919 967.3,918.7 968,917.4 968.3,916.8 968.5,916.8 968.8,916.7 968.9,916.6 
	969.1,916.5 969.2,916.2 969.4,915.7 969.5,915.3 969.8,914.8 969.9,914.2 970.3,913.2 970.7,912.5 970.9,912 971.2,912.1 
	971.4,912 971.7,911.4 971.9,910.9 972,910.5 972.1,910.2 972.2,910.2 972.4,910.4 972.5,910.3 972.8,909.8 973,909.2 973.2,908.7 
	973.3,908.1 973.6,907 973.8,906.6 974,906.4 974.1,906 974.3,905.4 974.5,905.1 974.5,905 974.7,904.6 974.9,904.2 975.1,903.4 
	975.2,903.1 975.3,903.3 975.4,903.5 975.6,903.7 975.7,903.9 975.9,903.7 976,903.3 976.1,902.8 976.2,902.6 976.4,902.5 
	976.5,902.9 976.8,903.5 976.9,903.6 977.1,903.2 977.2,902.9 977.3,902.9 977.4,902.8 977.5,902.6 977.6,902.3 977.7,902 
	977.9,901.7 978,901.7 978.2,901.5 978.6,901.5 978.7,901.3 978.8,901.1 979,900.6 979.2,900 979.5,899 979.7,898.3 980,897.8 
	980.9,896.5 981,896.4 981.4,896.9 981.6,897.2 981.9,896.9 982.1,896.2 982.7,894.1 983.1,892 983.3,890.6 983.5,889.8 984,888.4 
	984.5,887.5 984.7,887.8 985,888.8 985.4,889.5 985.6,889.3 986,888.4 986.3,887.8 986.6,887.1 986.9,886.5 987.2,886 987.3,885.8 
	987.4,885.7 987.7,886.1 987.9,886.2 988.1,886.1 988.2,886.1 988.3,886.1 988.5,886.2 988.3,886.2 988.5,886.1 988.7,885.9 
	988.9,885.6 989,885.3 989.2,885 989.3,884.8 989.3,884.7 989.4,884.6 989.6,884.6 989.7,884.6 989.8,884.3 989.9,883.9 
	990.1,883.8 990.3,884 990.3,884 990.4,883.9 990.9,883.4 991,883.2 991,883 991.3,882.7 991.5,882.6 991.6,882.5 991.7,882.3 
	991.8,882.1 991.9,881.8 992.1,881.5 992.3,881.1 992.4,880.9 992.6,880.6 992.7,880.3 992.8,880 992.9,879.7 993.1,879.2 
	993.6,878.3 993.8,878.2 993.9,878.2 994,878.1 994.2,878.1 994.3,878 994.5,877.8 994.7,877.5 995.3,877.2 995.4,877.1 
	995.5,877.2 995.5,877.2 995.7,877.2 995.9,877.3 996,877.4 996.1,877.4 996.2,877.5 996.4,877.5 996.4,877.6 996.6,877.6 
	996.8,877.7 996.9,877.8 997,877.8 997.1,877.9 997.2,877.8 997.3,877.8 997.4,877.7 997.6,877.6 997.7,877.6 997.9,877.7 
	998.2,878.3 998.4,878.6 998.6,879 998.8,879.5 999,879.8 998.8,879.8 999,879.6 999.2,879.3 999.5,878.9 999.7,878.7 1000.1,877.7 
	1001.2,875.1 1001.8,872.3 1002.4,869.8 1002.9,868.2 1003.2,867.8 1003.5,867.3 1003.8,866.9 1003.8,868 1004,868 1004.3,867.7 
	1004.5,867.5 1004.7,867.4 1004.9,867.2 1005.1,867 1005.2,866.9 1005.3,866.6 1005.4,866.5 1005.7,866.3 1005.8,866.3 
	1005.9,866.2 1006,865.9 1006.2,865.5 1006.4,865.1 1006.6,865.2 1006.8,865.3 1007,865.1 1007.1,864.8 1007.3,864.5 1007.4,864.4 
	1007.7,864.2 1007.9,864 1008.2,863.8 1008.4,863.5 1009,863 1009.3,862.9 1009.4,862.8 1009.7,862.5 1010.2,861.9 1010.5,861.6 
	1010.6,861.3 1010.8,861 1011,860.6 1011.3,860 1012,859.1 1012.2,858.9 1012.6,858.4 1012.8,858 1013,857.7 1013.2,857.4 
	1013.3,857.1 1013.4,856.7 1013.6,856.3 1013.9,855.6 1014.1,855.5 1014.3,855.6 1014.4,855.8 1014.7,855 1014.9,854.6 1015.2,854 
	1015.4,853.5 1015.7,853.8 1016,854.3 1016.5,856 1016.5,1078 903.5,1078 "/>
<polygon id="elevDay9" class="st0" points="790.6,999.2 791.3,999.3 792.3,998.5 793.9,996.4 795.5,994.5 797.4,992.9 799.3,992 
	800.2,991.1 800.4,990.9 800.6,991 801.1,990.7 803.2,988 804.2,987.3 804.3,987.1 804.4,986.9 804.6,986.5 806,984.4 807.2,983.3 
	807.5,982.8 807.9,982.4 808.3,981.9 808.5,981.7 808.6,981.6 809.4,980.5 809.8,979.7 810.1,979 810.3,978.6 810.4,978.2 
	810.6,977.4 811,976.5 811.3,975.6 811.7,974.9 812.1,972.7 812.3,972.6 812.5,972.8 812.7,972.2 813.1,971.6 813.6,975.4 
	813.7,975.3 813.9,974.8 814.2,974 814.6,972.7 815,972.1 815.3,971.9 815.7,971.9 816.2,972.3 816.5,973 817,973 817.5,971.9 
	817.6,971.9 817.7,972 818,972.1 818.2,972 818.5,972.2 818.6,972.4 818.6,972.4 818.7,972.2 819.1,971.4 819.7,970.9 820.6,969.2 
	821.2,968.4 821.5,967.9 821.5,967.9 821.8,967.9 822,968 822.5,967.5 823,966.5 823.1,966.3 824.4,963.9 824.6,963.6 824.7,963.1 
	824.9,962.3 825.4,961 826,959.7 826.3,959.1 826.4,959 826.7,958.6 826.8,958.2 827.1,957.1 827.3,956.4 827.7,954.6 828.1,952.5 
	828.5,951.9 828.6,951.7 828.6,951.6 828.7,951.6 829,952.3 829.1,952.3 829.5,950.7 829.7,950.1 829.8,949.8 829.9,949.9 
	830,949.9 830.5,949.7 830.8,949.5 830.9,949.4 831.1,949 831.4,948.4 831.7,947.8 831.8,947.5 832.2,946.9 832.6,946.1 
	832.8,945.8 832.9,945.6 833.1,945.2 833.3,944.7 833.4,944.4 833.5,944.1 833.5,943.9 833.6,943.8 833.6,943.8 833.7,943.9 
	833.8,943.8 834,943.1 834.4,942.7 834.4,942.6 834.5,942.5 834.9,941.9 835.2,941.2 835.3,940.4 835.4,940 835.6,939.4 835.6,939 
	835.7,938.7 835.9,938.7 836,938.6 836.3,938.1 836.4,937.8 836.6,937.1 836.7,936.5 836.8,936.3 836.9,936.1 837,936.2 
	837.1,936.3 837.2,936.6 837.3,936.6 837.4,936.4 837.5,936.3 837.8,935.9 838.1,934.7 838.3,934.6 838.5,933.5 838.6,933.6 
	839,932.3 839.3,930.9 839.6,930 839.7,930.2 840,930.9 840.1,931.2 840.4,931.2 840.6,931.2 840.7,931.4 840.8,932.7 841,933.9 
	841.6,936.4 841.6,936.5 841.7,936.2 841.9,936.4 842,936.5 842.3,936.2 842.6,935.6 842.9,935.8 843,935.9 843.1,936.2 
	843.2,936.6 843.6,937.7 843.8,938.4 843.9,939 844.1,939.2 844.4,938.9 844.5,939.1 844.6,939.5 844.8,939.6 844.9,939.6 
	845,939.6 845.1,939.5 845.5,938.5 845.6,938 845.7,937.6 845.9,936.5 846.1,936.1 846.3,935.8 846.5,935.7 846.6,935.4 
	846.7,935.1 846.8,934.6 846.9,933.7 847,933.1 847.2,932.7 847.3,932.6 847.5,932.4 847.6,932.1 847.7,931.8 847.7,931.5 
	847.8,930.9 847.9,930.3 848,930.1 848.2,929.8 848.2,929.7 848.4,929.2 848.5,929.1 848.6,929.1 848.7,929.1 848.8,929.1 
	848.9,928.7 849,928.3 849.1,928.2 849.4,928.7 849.5,928.7 849.6,928.4 849.7,928 849.8,927.7 849.9,927.3 850,927.1 850,926.9 
	850.1,926.6 850.3,926.3 850.4,926 850.5,925.6 850.6,925.1 850.7,924.7 850.7,924.6 850.8,924.2 850.9,923.9 850.9,923.7 
	851,923.5 851.3,922.5 851.4,922.2 851.5,922.1 851.6,922 851.7,921.6 852,920.4 852.1,920.1 852.4,919.6 852.5,919 852.7,918.4 
	852.8,917.8 853,917.1 853.1,916.8 853.4,916.3 853.5,915.9 853.6,915.2 853.7,914.5 853.8,914.1 854.1,914.1 854.3,915.1 
	854.6,915.2 854.7,914.9 854.8,914.2 854.9,912.7 855.1,912.1 855.3,911.2 855.5,910.7 855.8,910.2 856,909.9 856.2,909.3 
	856.3,908.9 856.4,908.3 856.6,908.4 856.9,909.1 857,909.3 857.2,909.3 857.3,909.2 857.4,909 857.5,908.2 857.7,907.2 
	857.8,907.1 858,906.7 858.2,906.6 858.4,906.3 858.6,906.2 859.5,905.5 859.5,905.4 859.6,905.3 859.7,905.3 859.9,905.3 
	860,905.4 860.1,905.7 860.2,905.9 860.3,905.9 860.6,905.6 860.8,905.5 860.9,905.5 861.2,905.6 861.3,905.6 861.4,906 
	861.6,906.5 861.7,906.9 861.9,907.2 862.1,907.5 862.2,908.1 862.4,908.6 862.7,909.5 862.9,910.2 863,910.4 863.2,910.8 
	863.3,911.1 863.3,911.3 863.6,911.6 863.6,911.7 863.8,911.4 863.9,911.4 864.2,910.7 864.4,910.6 864.6,911.5 864.7,912 
	864.8,912.6 865,913.4 865.1,914.2 865.2,914.7 865.3,914.6 865.6,914.1 865.7,914.1 865.8,914.4 865.8,914.8 866,915.6 
	866.1,916.2 866.3,916.8 866.5,917.3 866.6,917.5 866.7,918.1 867,919.6 867.2,920.1 867.3,920.4 867.4,920.5 867.5,920.6 
	867.6,920.9 867.7,921.3 867.8,921.6 868,921.6 868.1,921.3 868.4,921.5 868.6,921.3 868.7,920.8 868.9,920.4 869.1,920.9 
	869.2,921.3 869.3,921.7 869.6,922.6 869.8,922.8 869.9,923.1 870.1,923.5 870.2,923.7 870.3,924.2 870.5,925 870.6,925.4 
	870.6,925.7 870.7,926 870.9,925.7 871.1,925.7 871.2,925.9 871.4,926.5 871.5,927 871.5,927.2 871.6,927.1 871.7,926.6 
	871.8,926.1 871.9,925.7 872.1,925.6 872.2,925.1 872.3,924.8 872.3,925.1 872.4,925.9 872.5,926.6 872.7,927.5 872.8,927.8 
	873,927.8 873.1,927.7 873.2,927.9 873.2,928.1 873.2,928.5 873.3,928.7 873.6,928.7 873.9,929.4 874.1,929.8 874.2,930 
	874.4,930.8 874.8,932.5 875,934.1 875.2,935 875.5,935.7 875.6,935.2 875.7,934.9 875.9,935.2 876,935.5 876.1,935.3 876.2,935.5 
	876.3,935.7 876.4,936.2 876.5,936.8 876.6,937.2 876.8,937 876.9,937 877,937.6 877.1,937.9 877.1,938 877.2,938.1 877.7,938.8 
	877.8,938.8 878,938.7 878.3,939 878.4,939.3 878.6,939.6 878.7,940 878.8,940.4 878.9,940.6 879.1,940.9 879.3,941 879.4,941.3 
	879.7,941.7 879.9,942 880,942.2 880.1,942.4 880.3,942.6 880.4,942.8 880.5,942.9 880.6,943 880.7,943.3 881,943.6 881.1,943.8 
	881.3,944 881.5,944.2 882.1,944.6 882.1,944.7 882.3,944.8 882.5,945 882.9,945.2 883.5,945.9 884.4,947.1 884.7,947.3 
	884.8,947.3 885.2,948.4 885.3,948.4 885.4,947.4 885.5,947.5 885.9,948.1 886.1,948.3 886.1,948.3 886.2,948.3 886.2,948.2 
	886.7,947.9 886.9,946.3 887.2,945 887.3,944.8 887.6,945.1 887.8,945.3 888.2,946.3 888.7,947.1 888.9,947.5 889.1,947.8 
	889.2,947.3 889.4,947.3 889.8,947.8 890.1,947 890.4,946.1 890.6,946 891.2,946.5 891.7,947.2 892,947.5 892.3,948.4 892.5,948.4 
	893.8,948.2 894.2,948.7 894.4,948.4 894.8,947.3 895,946.2 895.5,946.2 895.9,946.6 896.4,946.4 896.8,946.9 897,947 897.5,947.5 
	897.9,947.5 898.7,947.2 899.8,947.4 900.3,948.6 900.5,948.6 900.8,948.4 901,948.2 901.5,947 902,947.2 902.2,947.5 902.4,947.7 
	902.7,948 903.1,948.3 903.5,948.5 903.5,1078 790.6,1078 "/>
<polygon id="elevDay8" class="st0" points="677.6,1012.6 678.3,1013.7 678.9,1012.6 679.1,1012.6 679.5,1013.7 680.1,1012.6 
	680.8,1013.7 681,1013.7 681.5,1013.1 681.9,1013.7 682.8,1013.7 683.4,1014.1 684,1014.2 684.6,1014.4 684.9,1014.7 685.2,1014.9 
	685.4,1014.9 685.9,1015 687,1014.8 687.5,1014.8 688,1015.1 688.6,1015.4 689.1,1015.9 691.1,1015.9 691.3,1015.5 691.6,1015.5 
	691.8,1015.3 692.1,1015.3 692.4,1015.5 692.7,1015.6 693.1,1015.8 693.5,1016 693.8,1015.9 694.1,1015.9 694.4,1016 694.7,1016.1 
	695.7,1016.3 696,1016.9 696.5,1016.9 696.8,1016.1 697.2,1015.9 697.4,1016.9 697.6,1016.9 697.8,1016.2 697.9,1016.1 
	700.5,1015.6 701.7,1014.7 702.8,1014.8 704,1015.9 704.6,1015.9 706.4,1015.9 706.7,1015.8 707.4,1015.7 708.3,1015.4 
	709.2,1015.8 709.6,1015.8 711.6,1015.4 711.7,1015.4 711.9,1015.3 715.5,1014.6 716.3,1014.4 716.6,1014.8 717.1,1014.8 
	718.1,1014.4 718.7,1014.2 719.3,1014 725.1,1011.6 725.3,1011.5 725.4,1011.4 728.4,1010.6 729.1,1010.4 729.5,1010.3 
	729.6,1010.2 729.7,1010.3 731.6,1011.4 731.8,1010.5 738.7,1011.6 738.9,1011.6 739.1,1011.6 740.1,1011.5 740.3,1011.4 
	740.4,1011.3 741,1010.9 741.1,1010.8 741.2,1010.7 741.4,1010.6 741.7,1010.7 741.7,1010.7 741.8,1010.3 741.9,1009.7 742.1,1009 
	742.3,1008.7 742.4,1008.5 742.6,1007.7 742.8,1007.2 742.9,1007.3 743.1,1007.7 743.2,1007.9 743.4,1008.1 743.9,1006.5 
	744.3,1006 744.4,1005 744.6,1003.2 744.8,1001.5 745,1000.5 745.1,1000.9 745.3,1002.9 745.4,1003.9 745.5,1004.9 745.5,1005.5 
	745.8,1004.1 746,1004.7 746.2,1003.7 746.5,1002.2 746.7,1002.7 746.9,1003.9 747.1,1005.1 747.3,1005.6 747.6,1005.2 
	747.8,1004.9 748,1005.5 748.4,1006.2 748.8,1006.2 749,1005.9 749.3,1005 749.4,1004.5 749.7,1001.5 749.9,1000 749.9,999.7 
	750.1,1000.8 750.3,1002.1 750.5,1003.1 750.6,1003 751,1003.5 751.2,1002.8 751.4,1003.6 751.6,1003.9 751.9,1005.2 752,1004.6 
	752.2,1003.9 752.3,1004.4 753.1,1007.3 753.3,1007.8 753.5,1007.8 753.6,1008.1 753.8,1008.3 754.3,1009.2 754.4,1009.6 
	754.6,1009.9 754.7,1010.1 754.7,1010.2 754.9,1010.1 755,1010.1 755.1,1010.2 755.4,1010.1 755.5,1009.6 755.8,1009.5 
	756.2,1009.9 756.4,1009.9 756.7,1008.9 756.8,1008.8 757.1,1009 757.4,1008.8 757.6,1009.2 758.2,1010 758.8,1010.2 759.6,1010 
	759.8,1010 760.3,1009.9 760.6,1009.8 761.6,1009.4 761.7,1009 762.1,1008.4 762.5,1008.2 762.8,1008.3 763.1,1009.2 763.5,1009.8 
	763.8,1009.9 764.2,1009.9 764.5,1009.8 764.6,1009.7 764.9,1009.6 765.8,1009.5 766.5,1009.4 767.4,1008.9 768.4,1008.7 
	768.7,1008.6 768.9,1008.4 772.2,1007 772.6,1007.5 772.9,1007.6 773.5,1007.2 773.9,1007 774.2,1007 774.7,1006.2 775,1005.9 
	775.1,1005.8 775.4,1005.4 775.8,1005 776.2,1004.6 776.3,1004.4 776.4,1004.3 776.5,1004.3 776.7,1004.5 776.7,1004.5 
	776.8,1004.5 776.8,1004.5 777.1,1004.7 777.1,1004.7 777.3,1004.6 777.4,1004.5 777.6,1004.2 777.9,1003.7 778,1003.3 
	778.1,1003.4 778.2,1003.5 778.2,1003.4 778.4,1002.7 778.5,1002.9 778.6,1003.2 778.7,1003.3 778.8,1003 779.1,1002.5 
	779.2,1002.5 779.3,1002.6 779.4,1003 779.4,1003.2 779.5,1003 779.6,1002.7 779.7,1002.6 780,1002.3 780.2,1002.1 780.3,1001.8 
	780.7,1001 780.8,1000.9 780.9,1001.3 781,1001.3 781.2,1001.9 781.2,1001.9 781.4,1002.6 781.6,1003 781.7,1003 782,1002.9 
	782.3,1003 782.3,1002.9 782.4,1002.9 782.4,1003 782.5,1003 782.6,1002.9 782.7,1003 782.8,1002.7 782.9,1002.6 783.1,1002.6 
	783.3,1002.3 783.8,1001.6 784.3,1000.3 784.6,999.7 784.8,999.2 785.2,999 785.4,998.6 785.6,997.7 785.7,997.8 785.9,998.5 
	786.1,998.9 786.2,998.6 786.2,998.5 786.3,998.7 786.4,999.3 786.5,999.5 786.8,999.6 787.1,1000.4 787.1,1000.3 787.6,999.1 
	787.6,998.9 787.7,998.7 787.8,998.7 787.9,999 788.1,999.7 788.2,1000 788.3,1000.1 788.5,1000.3 788.7,1000.9 789.1,1000.8 
	789.4,1000.9 789.5,1001 789.7,1000.9 789.8,1000.7 789.8,1000.7 789.9,1000.8 790,1001 790.1,1001 790.6,1000.6 790.6,1078 
	677.6,1078 "/>
<polygon id="elevDay7" class="st0" points="564.7,979.9 565.6,978.8 566,978 566.5,978.2 567.4,977.3 567.8,976.7 568,976.3 
	568.4,975.3 568.8,974.4 569.1,974.2 569.3,974.1 569.6,973.5 570.1,972.1 570.3,970.8 570.7,970 571.1,969.4 571.3,967.4 
	571.5,966.1 572.1,967 572.8,967.8 573.6,966.3 574.4,965.6 575.1,965.7 575.4,965.7 575.5,965.2 575.6,964.8 576.1,964.2 
	576.4,963.7 576.5,963.3 576.7,962.3 576.8,962.3 576.9,962.2 577,961.8 577.2,961.3 577.5,961.2 577.9,961.4 578,961.4 
	578.2,961.3 578.4,960.9 578.9,960.3 578.9,960.2 579,960.1 579.3,959.6 579.4,959.4 579.5,959.3 579.7,959 579.9,958.8 580,958.6 
	580.1,958.3 580.5,957.7 581,957 581.1,956.7 581.3,956.4 581.5,955.9 581.9,955.4 582.1,955 582.5,954.8 582.7,954.9 582.9,954.7 
	583,954.3 583.2,953.5 583.4,952.8 583.5,952.8 583.7,953.1 584,953.8 584.2,954.1 584.4,954.3 584.6,954.1 584.8,953.8 
	584.9,953.7 584.9,953.7 585.1,953.8 585.4,953.2 585.7,952.5 585.8,952.2 585.9,951.9 586.1,951.8 586.1,951.7 586.3,951.5 
	586.4,951.4 586.5,951.3 586.7,951.1 586.9,950.8 587.2,950.6 587.3,950.5 587.4,950.3 587.6,950.1 587.7,949.9 587.9,949.7 
	588,949.5 588.2,949.3 588.4,949.1 588.6,948.9 588.7,948.8 588.8,948.6 588.9,948.7 589.1,948.8 589.2,949 589.4,949.1 
	589.5,948.9 589.7,948.8 589.9,948.7 590.1,948.5 590.4,948.4 590.5,948.4 590.6,948.4 590.8,949.4 590.9,949.4 591.1,948.4 
	591.4,948.4 591.6,948.4 591.9,948.3 592.1,948.1 592.3,948 592.6,947.8 592.8,947.8 593,948.4 593.4,948.4 593.6,947.8 
	593.7,947.8 593.9,948 593.9,948 594.5,948.2 594.7,948.3 594.9,948.4 595.1,948.7 595.4,948.9 595.5,948.7 595.8,948.8 
	596.2,949.2 597.2,950.9 597.4,951.2 597.8,951.4 598,951.6 598.6,951.6 599,951.7 599.3,952 599.4,952.2 599.6,952.5 599.7,952.6 
	599.9,952.8 600,952.8 600.1,952.9 600.2,953 600.3,953.1 600.5,953.3 600.6,953.4 600.8,953.4 601.1,953.5 601.3,953.5 
	601.5,953.6 601.8,953.8 602.8,954.1 603,954.3 603.3,954.7 603.5,955 603.6,955.2 603.8,955.5 603.9,955.7 604.1,956.3 
	604.4,957.1 604.7,957.3 605.1,957.4 605.3,957.1 605.6,957.5 606,959.5 606.2,960.2 606.4,960.5 606.5,960.1 606.7,959.2 
	606.8,958.5 607,958.1 607.3,959.2 607.7,959.4 608,960.4 608.3,960.9 608.5,961.3 608.7,961.7 608.8,962.3 608.9,963.1 
	609.1,964.1 609.2,964.5 609.4,964.8 609.7,964.8 609.8,964.9 610,965.2 610.2,965.5 610.3,965.7 610.7,965.9 611,966.1 
	611.1,966.2 611.3,966.4 611.5,966.7 612.4,968.4 612.6,968.6 612.7,968.7 612.9,968.7 613.2,968.7 613.4,969.1 613.6,969.4 
	613.7,969.6 614,968.7 614.3,969.8 614.6,968.7 614.9,969.8 615.2,969.8 615.4,969.8 615.6,970 615.8,970.1 615.9,970.2 
	616.1,970.3 616.6,970.5 617.1,970.9 617.2,971.1 617.3,971.2 617.6,971.4 617.7,971.5 617.8,971.6 618.2,972 618.4,972.2 
	618.7,972.4 619.1,973 619.3,973.2 619.6,973.5 619.8,973.5 619.9,973.8 620.1,974.2 620.2,974.3 620.4,974.4 620.7,974.6 
	620.9,974.4 621,974.4 621.3,974.8 621.6,975.5 621.9,976.2 622.2,976.8 622.5,977.2 622.7,977.3 622.8,977.3 622.9,977.2 
	623,977.5 623.1,978 623.6,978.7 624,978 624.5,977.7 624.8,977.9 625.3,977.3 625.7,977.3 626,978 626.4,977.8 626.9,978.4 
	627.1,978.4 627.4,978.4 627.5,978.6 627.7,979.3 627.9,979.8 628.2,980.6 628.4,980.7 628.5,980.6 628.9,979.9 629.1,979.7 
	629.5,979.5 629.8,979.7 630,979.9 630.5,979.5 630.9,979.5 631.6,980.1 632.1,980.5 632.6,980.5 633.1,980.9 633.3,981.1 
	633.6,981.7 634.2,982 634.5,982.3 634.8,982.6 635,983 635.3,983.5 635.7,983.2 635.8,983.2 636.1,983.2 636.4,983.1 636.9,983.4 
	637.1,983.4 637.3,983.3 637.6,983 637.8,983.1 638,983.2 638.4,983.5 638.8,984.3 639,984.9 639.1,984.6 639.3,984.4 639.5,984.5 
	639.7,985.5 639.9,986.1 640.2,987.1 640.4,987.9 640.6,988.5 640.8,988.8 641,989.4 641.2,989.7 641.4,990 641.5,990.4 
	641.8,991.2 642,991.4 642.2,991.7 642.4,992.4 642.6,993 642.9,993.3 643.2,993.5 643.5,994 643.6,994.3 643.8,994.2 644.1,994.6 
	644.6,995.7 644.8,996.4 645,996.6 645.2,996.2 645.4,996 645.6,996.1 645.8,996.3 646,996.7 646.3,997.3 647.7,999.8 648,1000.2 
	648.3,1000.5 649.4,1000.7 649.9,1001.3 650,1001.4 651,1001.9 651.1,1001.9 651.3,1002.1 651.4,1002.3 652.1,1002.5 652.5,1002.9 
	652.7,1003.1 653,1003 653.2,1002.6 653.4,1002.5 653.7,1002.6 654.8,1002.9 655.2,1002.9 655.4,1002.7 655.9,1002.5 656.3,1002.7 
	656.9,1003.5 657.1,1003.8 657.6,1004.7 657.7,1005.1 657.9,1005.1 658,1004.9 658.3,1004.9 658.6,1005.2 659,1006.1 659.3,1006.7 
	659.7,1007.3 659.9,1008.4 660.1,1008.4 660.4,1007.5 660.7,1007.3 660.9,1007.6 661.2,1008.1 661.7,1009.1 661.9,1009.4 
	662.3,1009.8 662.6,1010.3 664.7,1012 665.5,1011.6 665.9,1012.6 666.3,1011.6 666.9,1012.6 667.7,1011.6 669.7,1011.6 
	670.1,1011.6 670.3,1011.5 672.5,1010.9 672.8,1010.9 673.2,1010.8 673.9,1010.6 674.3,1010.4 675.2,1010.1 675.8,1009.8 
	676.5,1009.4 677,1008.9 677.3,1008.8 677.6,1009.2 677.6,1078 564.7,1078 "/>
<polygon id="elevDay6" class="st0" points="451.8,1026.3 453.6,1023.4 454.8,1023.4 456.3,1022.4 456.8,1021.8 458.1,1019.6 
	459.3,1019.2 460.1,1020.2 461.4,1017 463.9,1013.1 465.3,1012.5 466.2,1011.4 467.4,1009.3 468.2,1007.1 468.8,1007.2 
	469.2,1007.5 470.2,1006.2 471,1005.1 471.6,1005.2 472.2,1004.6 472.9,1004 473.4,1003.6 474.3,1003.9 475.1,1003.4 476.1,1002.1 
	477.3,1000.8 478.5,1000.5 479.4,1001.2 480.6,1000.1 481.5,1000 482.5,1002.7 484.3,1001.4 485.2,1002.5 486,1004.2 487.5,1005.3 
	487.7,1005.7 488.1,1005.5 488.8,1003.9 489,1004 489.4,1004.7 490.4,1006.7 490.7,1007.7 491.1,1006.8 491.4,1007.4 491.7,1007.8 
	492,1007.5 492.3,1007.9 492.8,1008.7 493.4,1009.5 494,1011.1 494.3,1012 495,1013 495.3,1013.3 495.7,1013.1 495.9,1013.5 
	496.4,1013.4 497.2,1013.5 497.8,1013.8 499.4,1014.4 501.4,1013.7 501.9,1013.7 502.4,1013.5 503.7,1012.2 504.6,1011.4 
	505.4,1010 506.4,1008.9 507.2,1008.5 507.9,1008 508.2,1007.7 509,1006.6 510.2,1005.2 510.5,1005.1 510.9,1005.2 511.5,1005.4 
	512,1005.4 512.5,1004.9 513.3,1003.7 513.7,1003 513.9,1002.6 514.6,1001.8 515.2,1000.6 516.1,999.5 516.8,998.7 517.1,998.7 
	517.3,999.3 517.5,999.4 517.7,998.8 518,999.8 518.2,997.6 518.5,998.7 519,998.7 519.4,998.3 519.9,997.6 520.7,996.8 521,996.2 
	521.4,996.1 521.7,995.8 521.9,995.5 522.6,995.5 523.1,995.5 523.8,994.4 524.1,993.9 524.5,993.3 524.7,993.1 525.3,992.3 
	525.5,992.1 525.6,991.9 525.8,991.5 526,991.1 526.2,990.8 526.6,990 526.8,989.4 527,989.3 527.3,989.4 527.5,989.1 527.7,988.7 
	528.8,987.6 529.2,987.8 529.7,988 530,988.3 530.5,989.4 531.2,991 532.9,989.5 534.1,991.3 534.8,991.6 535.6,989.4 536.1,989.7 
	536.6,990.1 537.9,990.1 538.3,990.1 538.8,988.8 540.3,990 542.5,989.3 543.3,991 545,987.8 545.5,988.8 546.1,988.7 546.6,986.9 
	547.9,986.9 548.5,986.9 548.9,987.9 549.1,988.3 549.5,988.1 549.7,988 550,987.9 550.4,987.8 550.8,988 550.9,987.9 551.2,987.5 
	552,986.3 552.3,985.9 552.5,985.4 552.9,984.7 553.5,984.4 553.8,984.2 554,984 554.1,983.8 554.3,983.7 554.5,983.7 554.7,983.5 
	554.9,983.3 555.9,982.8 556.4,983.1 556.7,983.3 557.1,982.6 557.6,982.6 558.2,982.9 558.9,982.5 559.4,982.2 560.8,981.6 
	561,981.6 561.1,981.8 561.3,981.6 561.6,981.3 562.2,981.2 563.7,980.5 564.7,979.4 564.7,979.4 564.7,1078 451.8,1078 "/>
<polygon id="elevDay5" class="st0" points="338.8,994.6 340.8,994.2 342.9,990.1 344.8,990.1 347.2,992 349.2,993.2 350.3,993.4 
	351.4,993.9 353.2,994.6 355.3,994.4 356.1,995.5 357.4,995.4 358.7,994.3 360.6,993.4 362.2,990.4 363.4,988.3 365.5,983.4 
	366.4,982.7 368.1,985.1 369,987.3 370.5,988.6 371.3,988.1 372.9,986.5 374.2,983.8 375.9,985.7 376.5,986.3 377.1,985.2 
	378.4,985.5 379.1,985.7 379.8,984.7 380.7,983.3 381.4,982.5 383,979.3 384.5,977.7 385.5,975.6 386.8,973.9 387.8,972.4 
	388.8,969.8 390.4,965.2 391.1,962.5 392,960.3 392.2,960.1 393.1,959.4 394.1,957.3 395.3,954.9 396.2,953.3 397.6,951.4 
	399.2,951.8 400.1,952.6 401.2,952.6 403.7,950.6 404.3,951.3 404.8,951.6 405.6,951.3 407.2,951.6 408.4,952.1 408.9,952.6 
	410.2,954.6 411.7,956.8 412.9,957.6 413.7,958.9 414.4,959.8 414.8,960.2 415.8,961.7 416.3,962.2 417.2,962.7 417.9,964 
	419,966.1 420.1,968.2 421.4,971.2 422.6,974.8 424.2,979.7 425.3,983.6 426.2,986.6 427.9,990.5 429.9,995.9 431.5,999.1 
	432.3,1000.6 433.1,1002 434,1003.3 434.7,1003.5 435.5,1004.3 436.2,1005.1 436.5,1005.7 437.1,1006.6 438.5,1010.7 439.3,1011.3 
	440.7,1015.5 441.7,1018.7 442.8,1022.2 443.6,1023.8 444,1024.7 444.4,1025.3 445,1026.3 445.4,1027.1 446.8,1027.6 448.2,1027.5 
	451.8,1025.2 451.8,1078 338.8,1078 "/>
<polygon id="elevDay4" class="st0" points="338.8,994.4 337.8,992.5 336.8,990.2 335.9,988.5 335.1,987.4 333.9,985.6 332.7,984 
	331.9,982.3 331.1,982.9 328.9,983.3 327.8,982.3 326.7,982.1 325.9,981.3 324,982.3 322.8,984.6 320.5,987.7 319.2,988.9 
	316.3,992.1 314.8,992.7 313.1,993.2 310.8,995.8 310.1,996.7 308.6,998.1 306.7,997.6 305.1,995.3 303.7,994.1 302,995.2 
	301.5,995.7 300.2,996.5 299.8,996.4 298.4,996 297.7,996.6 296,997.2 295.7,997 295,996.6 293.5,996.3 292.6,995.9 290.4,995 
	287.6,998.1 285.8,998.7 284.3,998.7 283.4,997.6 282.5,998.5 281.8,1000.3 281.2,1002.3 280.7,1004.6 280.3,1005.7 279.9,1005.2 
	279.4,1006.6 278.7,1008.8 277.7,1009.9 276.8,1011.5 276.2,1012.8 275.3,1014.6 274.4,1016.7 273.8,1018 272.7,1022.2 
	272.4,1023.2 272.1,1024.2 271.6,1025.2 271.3,1025.8 270,1027.7 269.7,1027.6 269.4,1027.4 268.7,1028 268.3,1028.6 268,1028.9 
	266.9,1031.8 266.5,1032.4 266.2,1032.7 265.8,1033.1 265.5,1033.2 265.2,1033.4 264.8,1033.9 264.6,1034 264.2,1034.1 264,1033.9 
	264,1078 338.8,1078 "/>
<polygon id="elevDay3" class="st0" points="263.1,1033 261.6,1033 259.6,1028.1 258.4,1026.6 256.4,1023.8 253.4,1022.1 
	250.2,1020.4 247,1019 245.9,1019.1 245.3,1018.8 244.8,1018.5 243.8,1017.5 243.3,1017.2 242.8,1016.5 242.4,1015.7 241.8,1015 
	241.3,1014.2 240.8,1013.5 240.1,1012.7 239.6,1012.2 239,1012.1 238.4,1011.9 236.4,1012.3 234.4,1012.9 232.9,1012.4 
	225.9,1013.2 225.9,1078 264,1078 264,1033.9 "/>
<polygon id="elevDay2" class="st0" points="112.9,1071.1 113.7,1070.2 114.6,1069.7 115.8,1067.2 117.4,1064.3 117.9,1064.5 
	118.7,1064.1 119.3,1063.6 120,1062.9 120.5,1062.1 120.8,1061.7 121.5,1060.8 121.8,1060.6 122.5,1060.8 123.2,1059.3 
	124.2,1057.9 124.8,1057.6 125.4,1057.4 126,1056.7 126.5,1055.6 126.8,1055 127.3,1054.6 127.7,1054.4 128.4,1054.5 128.8,1054.7 
	128.9,1054.6 129.4,1054.2 130.4,1054.4 131.2,1054 131.8,1053.7 132.4,1053.6 133.7,1053.4 134.4,1052.9 135.2,1052.6 136,1052.1 
	137.4,1051.2 138.6,1050.8 139.4,1050.2 140.1,1050.1 140.7,1050.2 142.3,1049.4 142.7,1049.1 143,1049.1 143.2,1049.1 
	143.4,1048.9 144,1048.2 144.2,1047.9 144.3,1047.7 144.5,1047.4 144.8,1046.8 145.2,1046 145.5,1045.6 145.7,1045.1 147.1,1043.4 
	147.3,1042.8 148.5,1038.3 148.9,1038 149.3,1037.4 150.2,1035.3 151,1033.9 151.6,1032 152,1030.9 152.8,1028.8 153.4,1027.8 
	153.9,1027.4 154.1,1027.5 154.4,1027.7 154.6,1027.5 154.9,1026.5 155.4,1025.6 155.7,1024.8 156.6,1023.4 157.3,1022 158,1020.8 
	158.4,1020.3 158.9,1019.1 159.9,1017.6 160.6,1016 160.9,1015.8 161.7,1015.4 162.2,1014.8 162.6,1014.5 163.2,1013.7 
	163.6,1013.7 164.2,1014 164.7,1014.6 164.8,1014.7 165.7,1015.5 165.8,1015.6 166.2,1016 166.5,1015.9 167,1016.4 167.2,1016.6 
	167.2,1016.6 167.5,1016.9 167.9,1017.9 168,1018 168.1,1018 168.2,1018 168.3,1018.2 168.6,1018.7 168.9,1019 169.2,1019.2 
	169.3,1019.2 169.5,1019.1 169.7,1018.8 169.8,1018.5 170,1018.2 170.2,1017.7 170.6,1017.2 170.8,1017 170.9,1016.9 171.2,1016.7 
	171.4,1016.7 171.4,1016.7 171.4,1016.7 171.4,1015.9 171.5,1015.9 171.5,1016.7 171.5,1016.7 171.5,1016.9 171.9,1017 
	172.2,1016.7 172.5,1016.3 172.7,1015.9 173,1015 173.3,1014.8 173.5,1014.8 173.7,1014.8 173.8,1014.8 174.2,1015.1 174.6,1015.1 
	174.7,1015.2 175.1,1015.7 175.5,1015.6 175.8,1015.8 176.1,1016.4 176.3,1016.7 176.7,1017.2 177.2,1018 177.3,1018.3 177.7,1019 
	178.5,1019.2 179.1,1019.5 179.3,1019.6 180.2,1020.3 180.6,1020.7 181,1021 181.4,1021.5 181.9,1021.8 182.5,1021.5 182.8,1021.3 
	183.6,1021.7 184.2,1021.4 184.8,1020.7 185.5,1020.2 186.1,1020.4 186.5,1019.9 186.9,1020.1 187.6,1019.8 188,1019.2 
	188.8,1019.4 189.4,1020 189.6,1019.8 190.2,1019.3 190.5,1019.2 190.7,1019.1 190.9,1019.1 190.9,1019.4 191,1019.4 191.3,1019.4 
	191.6,1019.3 191.7,1019.3 192.1,1019.1 192.1,1020.1 192.3,1020.1 192.5,1019.6 192.7,1019.8 193.2,1019.9 193.6,1019.5 
	194,1019.2 194.4,1018.7 194.7,1018.2 195.1,1018.1 196,1018 196.2,1017.6 196.4,1017.2 196.5,1016.8 197,1016.2 197.3,1015.8 
	197.6,1015.5 197.8,1015.4 198,1015.9 198.5,1015.9 199,1015.2 199.2,1015.1 199.5,1014.7 199.8,1014.3 200,1013.9 200.4,1013.7 
	200.7,1013.9 201,1014.2 201.2,1014.4 201.8,1015.1 202.3,1016.2 202.7,1016 203.1,1015.6 203.4,1015.3 203.5,1015.5 203.6,1015.7 
	203.7,1015.9 204,1015.7 204.3,1015.1 204.6,1014.7 204.7,1013.7 204.9,1013.7 205,1014.8 205.1,1014.8 205.2,1014.4 205.3,1014.4 
	205.5,1014.3 205.6,1014.3 205.7,1014.5 205.9,1014.3 206.2,1014.2 206.4,1014 206.6,1013.8 206.9,1013 207.1,1012.5 207.3,1012.1 
	207.6,1011.8 207.8,1012.4 208,1013.5 208.1,1013.2 208.3,1012.6 208.5,1011.6 208.6,1011.6 208.8,1012.1 209,1011.3 209.2,1010.4 
	209.4,1009.8 209.6,1009.5 209.7,1009.3 209.8,1009 209.9,1009 210.1,1009.2 210.4,1009.6 210.6,1009 210.9,1008.1 211.1,1007.7 
	211.2,1007.6 211.5,1007.4 211.8,1007 212.3,1006.8 212.8,1006.7 213,1006.4 213.2,1006.4 213.6,1006 213.9,1006.1 214.1,1006.1 
	214.6,1006.2 215.4,1007 216.2,1007.9 216.3,1007.9 216.7,1008 217,1007.9 217.3,1008 217.5,1008.2 217.7,1008.6 218,1009.1 
	218.3,1009.4 218.6,1009.6 218.8,1009.4 221.3,1009.4 222.2,1010.7 222.6,1010.8 223,1011.1 223.6,1011.8 223.9,1012.1 
	224.3,1012.3 224.6,1012.5 224.8,1012.5 225.2,1012.6 225.3,1012.6 225.8,1012.7 225.9,1012.7 225.9,1078 112.9,1078 "/>
<polygon id="elevDay1" class="st0" points="0,1078 5.3,1078 10,1078 10.3,1076.9 10.7,1076.9 11.5,1078 14.5,1078 14.8,1077.9 
	15,1077.9 15.2,1078 15.7,1078 19,1077.4 19.2,1077.5 19.4,1076.9 19.8,1078 22.2,1078 22.4,1078 22.6,1076.9 29.8,1076.9 
	30.1,1078 30.3,1076.9 31.6,1078 42.2,1078 58.9,1075.9 59.2,1076.9 62.5,1075.9 67.8,1076.9 71.8,1075.9 79.7,1075.9 80.8,1075.9 
	81,1075.9 87.4,1074.5 92.8,1073.3 94.1,1073.1 94.8,1073 95.3,1072.9 97.9,1072.6 98.4,1072.6 98.7,1073.7 100.9,1071.6 
	104.4,1072.6 107.2,1072.6 108,1072.1 108.8,1072.3 110,1071.6 110.7,1071.6 112.7,1071.6 112.9,1071.1 112.9,1078 0,1078 "/>
</svg>
