<?xml version="1.0" encoding="utf-8"?>
<!-- Generator: Adobe Illustrator 24.3.0, SVG Export Plug-In . SVG Version: 6.00 Build 0)  -->
<svg version="1.1" id="Layer_1" onload="if(self.makeDraggable){makeDraggable(evt)}" xmlns:svg="http://www.w3.org/2000/svg"
	 xmlns="http://www.w3.org/2000/svg" xmlns:xlink="http://www.w3.org/1999/xlink" x="0px" y="0px" viewBox="0 0 1200 1080"
	 style="enable-background:new 0 0 1200 1080;" xml:space="preserve">
<style type="text/css">
	.st0{fill:none;stroke:#CE1126;stroke-width:3.2926;stroke-linecap:round;stroke-linejoin:round;}
	.st1{fill:none;stroke:#002B7F;stroke-width:3.2926;stroke-linecap:round;stroke-linejoin:round;}
</style>
<image style="overflow:visible;" width="3840" height="2160" xlink:href="day-00/sat-map-route.jpg"  transform="matrix(0.5 0 0 0.5 -360 0)">
</image>
<path id="day18" class="st0" d="M197.2,911.5c-0.2,0.2-0.5,0.2-0.7,0.2c0-1.5-1.5-2.5-2.8-3c-0.5-0.7-0.8-2.1-1.8-1.8
	c-0.8-0.7-2-1.2-3-0.7c-3.5-1.3-6.9-3.1-10.7-2.1c-3.5-4-9.4-3.5-13.5-6.7c-6.6-4.3-4.4-3.6-12.5-1.3c-1-2.5-5.3-5.1-4.8-8.1
	c-4.8-3.3-10.7-6.7-16.3-6.3c-1.2-0.7-6.7-1-4.1,1c-0.2,0.3-0.5,0.7-0.8,0.7c-0.5,0.7-0.5,1.8-1,2.1c0.3,1-1,0.8-1,1.6
	c-0.3,0-0.5-0.2-0.5-0.3c-4.1,9.2-18.1,3.3-26,7.4c2.1,5.8,0.5,8.9-4.6,11.7c0,1.8,0.2,4.9-2.6,4.6c-9.5-1.6-2.8,5.8-7.2,9.1
	c-13.7-2,1.3,17.3-4,25"/>
<path id="day17_1_" class="st1" d="M304.9,872.5c0,0.7,0.2,1.5,0.3,2c-0.7-0.5-0.7-0.7-1.5-0.2c-0.5-0.5-1.5-1-1.5-1.8
	c-3.1-0.8-5.6,4.8-4.9-1.6c-1-0.5-0.8,0.7-1.3,1.2c-0.8-0.5-2.1,0.5-3.1,0c2.3,3.1-1.8,2.8-1.6,0.5c-1.8,0.7-2.8,4.1-3.1,5.8
	c-1.3,0.2-1.5,2-1.3,3.1c-0.3-0.3-0.8-0.2-1,0.2c-0.7,0.2-1-1-1.5-0.8c-0.2-0.3,0-1-0.3-1.2c-0.3,0-0.5,0.2-0.5,0.3
	c-1,0.2-0.8-2-2.1-1.8c-0.7,1-2.8-0.3-1.8,1.2c-0.5,0.5-1.8-1-1.8,0.3c-0.3,0-0.5-0.2-0.8-0.2c-0.7,1.5-2.3,3.6-4.3,3
	c0.5-2-2-2.3-3.3-3c-3,1.2-7.2,1.5-7.9,4.9c-0.2-0.7-0.8-0.8-1.3-0.3c0.2,0.7-0.5,0.7-1,0.7c0,0.2,0,0.5,0,0.7
	c-0.5-0.2-1.5,0.3-2,0.5c-0.8-0.8-2-0.5-3-0.7c-2.3-1.3-5.8-0.3-8.1-2c-0.7-1-2.5-1.6-3.5-2.6c-1.5-1-3.6-0.7-4.8-1.8
	c-2,1-2.8-1.6-4.4-1.8c-1,0.2-2.1,1.6-3.1,0.8c-0.7,0.3-0.3,1.2,0.3,1.2c-4.6,2.5-7.7,6.9-10.5,11.2c-1.2,2.5-1.2,6.3-4.4,7.2
	c-3.3,2.1-5.4,5.6-9.4,7.1c-2.6,1.8-11.4,3.3-9.7,7.2l0.7-0.3"/>
<path id="day16_1_" class="st0" d="M361.8,870.9c-0.3,0.5-0.7,1.8-1.3,1.2c-0.3,0.2-0.5,0.2-0.7,0c0,0.3-0.3,0.8-0.7,1l0,0v0.3
	c-0.3-0.2-0.7,0.3-1,0.5L358,874c-0.5-1.3-1.6-0.2-2.3,0.3c0,0.2-0.7,0.3-0.8,0.3c0.2,0.3-0.5,0.7-0.5,0.8c0,0.7,0.5,2.3,1,3
	c1.3,0.8,3.1,2,4.4,1.6c-0.3,0.5-0.3,1.3-0.5,2c-0.7-0.3-2.3-0.3-2.5-1.2c-0.5,0-1,0.3-1.5,0.2c-0.3-0.2-1,0.2-1.5,0
	c0-0.2,0-0.3-0.2-0.3c0.2-0.2,0.2-0.3,0-0.5c-0.8-0.7-1.6-1.5-2.3-2.5c0.2-0.7-0.5-0.5-1-0.5c0,0.3-0.2,0.7-0.5,0.7
	c0,0.2-0.3,0.5-0.5,0.5c0.7,1.6-3.6,1-4.6,0.5c-0.2-1.3-1-0.3-1.5,0c0-0.2-0.2-0.5-0.3-0.5c-0.2,0.3-0.5,0.2-0.8,0.2
	c0-0.8-1.5-0.3-1.8-0.2c0,0.5-0.3,0.2-0.5,0c-0.2-1.2-2.6,1.2-2.6-0.3c0.3,0.2,0.2-0.5,0.5-0.3v-0.2c-0.2,0-0.3,0-0.3-0.2
	c-0.2,0.3-0.5,0-0.7,0.3c-0.3-0.7-1.2-0.7-1.6-1.2c-0.5-0.8-1.2,0.3-1.2-0.8c-0.2-0.3-0.5-0.8-0.2-1.2c0.2-0.3-0.3-0.7-0.7-0.7
	c0-0.2-0.2-0.2-0.3-0.2c0-0.2-0.2-0.2-0.3-0.2c-0.3,0.3-0.8,0.3-1.3,0.3c-0.2,0.2-0.2,0.3-0.3,0.5c-0.2-0.2-0.3-0.7-0.7-0.7
	c-0.2-0.2-0.3-0.3-0.7-0.3l-0.3-0.3c-0.2,0-0.2-0.2-0.2-0.3c-0.2,0-0.3-0.2-0.3-0.3c-0.2,0-0.2-0.2-0.2-0.3h-0.2V872
	c-0.5,0.2-0.8,0.7-1.2,0c0-0.2,0-0.5-0.3-0.5c0,0.2,0,0.3-0.2,0.3c-0.2-0.2-0.3-0.3-0.5-0.3c-0.8,0.7-2.5,0.5-2.8,1.6
	c-0.8,0-1.5,0.7-1.6,0.7c-0.2,0.3-0.7,0.2-1,0.2c0-0.8-1.6,0.3-2.1-0.5c-0.7-0.2-1,0.7-1.6,0.5c0.2-0.2,0.2-0.7,0.3-0.8h-0.2
	c0.2-0.2,0.2-0.3,0.2-0.5c-1.2-0.3-1,1-1.8,1.5c-0.8,0-1.6-0.3-2.5-0.5c-0.3,0.5-0.8,0.3-1.3,0.2c-1.2,0.8-3.1-0.3-4.1,1
	c-0.5,0-0.3-1-0.8-0.8v-0.2c-0.2,0.5-1,0.7-1.5,0.8c-0.2-0.5-0.8-2-0.2-2.3"/>
<path id="day15_1_" class="st1" d="M353.9,819.9c2.6,1.5,6.9,1.6,6.1,5.4c0.5,0.2,1,0.7,1.2,1.2c-0.7,5.3-2.5,12.8,4.8,13
	c-1.3,4.3-4.1,9.1-0.5,13.2c-2.3,3-4.1,5.9-2.8,9.9c-5.9,4.1,0.5,4-0.8,8.4"/>
<path id="day14_1_" class="st0" d="M337.9,772.9c1.3,1.3,0,5.4,2.8,4.9c0.5,2.1-1.5,1.8-2.8,2.5c-1,1.3,1.3,1.8-0.5,2.8
	c1.8,1.3-0.3,2.8-0.3,4.4c4-0.2,1.3,0.7,3.6,2.8c0.3,1-1,0.3-0.8,1c5.4,2.3,0.5,2.3,3.5,3.8c-0.7,0.3-1,1-0.8,1.6l-1,1.5l0.8,0.2
	c0,0.3,0.3,0.7,0.7,0.7c0.8-0.3,1.5,0.5,2.3,0.3l0.3,0.5c-0.7,1,0.2,3.3,0.5,4.4c2.5-0.5,5.9,0.7,6.6,3.1c1.3,0,4,0.2,3.8,1.8
	c-4.4,3,3.1,6.4-3.3,9.1c-0.2,0.3-0.2,1,0.2,1.3"/>
<path id="day13_1_" class="st1" d="M312.8,678.1c-0.3,0.8,0.3,3.3-1,3c0,0.3,0,3.1,0,3.5c-2,2.6-0.8,6.3-1.2,9.2c-0.8,1-1.5,2.6-3,3
	c0.2,1-0.5,2.1,0.3,3c-0.7,1,1,1.6,0.7,2.6c1.6,1.2,3,2.6,0.7,4c0.8,1.5,1.2,2-0.7,3c0.3,1.2-0.3,2.1-0.3,3.3l0,0
	c0.3,0,0.5,0.5,0.2,0.7c0.3,0.8,0.5,2.1,1.3,2.6c0,0.2,0,0.3-0.2,0.5c0,0.2-0.2,0.2-0.3,0.2c0,0.5,0.2,0.5,0,1v0.2
	c1,0,0.7,2,1.3,2.3c-0.2,0.2-0.5,0.3-0.7,0.5c-0.2,0.8,0.8,1,0.8,1.6c-0.5,1.5-0.2,3.6-0.7,5.1l0.2,0.2c-0.3,0.5-0.8,0-1.3,0.2
	c0.7,0.3,1.5,1,0.7,1.6c-0.2,0.5,1,1.3,0.2,1.3c-0.2,0.8,1.2,1.6-0.5,2.1c0.5,0.5-0.3,0.8-0.2,1.3H309c0,0.5-0.5,1.2-1,0.7
	c-0.7,0-0.5,1.2-1.2,1.2c0,0.2,0.3,0.3,0.2,0.7c-0.3,0-0.7,0.3-0.8,0.5c-0.5,0-1.2,0.3-1.2,0.8c1.5,0.3-0.8,2.1,0.5,2.1
	c0.3,0.5-0.5,1.2-0.7,1.6c0,0.8,0.7,2.5-0.7,2.3c0.3,0.5,1,0.8,1.5,1c0.3,0,1.3-0.7,1.2,0.2c-0.3,0-0.3,0.3-0.3,0.7
	c0.3,0,0.5,0.5,0.7,0.8c0.3,0,0.7-0.7,0.7,0c0.2,0,0.3,0,0.3,0.2v-0.2h0.2c0-0.2,0-0.5,0-0.7c-1-0.2,0.3-0.7,0.3-1.2h0.2
	c0.3,0.8,1.5,1.6,2.5,1.5v0.2c0.2,0,0.3,0,0.5,0c-0.2-0.7,0.2-1.2,0.7-0.5c2,1.3-1.3,3.8,1.3,5.3c0.5-0.2,1.6-0.5,1.6-1.2
	c1.5,0.8,2.5,0.5,3.8-0.3c1.5,0.8,3.3,2.1,3.6,4c1.5-0.7,2.5,1.3,4,0.3c-0.2,2.1,1.8,0.2,3,2c-0.3,0.2-2,1-0.7,1
	c-0.3,0.3-1,0.7-1.3,0.8c1.2,0,2-0.5,3,0.2c0.5-0.7,1.2-0.7,1.6,0c1-0.2,1.8,0,2.6-0.8c0.7,0.2,1-0.3,1-0.8c0.8,1,2.3,0.2,2.8,1.3
	l-0.5-0.5h0.2h-0.2l0,0c0.2-0.2,0.7,0.8,0.7,1c0.7,0.3,0,0.8-0.5,0.7c0,0.5,0,0.8,0,1.3l0,0c0,0.2-0.2,0.3-0.2,0.5
	c-0.7,0-0.2,0.3-0.2,0.7h-0.2c0,0.2,0,0.3,0,0.5h-0.2c-1.3,2.3,0.2,6.3-1.6,7.7c0.7,0.8,1.6,1.5,2.3,2.3c-0.3,0.3-0.7,0.7-0.5,1.2"
	/>
<path id="day12_1_" class="st0" d="M410.4,642.4h-0.2v0.3h0.3v0.2c-0.2,0-0.3,0-0.3,0.2c-0.2,0.2-0.7,0.2-0.8,0
	c-0.3-0.3-0.8-0.3-1.2-0.3c-0.2,0.2-0.2,0.2-0.2,0.3c-0.2,0.2-0.2,0.2-0.2,0.3c-0.8-0.5-1.2-0.2-1.6-0.2c0-0.2-0.2-0.3-0.2-0.5l0,0
	c0-0.2,0.2-0.3,0.2-0.5c-0.2,0-0.2-0.2-0.2-0.3c-0.2,0-0.2-0.2-0.2-0.3c-0.2,0-0.3,0-0.5,0l0,0v0.2h0.2c0.5,1-0.5,1.5-1,2.1l0,0
	c0,0.3,0.3,0.7,0,1c-1.2-0.2-2,0.5-2.6,1.3c-2.5-2.3-0.8-8.6-5.4-8.2c-1.5-0.3-1.3-2.1-2.8-2.1l0,0v-0.2h-0.2v-0.2h-0.2
	c-0.7,0.5-0.8,1.2-1,1.8c-0.2,0-0.3,0-0.5,0c-0.2,0.2-0.3,0.2-0.5,0.3l0,0c0.2,0.5-0.2,1-0.2,1.5c0.2,0.2,0.2,0.3,0.2,0.5l0,0
	c1,1.5,0,4,0,5.8l0,0c-0.3,0.8-1.2,1-0.7,1.8c-1.3,1.8-0.8,3.8-0.5,5.9c0.3,2.6-2,4-2.6,6.4c-0.5,0.5-1,0.8-1.5,1
	c-0.3,0-0.3,0.5-0.3,0.7l0,0c0.5,0.3,1.3,0.3,1.3,1.2c0.5,1.6-0.3,4,0.7,5.3c-2.1,1.6,4.6,3.1,0.7,3.6c-0.2,0.2-0.7,0.5-0.3,0.7
	l0.2-0.2v0.2h0.2v0.2c-0.2,1.3-1.8,2.8-2.8,2c-0.7,0.2-1.3,0.3-1.8-0.2c-1.2,0.5,2.1,1.3,0.8,2c-1.8,1-1.8,3-2.3,4.6
	c-0.7,1.6-2.1,2.6-2.8,4.1l0,0c1.6,2.5-1.3,1.3-1,3.3c-2.3-0.3-4.8-1-7.1-1v1l-1.3-0.2c-0.2,4.6-6.3,3.3-9.1,1.8
	c-0.8-1.6-2.1-1.6-3.8-1.8c-1-0.8-2-1.8-3.1-2.1c-2.1-0.2-3.5-1.6-4.9-3.3c-0.7-0.2-1.6-0.8-2.1-0.3c-0.5,0-0.3-1-0.7-1.3
	c-0.8,0-0.7-1.2-1-1.6c-1-0.7-2-0.5-2.6-1c-0.2-1-1-1.5-1.2-2.5c-0.7-0.3-1.5-0.5-1.6-1.2c0.5,0,0.7-1,0-0.5c-0.3-0.2-0.8,0-1,0.2
	c-1.5-1.5-3.1-0.2-4.4,0.8c-1.2-0.5-2,0.5-3.3,0.7c-2,2.8-6.4,2.8-8.9,5.8c-3.5-1.5-6.6-3.3-10.7-3.3"/>
<path id="day11_1_" class="st1" d="M444.6,584.9c-0.8-0.2-1,0.7-1.5,1c-0.7,0-1.5-0.7-2,0.2c1.5,3.3-1.5,1.5,0.8,4.4
	c-3.1,4.3,3.1,3,4,4.9c-1.5,1.5-3.8,3-3.5,5.4c0.8,0.8-0.7,3,0.5,3.3l0.3,0.7c-0.8,1.8-1.5,3.5-1.3,5.4c-1.6,1.5-2.1,4.1-1,6.1
	c-1.3,1.3-1.2,3.1-0.8,4.8c-2,2.6-2.6,5.4-4,8.6c0.3,4.3-5.8,3.1-7.6,5.9c-1.6,3.3-5.6,4.3-8.2,5.6c-0.5-0.5-1.2,0.5-1.8,0.3
	c-0.2,0.2-0.2,0.3,0,0.5c-0.2,0.3-0.7,0-0.8,0.3c-1-0.3-1.5,0.8-2.5,0.7c-0.2,0.3-0.5,0.8-1,0.7v-0.2H414v0.2
	c-0.5,0.2-0.8-0.3-1.3-0.3c-0.2,0-0.2-0.2-0.2-0.3c-0.3-0.2-0.8-0.2-1.2-0.5c-0.2,0-0.5,0-0.5-0.3c-0.2,0-0.3,0-0.5,0v0.2"/>
<path id="day10_1_" class="st0" d="M489.2,548.2c-2.8,0.5-6.3-1.5-6.6-4.4c-4.8-2-9.2-5.6-13.7-8.1c-1.5,0.8-0.3,3.1-1.8,4.1
	c-1.2-0.5-1.6,1.2-2.3,1.8c-1.5-0.3-0.8,1.3-1.8,1.8l0,0c0,0.3,0,0.8,0,1.2c-4.3,2.8-7.6,7.2-10.5,11.2c1,1-0.5,0.7-1,1
	c0.3,0.5,1.3,0,1.5,0.3c0.5,0.7-0.2,0.5-0.7,0.5c0,0.8-1,1.2-1.5,1.6c-0.3,0.3-0.5,1.3-1.3,1.2v0.2h-0.2c0.8,1.2-1.3,1-1.5,1.6l0,0
	v0.2c0.2,0,0.3,0,0.3-0.2c0.5,0.2,0.7,0.7,0.3,1c-0.2,0-0.3,0.2-0.3,0.3c0.2,0,0.3,0.2,0.3,0.3c0.2,0,0.2,0.2,0.2,0.3V564
	c0.2,0,0.3,0,0.5-0.2v0.2l0,0c0,0.2,0.2,0.3,0.3,0.3c0-0.3,0.3-0.3,0.5-0.3v0.2l0,0c0,0.2-0.2,0.2-0.3,0.2c0,0.2,0,0.3,0.2,0.3
	s0.5,0,0.7,0c0.5,0.8-0.3,1.5-1.2,1.5c-0.7-0.8-1.3,0.3-1.5,0.8c-0.7,0-1.3,0.2-1.5-0.7c-1.2-0.2-1.5,1-2.5,0.3
	c0.2,0.2,0.2,0.3,0.3,0.5c0.2,0,0.3,0,0.3,0.2h0.2v0.2l0,0v0.2l0,0v0.2l0,0c0.2,0,0.3,0,0.3-0.2c0.5,0,0.8,0.3,0.2,0.5v0.2
	c0.2,0,0.5,0,0.7,0v0.3l0,0c0,0.3,0,0.7,0,1l0,0v0.3l0,0c0,0.3,0.5,0.7,0.7,0.8l0,0c0,0.2,0,0.3-0.2,0.5l0,0v0.2l0,0v0.3h0.2v0.3
	l0,0v0.2l0,0c0,0.2,0,0.3,0.2,0.3c-0.2,0-0.2,0.2-0.2,0.3c-0.7-0.2-0.8,0.2-1.2,0.7c0.2,0.7,0,0.5,0,1c-1,1-2.6,2.3-0.7,3
	c0,0.2,0.2,0.3,0.2,0.5c0.2,0,0.5-0.2,0.7-0.2v0.2c0.2,0,0.3,0,0.3,0.2c0.2-0.3,0.7-0.2,0.7,0.2c-0.3,0.8-1.5,1.3-1.2,2.3
	c0.7,0.8,0.2,2,0.3,2.8l0,0c0,0.3,0,0.8-0.5,0.7c0.2,0.8,0.5,1.5-0.7,0.8"/>
<path id="day9" class="st1" d="M611.9,518.2c2.6,5.1-9.9,2.3-12.5,2.3c-4,0.2-7.9-0.5-11.7-0.3c-0.3-0.2-0.8-0.7-1-0.3
	c-0.5-0.2-1.5-0.7-2-0.3c-2.1-0.3-3.5-1.5-4.1-3.8c-1.8,0.8-4.1,0.3-5.8,1.5c-0.5,0-1.3,0.2-1.6-0.3c-3.1,1-5.9,0.2-9.1-0.3
	c-2,0.7-4,2-5.9,2.1c0.2,0,0.5,0.3,0.7,0.3c-1,0.5-1,1.5-1.3,2.5c-1,0.8-1.8,0.2-2.8-0.2c-0.3,0-0.8,0.3-1.2,0l0,0v0.2l0,0
	c0,0.3-0.3,0.8,0,1.2h-0.2c-0.2-0.3-1-1.2-1.5-1c0.3,1.8-3,2.6-4.6,2.8c-0.2,0.3-0.7,1.2-1,1.2c0,0.5,0,1.2,0,1.6
	c-0.5-0.3-1.6-0.7-2-1.2c-0.2,0-0.3,0-0.3,0.2c1.2,0.8-0.2,1-0.5,1.6c0.3,0,0.7,0.5,0.3,0.7c-0.3,0-0.8-0.2-0.8,0.3
	c-0.7,0.3-0.8-1.2-1.3-0.7c0.2,0.5-0.7,0.3-0.7,0c-0.2-0.2-0.3-0.2-0.5-0.3c-0.5,0.5-1.2-0.3-1.6-0.3l0,0c-0.2,0.3,0.3,0.7,0.7,0.7
	c-0.2,1-1.2,0.3-1.8,0.5c-0.3,1,0.3,1.5-0.5,1.8l0,0c0.2,1.2-0.5,1.3-1.5,1c-0.3,0.2,0.2,0.5,0.3,0.5c1.5,0.7-0.2,1.8,0,3
	c-0.3-0.5,0-1-0.3-1.5c-0.7,0-1.2,0-1.8,0.2c-0.2,0-0.8-1.3-1-1.2c-0.2,0.3-0.7,0.2-0.8,0.5c-0.8-0.2-1.5-0.5-2.3-0.5
	c-0.2,0.5-0.5,0.3-0.8,0.7c-0.7,0-1.2,0.5-1.8,0.2c-0.3,1.2,1.2,0.5,1.2,1.5c-0.2,0.2-0.2,0.5-0.5,0.5c-0.5-0.8-1.5-0.2-2.1-0.7
	c-0.2,0-1,0.3-1,0c0-0.2-0.2-0.2-0.3-0.2c-0.7,0.7,1.3,0.7,1.6,1c-0.3,0.5-1.8-0.5-2.3,0.2c-0.2-0.2-0.5-0.2-0.5-0.5
	c-0.3,0-0.5-0.2-0.5-0.5l0,0c0.2-0.2,0.3-0.2,0.5-0.3c0-0.2,0-0.3,0.2-0.3c0-0.2-0.2-0.3-0.3-0.3c-0.2-0.5,0.2-0.8,0.2-1.2
	c-0.3,0.3-0.8,1.2-1.2,1.6c-0.7,0-1.6-0.2-1.5,0.8c0.2,0.2,0.2,0.3,0.2,0.5c0.7,0.2,0.2,0.5-0.2,0.2c0-0.2-0.3-0.5-0.5-0.5
	c-0.5-0.5,0.2-1.5,0-2c-0.3-0.7-1.5-0.2-1.3,0.3c-0.3,0.2-0.2,0.7-0.5,0.8c0,0.2-0.2,0.3-0.3,0.5c0.2,1,0.2,1.8-0.8,2.3
	c-1.5,0.5-3.1,1.5-4.6,2c0,0.2-0.3,0.8-0.3,1v0.2c0,3-2.3,1.3-3.6,2c-0.3,1.8-2,2-3.3,2.1c-1.6,0.7-3.1,1.5-3.5,3
	c-2.1,2.5-5.6,1-8.2,0.7c-1.5,0.7-3,0.3-4.4,0.2"/>
<path id="day8" class="st0" d="M737.7,439.9c-2.8-2-6.3,0.7-9.2-1.5c-1.5-0.8-1.5-3.1-3.3-3.5c-0.5-1.3-1.5,0.2-2.1,0.5
	c-1.6-3-6.1-3.1-7.4-6.3c-1,0-1.8-0.5-1.8-1.6c-8.7-4.8-8.4,4-12.3,9.2c-1.8,7.2-4.6,4.6-9.2,9.4c0.3,13.5-2.3,4.4-3.5,12.3l-4.4,10
	c-1.5,1.3-5.3,3.6-7.1,4.1c-0.2,0-2.8-2.1-3-2.3c-1.8-1.2-13.8-2.1-14.5-4.8c-0.7,0.3-1.6-0.2-2.3-0.3c0-0.2-0.2-0.8-0.5-0.7
	c-1.5,0.2-4.6-0.7-4.4,2c-0.3,0.5-0.7,0-0.8-0.3c-0.2,0-0.3,0.2-0.3,0.3c-0.5,0.2-0.8,0.7-0.7,1.2c-1.2-0.3-5.4,1.2-3.8,2.8
	c0,0.5-0.8,0.2-0.8,0.7c0.7,1,0.3,2.1,0.5,3.1c-0.5,0.7-1.5,1.6-1.2,2.5c-0.2,0-1-0.3-1-0.5c-0.2,0-0.3,0.2-0.5,0.2
	c0.3-0.7,0-0.8-0.3-1.3c-1,1-2.1,0.5-3.3,0.3c-1.3,0.5-2.6,1.6-4,2c-4.4,2-3.8,2.8-2.8,6.7c-7.6,1.2-9.7,11.7-16.5,13.2
	c-0.2,0.2-0.3,0.5-0.3,0.7c0.2,0,0.5,0,0.7,0c0.3,0.5,0,1.3-0.2,1.8h0.2c0,0.3-0.3,0.7,0,0.8c-0.3,0.2-0.2,1-0.5,1.2
	c0.2,0,0.2,0.2,0.2,0.3c-2,0.5-2.8,2.1-3.5,4l0,0v0.3c-0.2,2.3-3,3.5-3.5,5.6h-0.2c0.7,0.7,0.5,2.1-0.7,2c0.2,0.3,0.7,0.5,0.8,0.7
	c0.5,0.8,1.2,1.6,1,2.6l0,0c0.5-0.2,0.7,0.7,0.8,1"/>
<path id="day7" class="st1" d="M774.5,401.7c-0.2,0.3-0.7,1-0.7,1.3c1.2-0.2,2.1,1,1.3,2c-2,0-1.3,0.8-0.5,1.8
	c-1.5-0.3-3-1.5-4.1-2.3c0,0.5,0.8,1.3,0.5,1.6c-0.5-0.7-1.3-1-1.3,0.2c1,0,0.2,1.5,1.2,1.8c0.3,0.7,0.2,1.5,0,2.1
	c0.8,0.7-0.3,2.1-1,2.8l0,0c0,0.2,0,0.3,0.2,0.5c-0.5,1.2-0.2,1.5,0,2.6c-0.7-0.2-1.6,0-2.3,0.3c-2-0.2-1,1-2.1,1.8
	c-1.8-0.7-3.3,0.5-4.8,0.5c-0.7-0.7-1.5-0.7-2.3-0.7c-1.2,2.3-2.3-1-4-0.7c-0.5-0.8-0.5-1.8-1.2-2.6c0.5-0.3,0-0.5-0.2-0.8
	c-0.2-0.7-0.8-0.8-1.3-1.2c0,0.2-0.2,0.2-0.3,0.2c0,0.5-0.8-0.2-1-0.2c-0.5,0.3,0.5,1,0.7,1.3c-0.2,0.5-1.3,1.2-1.8,1
	c-0.2,1-1.2,1.8-2,2.1c-0.3-0.2-0.7-1.6-1.2-1.2c-0.7,0.3-2.1,0.5-2.3-0.5c-0.7-0.2-0.2,0.7-0.2,1c-0.7,0.5-1.6,0.8-1.3,1.8
	c-1.2-0.3,0-1.2-0.2-2c-0.3-1.5-2.8-1-2.3,0.2c-0.3,0.2,0,0.5-0.3,0.7c-0.3-0.3-1-0.3-1-1c-0.8,0.2-0.5-0.8-0.5-1.3
	c-1.3-0.7-0.7-2.1-1.5-2.8c-1.5,0.7-1.6,2.1-3,3c0.7,0.8,0.2,1.5,0.7,2.3c-1.3,0-1,1.3-1.5,2c0.8,1-0.5,0.5-0.8,0.8
	c0.5,0,0.5,1,0.5,1.3l-0.3-0.3c-0.7,0.5-0.3,2.1-0.8,2.8c0.5,1,1.2,2.8-0.3,3.1c-0.7,0.5,1.2,2.1-0.2,2.1c-0.2,0.2-0.2,0.3-0.2,0.5
	c1.3,1.3,1,2.6,0.7,4.3c0.7-0.2,2.3-0.5,2.3,0.5c-0.3,0-0.7,0-1,0c0,0.7,1,0.8,1.2,1.5c0,0-0.2,2.8-0.2,3c3-0.7,5.8,2.8,9.1,2.1
	c1-0.8,4-3.1,4.8-1.8"/>
<path id="day6" class="st0" d="M841.7,398.7c-0.8,1.2-1,3.3-2.3,4.1c-0.2-1,0.5-2.1,0.2-3c-2.1,1.5-5.9-2.8-6.6,0.5
	c-1,0.8-1.8,2.5-2,3.8c-0.3,0.3-1,0-1.3-0.2c-2.1,1-4.3,1.3-6.4,2c-1-1.5-2.1,1.2-3.6,0.7c-0.2,0.2-1,1-1.2,1.2c1.6,0.3,0.7,1,0,1.8
	c0.3,0.3-0.3,1-0.5,1.3c-0.2-0.2-0.2-0.7-0.2-1c-0.5,0-0.8-0.5-1.2-0.8c-0.2,0.2-0.2,0.5-0.2,0.7c-0.5,0.2-1-0.2-1.3-0.5
	c1-1.3,0.5-3.5,1.6-4.6c0.2-1.6-1.3-1.6-2.5-2.1c0.3-1.5-0.7-2-1.8-2.5c-0.3-0.5-0.2-1.8-1-1.8l-0.2,0.8c-0.5-0.5-0.5,0.3-0.5,0.7
	c-0.5,0.7-0.5,2,0,2.5c-0.7,2-1.8-0.2-2.1-1.2c-1-0.2-3.1-0.8-3.3,0.5c-0.2,0.3-0.7,0.3-0.7,0.7c-0.3,0-0.3-0.3-0.3-0.5
	c-1.2,0-2.5-0.5-3.5-1c0.2,1.8-1.6,1.6-2.1,3.1c-0.8,0.7-2.1-0.5-2.8,0.2c-1.8-0.5-3.8-2.5-5.4-1.5c-0.7-1.3-1.8-0.5-2.8-0.2
	c-0.5-0.8-1.2,0.2-1.5,0.5c0-0.2-0.3-0.3-0.5-0.3c-0.3,0.3-1.3-0.2-1.6,0.5c-0.2-0.2-0.7-0.7-0.8-0.8l-0.2,0.2
	c0.8,1.6-2.6-0.5-3.1,0.5c-0.8,0.2-1.6-0.5-2.1-1c-1,0.3-2.5,0-3.6,0v-0.2"/>
<path id="day5" class="st1" d="M891.1,338c0.8,7.7,2,16.8-4.8,21.7c-1,1.8,0.5,5.3-2.6,4.9c-1.5,0.5-1.2,2.1-1.5,3.3
	c-3.3,2-7.6,4.9-11.9,3.3c-0.3,0.3-1.2,0.8-1.6,1.2c-0.2,2.6-4,1-4.6,3.3c-4,4.8,4.3,8.2-6.1,12.3c-2.1,1.2-4.3,0.8-6.4,0.3
	c-2.3-0.3-4.4,1.5-6.6,1.6c-0.8,0.5-1.5-0.3-2.1-0.5c0,0.5-1,1-1.3,1.2c1.5,1.3-1.2,2.8-2.3,3.1c0.5,1.2,0.8,2.6-0.3,3.5l2.8,1.5"/>
<path id="day4" class="st0" d="M905.1,277.2c2,0.2,3.5,2.6,2.3,4.4c-1.2,0.8-1.2,2.6-1.2,4c-0.7,0.7-1.3,1.5-1.6,2.3
	c-1,4.1,0.3,9.9-0.7,14.5c0.8,1.3,0.2,3,0,4.3c-0.2,1.3,0.5,3.1-0.3,4.4c0.5,4.8-2.1,9.2-4.1,13.5c-4,1-5.3,4.3-7.9,6.7
	c-0.2,2.1,0,4.3-0.7,6.4"/>
<path id="day3" class="st1" d="M914.3,259c2.3,3.8,8.4,8.4,5.4,12.5c0.3,1.8,1.8,2.3,1.8,4.3c-7.7-0.5-10-3.1-16.5,1.5"/>
<path id="day2" class="st0" d="M961.4,142.1c-0.2,0.8,0.3,1.3,1,1.6c1.3,2.8,1.5,4.8,0,7.6c-2,0.5-1.3,3-3.3,3.3
	c0,0.5,0,1.2-0.5,1.5c0,3.3-0.2,5.6-3.6,6.7c-1,1.8-3.6,1.5-5.1,2.6c-0.7,0.7-2,1.5-3,1.6c-0.3,2-1.8,3.1-3.5,4.1
	c0.7,0.8,0,1.2-0.8,1.5c0.7,0.7-0.8,1.3-0.3,1.8c-1,1.3-1.2,2.1-0.2,3.5c1.2,0.5,0.3,1-0.3,1.3c-0.3,1.5-0.8,4.6-3,4
	c0.2,1.6,1.3,2.8,1.2,4.6c-1.5,3.3-3.1,6.1-3.8,9.7c-0.5,0.8-0.5,2-1.2,2.6c-0.2,1.2-0.3,2.5-0.8,3.6c0.3,0.2,0,0.7,0,0.8l0,0l0,0
	l0,0l0,0v0.2v-0.2c-0.2,1.8-2,2-2.8,3.3c-1.5,1-1.8,2.6-4.1,2.6c0,1.2-1,1.6-2,1.5c-0.5,0.8-1.5,1.3-2,2.1c-1.6,0-2,2-3.6,2
	c-0.5,0.5-0.3,1.3-0.5,2c-0.5,0.5-1.5,0.8-2,1.3c-0.2,0.5-1.5,1.6-0.5,1.6c-0.2,0.5-0.7,0.8,0,1.3c-3,1.5,3,4.6,0.2,5.4
	c-1.8,1.8,0.7,4.3,1.8,5.9c-1,0.7-1.5,1.2-2.1,2.1c-0.2,0-0.5,0.2-0.7,0.2l0,0c0,0.8-0.3,1.2-0.5,2c-0.8-0.2-1,0.7-0.7,1.3
	c-0.5,0-0.7,0.5-1,0.8c-1.2-0.2-0.7,0.7-0.7,1.3c-1.3,0.3-1.3,1.5-1.6,2.6c-2.3,0.3-1.3,1.6-1.6,3.3c-1,4.3,3.1,8.2,4.4,12"/>
<path id="day1" class="st1" d="M1097.5,51.9c-10.5,2-10-1.3-11.4,10c-8.1,5.6,3.1,8.4-12,9.9c-0.8,1.2-0.8,5.1-1.6,6.3
	c-0.3,0.2-11.7,7.6-12,7.7c0.5,1.5-9.5,19.1-10.4,20.7c-1.2,11.5-3.6,37.5-4.8,48.7c-18.4-4.3-40.5-3.6-57.8-11
	c-8.4-0.8-18.4,1.5-26.2-2.5v0.3"/>
</svg>
